M48
; DRILL file {KiCad 5.1.10-5.1.10} date Sun May 16 20:27:26 2021
; FORMAT={-:-/ absolute / metric / decimal}
; #@! TF.CreationDate,2021-05-16T20:27:26+02:00
; #@! TF.GenerationSoftware,Kicad,Pcbnew,5.1.10-5.1.10
; #@! TF.FileFunction,Plated,1,2,PTH
FMAT,2
METRIC
T1C0.200
T2C0.300
T3C0.600
T4C1.000
T5C3.200
%
G90
G05
T1
X153.35Y-85.1
X153.35Y-86.6
X154.85Y-85.1
X154.85Y-86.6
X156.35Y-85.1
X156.35Y-86.6
T2
X124.0Y-82.0
X124.0Y-85.0
X124.0Y-88.0
X124.0Y-91.0
X124.0Y-94.0
X124.0Y-97.0
X125.25Y-91.45
X126.7Y-85.2
X126.7Y-87.825
X126.725Y-90.375
X128.987Y-89.212
X130.0Y-77.0
X130.0Y-103.0
X131.88Y-85.1
X133.066Y-88.359
X133.6Y-95.0
X133.8Y-90.225
X133.8Y-91.78
X134.0Y-86.0
X134.303Y-84.003
X135.0Y-77.0
X135.0Y-89.4
X135.0Y-92.9
X136.5Y-103.0
X136.95Y-99.15
X138.0Y-77.0
X138.6Y-85.0
X138.7Y-93.025
X138.775Y-94.6
X139.0Y-97.2
X139.2Y-103.2
X139.2Y-96.2
X139.441Y-84.062
X139.6Y-97.8
X140.125Y-92.1
X140.2Y-88.8
X140.3Y-96.4
X141.095Y-97.025
X141.903Y-97.6
X142.425Y-87.725
X142.655Y-98.175
X143.0Y-77.0
X143.95Y-95.725
X146.0Y-77.0
X146.0Y-103.0
X146.325Y-85.275
X146.425Y-101.225
X147.247Y-95.453
X147.6Y-96.8
X148.512Y-94.56
X149.0Y-77.0
X149.0Y-103.0
X149.625Y-89.625
X150.225Y-86.3
X150.4Y-84.425
X150.5Y-97.075
X151.032Y-93.743
X151.1Y-95.6
X151.271Y-89.954
X151.368Y-90.836
X151.45Y-81.625
X152.0Y-77.0
X152.8Y-103.0
X153.875Y-81.45
X154.7Y-91.85
X154.85Y-97.05
X155.0Y-77.0
X155.6Y-100.05
X156.459Y-90.025
X156.75Y-80.975
X157.225Y-90.475
X158.0Y-77.0
X158.2Y-81.95
X158.778Y-83.85
X158.9Y-87.85
X158.9Y-89.0
X159.101Y-100.025
X159.125Y-93.05
X160.725Y-95.35
X161.0Y-77.0
X161.975Y-93.025
X162.125Y-81.775
X162.15Y-84.5
X162.433Y-100.025
X163.8Y-90.15
X164.0Y-77.0
X165.671Y-100.025
X165.8Y-93.8
X166.8Y-91.3
X166.88Y-83.12
X167.0Y-77.0
X168.65Y-98.4
X169.25Y-90.15
X169.25Y-91.875
X169.4Y-80.6
X169.5Y-84.325
X169.5Y-87.7
X169.575Y-97.325
X170.0Y-77.0
X171.575Y-99.35
X172.3Y-94.2
X173.0Y-77.0
X173.0Y-103.0
X174.45Y-102.375
X174.825Y-90.25
X175.075Y-96.675
X175.5Y-98.4
X176.0Y-77.0
X177.075Y-84.35
X177.625Y-80.3
X178.0Y-103.0
X178.925Y-92.225
X179.481Y-98.181
X180.0Y-77.0
X181.0Y-103.0
X182.5Y-89.0
X187.0Y-83.0
X187.0Y-86.0
X187.0Y-89.0
X187.0Y-92.0
X187.0Y-95.0
X187.0Y-98.0
T4
X150.42Y-79.0
X152.96Y-79.0
X155.5Y-79.0
X158.04Y-79.0
X160.58Y-79.0
X172.5Y-79.0
X175.04Y-79.0
X181.2Y-85.0
X181.2Y-87.54
X181.2Y-90.08
X181.2Y-92.62
X181.2Y-95.16
X183.74Y-85.0
X183.74Y-87.54
X183.74Y-90.08
X183.74Y-92.62
X183.74Y-95.16
T5
X127.0Y-80.0
X127.0Y-100.0
X184.0Y-80.0
X184.0Y-100.0
T3
X132.68Y-77.9G85X132.68Y-77.3
G05
X132.68Y-82.33G85X132.68Y-81.23
G05
X141.32Y-77.9G85X141.32Y-77.3
G05
X141.32Y-82.33G85X141.32Y-81.23
G05
T0
M30
