G04 #@! TF.GenerationSoftware,KiCad,Pcbnew,5.1.10-5.1.10*
G04 #@! TF.CreationDate,2021-05-16T20:28:14+02:00*
G04 #@! TF.ProjectId,reva,72657661-2e6b-4696-9361-645f70636258,rev?*
G04 #@! TF.SameCoordinates,Original*
G04 #@! TF.FileFunction,Soldermask,Top*
G04 #@! TF.FilePolarity,Negative*
%FSLAX46Y46*%
G04 Gerber Fmt 4.6, Leading zero omitted, Abs format (unit mm)*
G04 Created by KiCad (PCBNEW 5.1.10-5.1.10) date 2021-05-16 20:28:14*
%MOMM*%
%LPD*%
G01*
G04 APERTURE LIST*
%ADD10O,1.800000X1.800000*%
%ADD11C,5.700000*%
%ADD12C,0.750000*%
%ADD13R,2.310000X2.460000*%
G04 APERTURE END LIST*
G36*
G01*
X175500000Y-91100000D02*
X175500000Y-89300000D01*
G75*
G02*
X175550000Y-89250000I50000J0D01*
G01*
X178050000Y-89250000D01*
G75*
G02*
X178100000Y-89300000I0J-50000D01*
G01*
X178100000Y-91100000D01*
G75*
G02*
X178050000Y-91150000I-50000J0D01*
G01*
X175550000Y-91150000D01*
G75*
G02*
X175500000Y-91100000I0J50000D01*
G01*
G37*
G36*
G01*
X171500000Y-91100000D02*
X171500000Y-89300000D01*
G75*
G02*
X171550000Y-89250000I50000J0D01*
G01*
X174050000Y-89250000D01*
G75*
G02*
X174100000Y-89300000I0J-50000D01*
G01*
X174100000Y-91100000D01*
G75*
G02*
X174050000Y-91150000I-50000J0D01*
G01*
X171550000Y-91150000D01*
G75*
G02*
X171500000Y-91100000I0J50000D01*
G01*
G37*
D10*
X175040000Y-79000000D03*
G36*
G01*
X173350000Y-79900000D02*
X171650000Y-79900000D01*
G75*
G02*
X171600000Y-79850000I0J50000D01*
G01*
X171600000Y-78150000D01*
G75*
G02*
X171650000Y-78100000I50000J0D01*
G01*
X173350000Y-78100000D01*
G75*
G02*
X173400000Y-78150000I0J-50000D01*
G01*
X173400000Y-79850000D01*
G75*
G02*
X173350000Y-79900000I-50000J0D01*
G01*
G37*
D11*
X184000000Y-80000000D03*
X127000000Y-100000000D03*
X184000000Y-100000000D03*
X127000000Y-80000000D03*
G36*
G01*
X158750000Y-94450000D02*
X158750000Y-95950000D01*
G75*
G02*
X158700000Y-96000000I-50000J0D01*
G01*
X156700000Y-96000000D01*
G75*
G02*
X156650000Y-95950000I0J50000D01*
G01*
X156650000Y-94450000D01*
G75*
G02*
X156700000Y-94400000I50000J0D01*
G01*
X158700000Y-94400000D01*
G75*
G02*
X158750000Y-94450000I0J-50000D01*
G01*
G37*
G36*
G01*
X166950000Y-94450000D02*
X166950000Y-95950000D01*
G75*
G02*
X166900000Y-96000000I-50000J0D01*
G01*
X164900000Y-96000000D01*
G75*
G02*
X164850000Y-95950000I0J50000D01*
G01*
X164850000Y-94450000D01*
G75*
G02*
X164900000Y-94400000I50000J0D01*
G01*
X166900000Y-94400000D01*
G75*
G02*
X166950000Y-94450000I0J-50000D01*
G01*
G37*
G36*
G01*
X160450000Y-84725000D02*
X160450000Y-84125000D01*
G75*
G02*
X160675000Y-83900000I225000J0D01*
G01*
X161125000Y-83900000D01*
G75*
G02*
X161350000Y-84125000I0J-225000D01*
G01*
X161350000Y-84725000D01*
G75*
G02*
X161125000Y-84950000I-225000J0D01*
G01*
X160675000Y-84950000D01*
G75*
G02*
X160450000Y-84725000I0J225000D01*
G01*
G37*
G36*
G01*
X158800000Y-84725000D02*
X158800000Y-84125000D01*
G75*
G02*
X159025000Y-83900000I225000J0D01*
G01*
X159475000Y-83900000D01*
G75*
G02*
X159700000Y-84125000I0J-225000D01*
G01*
X159700000Y-84725000D01*
G75*
G02*
X159475000Y-84950000I-225000J0D01*
G01*
X159025000Y-84950000D01*
G75*
G02*
X158800000Y-84725000I0J225000D01*
G01*
G37*
D10*
X160580000Y-79000000D03*
X158040000Y-79000000D03*
X155500000Y-79000000D03*
X152960000Y-79000000D03*
G36*
G01*
X151270000Y-79900000D02*
X149570000Y-79900000D01*
G75*
G02*
X149520000Y-79850000I0J50000D01*
G01*
X149520000Y-78150000D01*
G75*
G02*
X149570000Y-78100000I50000J0D01*
G01*
X151270000Y-78100000D01*
G75*
G02*
X151320000Y-78150000I0J-50000D01*
G01*
X151320000Y-79850000D01*
G75*
G02*
X151270000Y-79900000I-50000J0D01*
G01*
G37*
X183740000Y-95160000D03*
X181200000Y-95160000D03*
X183740000Y-92620000D03*
X181200000Y-92620000D03*
X183740000Y-90080000D03*
X181200000Y-90080000D03*
X183740000Y-87540000D03*
X181200000Y-87540000D03*
X183740000Y-85000000D03*
G36*
G01*
X180300000Y-85850000D02*
X180300000Y-84150000D01*
G75*
G02*
X180350000Y-84100000I50000J0D01*
G01*
X182050000Y-84100000D01*
G75*
G02*
X182100000Y-84150000I0J-50000D01*
G01*
X182100000Y-85850000D01*
G75*
G02*
X182050000Y-85900000I-50000J0D01*
G01*
X180350000Y-85900000D01*
G75*
G02*
X180300000Y-85850000I0J50000D01*
G01*
G37*
G36*
G01*
X176650000Y-86750000D02*
X176650000Y-85250000D01*
G75*
G02*
X176700000Y-85200000I50000J0D01*
G01*
X178700000Y-85200000D01*
G75*
G02*
X178750000Y-85250000I0J-50000D01*
G01*
X178750000Y-86750000D01*
G75*
G02*
X178700000Y-86800000I-50000J0D01*
G01*
X176700000Y-86800000D01*
G75*
G02*
X176650000Y-86750000I0J50000D01*
G01*
G37*
G36*
G01*
X168450000Y-86750000D02*
X168450000Y-85250000D01*
G75*
G02*
X168500000Y-85200000I50000J0D01*
G01*
X170500000Y-85200000D01*
G75*
G02*
X170550000Y-85250000I0J-50000D01*
G01*
X170550000Y-86750000D01*
G75*
G02*
X170500000Y-86800000I-50000J0D01*
G01*
X168500000Y-86800000D01*
G75*
G02*
X168450000Y-86750000I0J50000D01*
G01*
G37*
G36*
G01*
X176650000Y-79500000D02*
X176650000Y-78000000D01*
G75*
G02*
X176700000Y-77950000I50000J0D01*
G01*
X178700000Y-77950000D01*
G75*
G02*
X178750000Y-78000000I0J-50000D01*
G01*
X178750000Y-79500000D01*
G75*
G02*
X178700000Y-79550000I-50000J0D01*
G01*
X176700000Y-79550000D01*
G75*
G02*
X176650000Y-79500000I0J50000D01*
G01*
G37*
G36*
G01*
X168450000Y-79500000D02*
X168450000Y-78000000D01*
G75*
G02*
X168500000Y-77950000I50000J0D01*
G01*
X170500000Y-77950000D01*
G75*
G02*
X170550000Y-78000000I0J-50000D01*
G01*
X170550000Y-79500000D01*
G75*
G02*
X170500000Y-79550000I-50000J0D01*
G01*
X168500000Y-79550000D01*
G75*
G02*
X168450000Y-79500000I0J50000D01*
G01*
G37*
G36*
G01*
X171350000Y-94550000D02*
X169850000Y-94550000D01*
G75*
G02*
X169800000Y-94500000I0J50000D01*
G01*
X169800000Y-92500000D01*
G75*
G02*
X169850000Y-92450000I50000J0D01*
G01*
X171350000Y-92450000D01*
G75*
G02*
X171400000Y-92500000I0J-50000D01*
G01*
X171400000Y-94500000D01*
G75*
G02*
X171350000Y-94550000I-50000J0D01*
G01*
G37*
G36*
G01*
X171350000Y-102750000D02*
X169850000Y-102750000D01*
G75*
G02*
X169800000Y-102700000I0J50000D01*
G01*
X169800000Y-100700000D01*
G75*
G02*
X169850000Y-100650000I50000J0D01*
G01*
X171350000Y-100650000D01*
G75*
G02*
X171400000Y-100700000I0J-50000D01*
G01*
X171400000Y-102700000D01*
G75*
G02*
X171350000Y-102750000I-50000J0D01*
G01*
G37*
G36*
G01*
X153550000Y-94350000D02*
X152050000Y-94350000D01*
G75*
G02*
X152000000Y-94300000I0J50000D01*
G01*
X152000000Y-92300000D01*
G75*
G02*
X152050000Y-92250000I50000J0D01*
G01*
X153550000Y-92250000D01*
G75*
G02*
X153600000Y-92300000I0J-50000D01*
G01*
X153600000Y-94300000D01*
G75*
G02*
X153550000Y-94350000I-50000J0D01*
G01*
G37*
G36*
G01*
X153550000Y-102550000D02*
X152050000Y-102550000D01*
G75*
G02*
X152000000Y-102500000I0J50000D01*
G01*
X152000000Y-100500000D01*
G75*
G02*
X152050000Y-100450000I50000J0D01*
G01*
X153550000Y-100450000D01*
G75*
G02*
X153600000Y-100500000I0J-50000D01*
G01*
X153600000Y-102500000D01*
G75*
G02*
X153550000Y-102550000I-50000J0D01*
G01*
G37*
G36*
G01*
X177375000Y-94100000D02*
X177375000Y-93500000D01*
G75*
G02*
X177600000Y-93275000I225000J0D01*
G01*
X178050000Y-93275000D01*
G75*
G02*
X178275000Y-93500000I0J-225000D01*
G01*
X178275000Y-94100000D01*
G75*
G02*
X178050000Y-94325000I-225000J0D01*
G01*
X177600000Y-94325000D01*
G75*
G02*
X177375000Y-94100000I0J225000D01*
G01*
G37*
G36*
G01*
X175725000Y-94100000D02*
X175725000Y-93500000D01*
G75*
G02*
X175950000Y-93275000I225000J0D01*
G01*
X176400000Y-93275000D01*
G75*
G02*
X176625000Y-93500000I0J-225000D01*
G01*
X176625000Y-94100000D01*
G75*
G02*
X176400000Y-94325000I-225000J0D01*
G01*
X175950000Y-94325000D01*
G75*
G02*
X175725000Y-94100000I0J225000D01*
G01*
G37*
G36*
G01*
X177375000Y-96800000D02*
X177375000Y-96200000D01*
G75*
G02*
X177600000Y-95975000I225000J0D01*
G01*
X178050000Y-95975000D01*
G75*
G02*
X178275000Y-96200000I0J-225000D01*
G01*
X178275000Y-96800000D01*
G75*
G02*
X178050000Y-97025000I-225000J0D01*
G01*
X177600000Y-97025000D01*
G75*
G02*
X177375000Y-96800000I0J225000D01*
G01*
G37*
G36*
G01*
X175725000Y-96800000D02*
X175725000Y-96200000D01*
G75*
G02*
X175950000Y-95975000I225000J0D01*
G01*
X176400000Y-95975000D01*
G75*
G02*
X176625000Y-96200000I0J-225000D01*
G01*
X176625000Y-96800000D01*
G75*
G02*
X176400000Y-97025000I-225000J0D01*
G01*
X175950000Y-97025000D01*
G75*
G02*
X175725000Y-96800000I0J225000D01*
G01*
G37*
G36*
G01*
X124950000Y-89875000D02*
X125550000Y-89875000D01*
G75*
G02*
X125775000Y-90100000I0J-225000D01*
G01*
X125775000Y-90550000D01*
G75*
G02*
X125550000Y-90775000I-225000J0D01*
G01*
X124950000Y-90775000D01*
G75*
G02*
X124725000Y-90550000I0J225000D01*
G01*
X124725000Y-90100000D01*
G75*
G02*
X124950000Y-89875000I225000J0D01*
G01*
G37*
G36*
G01*
X124950000Y-88225000D02*
X125550000Y-88225000D01*
G75*
G02*
X125775000Y-88450000I0J-225000D01*
G01*
X125775000Y-88900000D01*
G75*
G02*
X125550000Y-89125000I-225000J0D01*
G01*
X124950000Y-89125000D01*
G75*
G02*
X124725000Y-88900000I0J225000D01*
G01*
X124725000Y-88450000D01*
G75*
G02*
X124950000Y-88225000I225000J0D01*
G01*
G37*
G36*
G01*
X148650000Y-85625000D02*
X148650000Y-85025000D01*
G75*
G02*
X148875000Y-84800000I225000J0D01*
G01*
X149325000Y-84800000D01*
G75*
G02*
X149550000Y-85025000I0J-225000D01*
G01*
X149550000Y-85625000D01*
G75*
G02*
X149325000Y-85850000I-225000J0D01*
G01*
X148875000Y-85850000D01*
G75*
G02*
X148650000Y-85625000I0J225000D01*
G01*
G37*
G36*
G01*
X147000000Y-85625000D02*
X147000000Y-85025000D01*
G75*
G02*
X147225000Y-84800000I225000J0D01*
G01*
X147675000Y-84800000D01*
G75*
G02*
X147900000Y-85025000I0J-225000D01*
G01*
X147900000Y-85625000D01*
G75*
G02*
X147675000Y-85850000I-225000J0D01*
G01*
X147225000Y-85850000D01*
G75*
G02*
X147000000Y-85625000I0J225000D01*
G01*
G37*
G36*
G01*
X178300000Y-81925000D02*
X177700000Y-81925000D01*
G75*
G02*
X177475000Y-81700000I0J225000D01*
G01*
X177475000Y-81250000D01*
G75*
G02*
X177700000Y-81025000I225000J0D01*
G01*
X178300000Y-81025000D01*
G75*
G02*
X178525000Y-81250000I0J-225000D01*
G01*
X178525000Y-81700000D01*
G75*
G02*
X178300000Y-81925000I-225000J0D01*
G01*
G37*
G36*
G01*
X178300000Y-83575000D02*
X177700000Y-83575000D01*
G75*
G02*
X177475000Y-83350000I0J225000D01*
G01*
X177475000Y-82900000D01*
G75*
G02*
X177700000Y-82675000I225000J0D01*
G01*
X178300000Y-82675000D01*
G75*
G02*
X178525000Y-82900000I0J-225000D01*
G01*
X178525000Y-83350000D01*
G75*
G02*
X178300000Y-83575000I-225000J0D01*
G01*
G37*
G36*
G01*
X176175000Y-100100000D02*
X176175000Y-99500000D01*
G75*
G02*
X176400000Y-99275000I225000J0D01*
G01*
X176850000Y-99275000D01*
G75*
G02*
X177075000Y-99500000I0J-225000D01*
G01*
X177075000Y-100100000D01*
G75*
G02*
X176850000Y-100325000I-225000J0D01*
G01*
X176400000Y-100325000D01*
G75*
G02*
X176175000Y-100100000I0J225000D01*
G01*
G37*
G36*
G01*
X174525000Y-100100000D02*
X174525000Y-99500000D01*
G75*
G02*
X174750000Y-99275000I225000J0D01*
G01*
X175200000Y-99275000D01*
G75*
G02*
X175425000Y-99500000I0J-225000D01*
G01*
X175425000Y-100100000D01*
G75*
G02*
X175200000Y-100325000I-225000J0D01*
G01*
X174750000Y-100325000D01*
G75*
G02*
X174525000Y-100100000I0J225000D01*
G01*
G37*
G36*
G01*
X149475000Y-81350000D02*
X149475000Y-81950000D01*
G75*
G02*
X149250000Y-82175000I-225000J0D01*
G01*
X148800000Y-82175000D01*
G75*
G02*
X148575000Y-81950000I0J225000D01*
G01*
X148575000Y-81350000D01*
G75*
G02*
X148800000Y-81125000I225000J0D01*
G01*
X149250000Y-81125000D01*
G75*
G02*
X149475000Y-81350000I0J-225000D01*
G01*
G37*
G36*
G01*
X151125000Y-81350000D02*
X151125000Y-81950000D01*
G75*
G02*
X150900000Y-82175000I-225000J0D01*
G01*
X150450000Y-82175000D01*
G75*
G02*
X150225000Y-81950000I0J225000D01*
G01*
X150225000Y-81350000D01*
G75*
G02*
X150450000Y-81125000I225000J0D01*
G01*
X150900000Y-81125000D01*
G75*
G02*
X151125000Y-81350000I0J-225000D01*
G01*
G37*
G36*
G01*
X160475000Y-82100000D02*
X160475000Y-81500000D01*
G75*
G02*
X160700000Y-81275000I225000J0D01*
G01*
X161150000Y-81275000D01*
G75*
G02*
X161375000Y-81500000I0J-225000D01*
G01*
X161375000Y-82100000D01*
G75*
G02*
X161150000Y-82325000I-225000J0D01*
G01*
X160700000Y-82325000D01*
G75*
G02*
X160475000Y-82100000I0J225000D01*
G01*
G37*
G36*
G01*
X158825000Y-82100000D02*
X158825000Y-81500000D01*
G75*
G02*
X159050000Y-81275000I225000J0D01*
G01*
X159500000Y-81275000D01*
G75*
G02*
X159725000Y-81500000I0J-225000D01*
G01*
X159725000Y-82100000D01*
G75*
G02*
X159500000Y-82325000I-225000J0D01*
G01*
X159050000Y-82325000D01*
G75*
G02*
X158825000Y-82100000I0J225000D01*
G01*
G37*
G36*
G01*
X177875000Y-98500000D02*
X177875000Y-97900000D01*
G75*
G02*
X178100000Y-97675000I225000J0D01*
G01*
X178550000Y-97675000D01*
G75*
G02*
X178775000Y-97900000I0J-225000D01*
G01*
X178775000Y-98500000D01*
G75*
G02*
X178550000Y-98725000I-225000J0D01*
G01*
X178100000Y-98725000D01*
G75*
G02*
X177875000Y-98500000I0J225000D01*
G01*
G37*
G36*
G01*
X176225000Y-98500000D02*
X176225000Y-97900000D01*
G75*
G02*
X176450000Y-97675000I225000J0D01*
G01*
X176900000Y-97675000D01*
G75*
G02*
X177125000Y-97900000I0J-225000D01*
G01*
X177125000Y-98500000D01*
G75*
G02*
X176900000Y-98725000I-225000J0D01*
G01*
X176450000Y-98725000D01*
G75*
G02*
X176225000Y-98500000I0J225000D01*
G01*
G37*
G36*
G01*
X137300000Y-86625000D02*
X136700000Y-86625000D01*
G75*
G02*
X136475000Y-86400000I0J225000D01*
G01*
X136475000Y-85950000D01*
G75*
G02*
X136700000Y-85725000I225000J0D01*
G01*
X137300000Y-85725000D01*
G75*
G02*
X137525000Y-85950000I0J-225000D01*
G01*
X137525000Y-86400000D01*
G75*
G02*
X137300000Y-86625000I-225000J0D01*
G01*
G37*
G36*
G01*
X137300000Y-88275000D02*
X136700000Y-88275000D01*
G75*
G02*
X136475000Y-88050000I0J225000D01*
G01*
X136475000Y-87600000D01*
G75*
G02*
X136700000Y-87375000I225000J0D01*
G01*
X137300000Y-87375000D01*
G75*
G02*
X137525000Y-87600000I0J-225000D01*
G01*
X137525000Y-88050000D01*
G75*
G02*
X137300000Y-88275000I-225000J0D01*
G01*
G37*
G36*
G01*
X139300000Y-86625000D02*
X138700000Y-86625000D01*
G75*
G02*
X138475000Y-86400000I0J225000D01*
G01*
X138475000Y-85950000D01*
G75*
G02*
X138700000Y-85725000I225000J0D01*
G01*
X139300000Y-85725000D01*
G75*
G02*
X139525000Y-85950000I0J-225000D01*
G01*
X139525000Y-86400000D01*
G75*
G02*
X139300000Y-86625000I-225000J0D01*
G01*
G37*
G36*
G01*
X139300000Y-88275000D02*
X138700000Y-88275000D01*
G75*
G02*
X138475000Y-88050000I0J225000D01*
G01*
X138475000Y-87600000D01*
G75*
G02*
X138700000Y-87375000I225000J0D01*
G01*
X139300000Y-87375000D01*
G75*
G02*
X139525000Y-87600000I0J-225000D01*
G01*
X139525000Y-88050000D01*
G75*
G02*
X139300000Y-88275000I-225000J0D01*
G01*
G37*
G36*
G01*
X157700000Y-101625000D02*
X157100000Y-101625000D01*
G75*
G02*
X156875000Y-101400000I0J225000D01*
G01*
X156875000Y-100950000D01*
G75*
G02*
X157100000Y-100725000I225000J0D01*
G01*
X157700000Y-100725000D01*
G75*
G02*
X157925000Y-100950000I0J-225000D01*
G01*
X157925000Y-101400000D01*
G75*
G02*
X157700000Y-101625000I-225000J0D01*
G01*
G37*
G36*
G01*
X157700000Y-103275000D02*
X157100000Y-103275000D01*
G75*
G02*
X156875000Y-103050000I0J225000D01*
G01*
X156875000Y-102600000D01*
G75*
G02*
X157100000Y-102375000I225000J0D01*
G01*
X157700000Y-102375000D01*
G75*
G02*
X157925000Y-102600000I0J-225000D01*
G01*
X157925000Y-103050000D01*
G75*
G02*
X157700000Y-103275000I-225000J0D01*
G01*
G37*
G36*
G01*
X161200000Y-101625000D02*
X160600000Y-101625000D01*
G75*
G02*
X160375000Y-101400000I0J225000D01*
G01*
X160375000Y-100950000D01*
G75*
G02*
X160600000Y-100725000I225000J0D01*
G01*
X161200000Y-100725000D01*
G75*
G02*
X161425000Y-100950000I0J-225000D01*
G01*
X161425000Y-101400000D01*
G75*
G02*
X161200000Y-101625000I-225000J0D01*
G01*
G37*
G36*
G01*
X161200000Y-103275000D02*
X160600000Y-103275000D01*
G75*
G02*
X160375000Y-103050000I0J225000D01*
G01*
X160375000Y-102600000D01*
G75*
G02*
X160600000Y-102375000I225000J0D01*
G01*
X161200000Y-102375000D01*
G75*
G02*
X161425000Y-102600000I0J-225000D01*
G01*
X161425000Y-103050000D01*
G75*
G02*
X161200000Y-103275000I-225000J0D01*
G01*
G37*
G36*
G01*
X164450000Y-101625000D02*
X163850000Y-101625000D01*
G75*
G02*
X163625000Y-101400000I0J225000D01*
G01*
X163625000Y-100950000D01*
G75*
G02*
X163850000Y-100725000I225000J0D01*
G01*
X164450000Y-100725000D01*
G75*
G02*
X164675000Y-100950000I0J-225000D01*
G01*
X164675000Y-101400000D01*
G75*
G02*
X164450000Y-101625000I-225000J0D01*
G01*
G37*
G36*
G01*
X164450000Y-103275000D02*
X163850000Y-103275000D01*
G75*
G02*
X163625000Y-103050000I0J225000D01*
G01*
X163625000Y-102600000D01*
G75*
G02*
X163850000Y-102375000I225000J0D01*
G01*
X164450000Y-102375000D01*
G75*
G02*
X164675000Y-102600000I0J-225000D01*
G01*
X164675000Y-103050000D01*
G75*
G02*
X164450000Y-103275000I-225000J0D01*
G01*
G37*
G36*
G01*
X167900000Y-101625000D02*
X167300000Y-101625000D01*
G75*
G02*
X167075000Y-101400000I0J225000D01*
G01*
X167075000Y-100950000D01*
G75*
G02*
X167300000Y-100725000I225000J0D01*
G01*
X167900000Y-100725000D01*
G75*
G02*
X168125000Y-100950000I0J-225000D01*
G01*
X168125000Y-101400000D01*
G75*
G02*
X167900000Y-101625000I-225000J0D01*
G01*
G37*
G36*
G01*
X167900000Y-103275000D02*
X167300000Y-103275000D01*
G75*
G02*
X167075000Y-103050000I0J225000D01*
G01*
X167075000Y-102600000D01*
G75*
G02*
X167300000Y-102375000I225000J0D01*
G01*
X167900000Y-102375000D01*
G75*
G02*
X168125000Y-102600000I0J-225000D01*
G01*
X168125000Y-103050000D01*
G75*
G02*
X167900000Y-103275000I-225000J0D01*
G01*
G37*
G36*
G01*
X176500000Y-81950000D02*
X175900000Y-81950000D01*
G75*
G02*
X175675000Y-81725000I0J225000D01*
G01*
X175675000Y-81275000D01*
G75*
G02*
X175900000Y-81050000I225000J0D01*
G01*
X176500000Y-81050000D01*
G75*
G02*
X176725000Y-81275000I0J-225000D01*
G01*
X176725000Y-81725000D01*
G75*
G02*
X176500000Y-81950000I-225000J0D01*
G01*
G37*
G36*
G01*
X176500000Y-83600000D02*
X175900000Y-83600000D01*
G75*
G02*
X175675000Y-83375000I0J225000D01*
G01*
X175675000Y-82925000D01*
G75*
G02*
X175900000Y-82700000I225000J0D01*
G01*
X176500000Y-82700000D01*
G75*
G02*
X176725000Y-82925000I0J-225000D01*
G01*
X176725000Y-83375000D01*
G75*
G02*
X176500000Y-83600000I-225000J0D01*
G01*
G37*
G36*
G01*
X140700000Y-87375000D02*
X141300000Y-87375000D01*
G75*
G02*
X141525000Y-87600000I0J-225000D01*
G01*
X141525000Y-88050000D01*
G75*
G02*
X141300000Y-88275000I-225000J0D01*
G01*
X140700000Y-88275000D01*
G75*
G02*
X140475000Y-88050000I0J225000D01*
G01*
X140475000Y-87600000D01*
G75*
G02*
X140700000Y-87375000I225000J0D01*
G01*
G37*
G36*
G01*
X140700000Y-85725000D02*
X141300000Y-85725000D01*
G75*
G02*
X141525000Y-85950000I0J-225000D01*
G01*
X141525000Y-86400000D01*
G75*
G02*
X141300000Y-86625000I-225000J0D01*
G01*
X140700000Y-86625000D01*
G75*
G02*
X140475000Y-86400000I0J225000D01*
G01*
X140475000Y-85950000D01*
G75*
G02*
X140700000Y-85725000I225000J0D01*
G01*
G37*
G36*
G01*
X167700000Y-92350000D02*
X168300000Y-92350000D01*
G75*
G02*
X168525000Y-92575000I0J-225000D01*
G01*
X168525000Y-93025000D01*
G75*
G02*
X168300000Y-93250000I-225000J0D01*
G01*
X167700000Y-93250000D01*
G75*
G02*
X167475000Y-93025000I0J225000D01*
G01*
X167475000Y-92575000D01*
G75*
G02*
X167700000Y-92350000I225000J0D01*
G01*
G37*
G36*
G01*
X167700000Y-90700000D02*
X168300000Y-90700000D01*
G75*
G02*
X168525000Y-90925000I0J-225000D01*
G01*
X168525000Y-91375000D01*
G75*
G02*
X168300000Y-91600000I-225000J0D01*
G01*
X167700000Y-91600000D01*
G75*
G02*
X167475000Y-91375000I0J225000D01*
G01*
X167475000Y-90925000D01*
G75*
G02*
X167700000Y-90700000I225000J0D01*
G01*
G37*
G36*
G01*
X134700000Y-87375000D02*
X135300000Y-87375000D01*
G75*
G02*
X135525000Y-87600000I0J-225000D01*
G01*
X135525000Y-88050000D01*
G75*
G02*
X135300000Y-88275000I-225000J0D01*
G01*
X134700000Y-88275000D01*
G75*
G02*
X134475000Y-88050000I0J225000D01*
G01*
X134475000Y-87600000D01*
G75*
G02*
X134700000Y-87375000I225000J0D01*
G01*
G37*
G36*
G01*
X134700000Y-85725000D02*
X135300000Y-85725000D01*
G75*
G02*
X135525000Y-85950000I0J-225000D01*
G01*
X135525000Y-86400000D01*
G75*
G02*
X135300000Y-86625000I-225000J0D01*
G01*
X134700000Y-86625000D01*
G75*
G02*
X134475000Y-86400000I0J225000D01*
G01*
X134475000Y-85950000D01*
G75*
G02*
X134700000Y-85725000I225000J0D01*
G01*
G37*
G36*
G01*
X159350000Y-91475000D02*
X159950000Y-91475000D01*
G75*
G02*
X160175000Y-91700000I0J-225000D01*
G01*
X160175000Y-92150000D01*
G75*
G02*
X159950000Y-92375000I-225000J0D01*
G01*
X159350000Y-92375000D01*
G75*
G02*
X159125000Y-92150000I0J225000D01*
G01*
X159125000Y-91700000D01*
G75*
G02*
X159350000Y-91475000I225000J0D01*
G01*
G37*
G36*
G01*
X159350000Y-89825000D02*
X159950000Y-89825000D01*
G75*
G02*
X160175000Y-90050000I0J-225000D01*
G01*
X160175000Y-90500000D01*
G75*
G02*
X159950000Y-90725000I-225000J0D01*
G01*
X159350000Y-90725000D01*
G75*
G02*
X159125000Y-90500000I0J225000D01*
G01*
X159125000Y-90050000D01*
G75*
G02*
X159350000Y-89825000I225000J0D01*
G01*
G37*
G36*
G01*
X161250000Y-91475000D02*
X161850000Y-91475000D01*
G75*
G02*
X162075000Y-91700000I0J-225000D01*
G01*
X162075000Y-92150000D01*
G75*
G02*
X161850000Y-92375000I-225000J0D01*
G01*
X161250000Y-92375000D01*
G75*
G02*
X161025000Y-92150000I0J225000D01*
G01*
X161025000Y-91700000D01*
G75*
G02*
X161250000Y-91475000I225000J0D01*
G01*
G37*
G36*
G01*
X161250000Y-89825000D02*
X161850000Y-89825000D01*
G75*
G02*
X162075000Y-90050000I0J-225000D01*
G01*
X162075000Y-90500000D01*
G75*
G02*
X161850000Y-90725000I-225000J0D01*
G01*
X161250000Y-90725000D01*
G75*
G02*
X161025000Y-90500000I0J225000D01*
G01*
X161025000Y-90050000D01*
G75*
G02*
X161250000Y-89825000I225000J0D01*
G01*
G37*
G36*
G01*
X149531250Y-100450000D02*
X148968750Y-100450000D01*
G75*
G02*
X148725000Y-100206250I0J243750D01*
G01*
X148725000Y-99718750D01*
G75*
G02*
X148968750Y-99475000I243750J0D01*
G01*
X149531250Y-99475000D01*
G75*
G02*
X149775000Y-99718750I0J-243750D01*
G01*
X149775000Y-100206250D01*
G75*
G02*
X149531250Y-100450000I-243750J0D01*
G01*
G37*
G36*
G01*
X149531250Y-102025000D02*
X148968750Y-102025000D01*
G75*
G02*
X148725000Y-101781250I0J243750D01*
G01*
X148725000Y-101293750D01*
G75*
G02*
X148968750Y-101050000I243750J0D01*
G01*
X149531250Y-101050000D01*
G75*
G02*
X149775000Y-101293750I0J-243750D01*
G01*
X149775000Y-101781250D01*
G75*
G02*
X149531250Y-102025000I-243750J0D01*
G01*
G37*
G36*
G01*
X128281250Y-89700000D02*
X127718750Y-89700000D01*
G75*
G02*
X127475000Y-89456250I0J243750D01*
G01*
X127475000Y-88968750D01*
G75*
G02*
X127718750Y-88725000I243750J0D01*
G01*
X128281250Y-88725000D01*
G75*
G02*
X128525000Y-88968750I0J-243750D01*
G01*
X128525000Y-89456250D01*
G75*
G02*
X128281250Y-89700000I-243750J0D01*
G01*
G37*
G36*
G01*
X128281250Y-91275000D02*
X127718750Y-91275000D01*
G75*
G02*
X127475000Y-91031250I0J243750D01*
G01*
X127475000Y-90543750D01*
G75*
G02*
X127718750Y-90300000I243750J0D01*
G01*
X128281250Y-90300000D01*
G75*
G02*
X128525000Y-90543750I0J-243750D01*
G01*
X128525000Y-91031250D01*
G75*
G02*
X128281250Y-91275000I-243750J0D01*
G01*
G37*
G36*
G01*
X124968750Y-86012500D02*
X125531250Y-86012500D01*
G75*
G02*
X125775000Y-86256250I0J-243750D01*
G01*
X125775000Y-86743750D01*
G75*
G02*
X125531250Y-86987500I-243750J0D01*
G01*
X124968750Y-86987500D01*
G75*
G02*
X124725000Y-86743750I0J243750D01*
G01*
X124725000Y-86256250D01*
G75*
G02*
X124968750Y-86012500I243750J0D01*
G01*
G37*
G36*
G01*
X124968750Y-84437500D02*
X125531250Y-84437500D01*
G75*
G02*
X125775000Y-84681250I0J-243750D01*
G01*
X125775000Y-85168750D01*
G75*
G02*
X125531250Y-85412500I-243750J0D01*
G01*
X124968750Y-85412500D01*
G75*
G02*
X124725000Y-85168750I0J243750D01*
G01*
X124725000Y-84681250D01*
G75*
G02*
X124968750Y-84437500I243750J0D01*
G01*
G37*
G36*
G01*
X129900000Y-84500000D02*
X131300000Y-84500000D01*
G75*
G02*
X131350000Y-84550000I0J-50000D01*
G01*
X131350000Y-85550000D01*
G75*
G02*
X131300000Y-85600000I-50000J0D01*
G01*
X129900000Y-85600000D01*
G75*
G02*
X129850000Y-85550000I0J50000D01*
G01*
X129850000Y-84550000D01*
G75*
G02*
X129900000Y-84500000I50000J0D01*
G01*
G37*
G36*
G01*
X129900000Y-86400000D02*
X131300000Y-86400000D01*
G75*
G02*
X131350000Y-86450000I0J-50000D01*
G01*
X131350000Y-87450000D01*
G75*
G02*
X131300000Y-87500000I-50000J0D01*
G01*
X129900000Y-87500000D01*
G75*
G02*
X129850000Y-87450000I0J50000D01*
G01*
X129850000Y-86450000D01*
G75*
G02*
X129900000Y-86400000I50000J0D01*
G01*
G37*
G36*
G01*
X127700000Y-86400000D02*
X129100000Y-86400000D01*
G75*
G02*
X129150000Y-86450000I0J-50000D01*
G01*
X129150000Y-87450000D01*
G75*
G02*
X129100000Y-87500000I-50000J0D01*
G01*
X127700000Y-87500000D01*
G75*
G02*
X127650000Y-87450000I0J50000D01*
G01*
X127650000Y-86450000D01*
G75*
G02*
X127700000Y-86400000I50000J0D01*
G01*
G37*
G36*
G01*
X127700000Y-84580000D02*
X129100000Y-84580000D01*
G75*
G02*
X129150000Y-84630000I0J-50000D01*
G01*
X129150000Y-85830000D01*
G75*
G02*
X129100000Y-85880000I-50000J0D01*
G01*
X127700000Y-85880000D01*
G75*
G02*
X127650000Y-85830000I0J50000D01*
G01*
X127650000Y-84630000D01*
G75*
G02*
X127700000Y-84580000I50000J0D01*
G01*
G37*
G36*
G01*
X155368750Y-102300000D02*
X155931250Y-102300000D01*
G75*
G02*
X156175000Y-102543750I0J-243750D01*
G01*
X156175000Y-103031250D01*
G75*
G02*
X155931250Y-103275000I-243750J0D01*
G01*
X155368750Y-103275000D01*
G75*
G02*
X155125000Y-103031250I0J243750D01*
G01*
X155125000Y-102543750D01*
G75*
G02*
X155368750Y-102300000I243750J0D01*
G01*
G37*
G36*
G01*
X155368750Y-100725000D02*
X155931250Y-100725000D01*
G75*
G02*
X156175000Y-100968750I0J-243750D01*
G01*
X156175000Y-101456250D01*
G75*
G02*
X155931250Y-101700000I-243750J0D01*
G01*
X155368750Y-101700000D01*
G75*
G02*
X155125000Y-101456250I0J243750D01*
G01*
X155125000Y-100968750D01*
G75*
G02*
X155368750Y-100725000I243750J0D01*
G01*
G37*
G36*
G01*
X158868750Y-102300000D02*
X159431250Y-102300000D01*
G75*
G02*
X159675000Y-102543750I0J-243750D01*
G01*
X159675000Y-103031250D01*
G75*
G02*
X159431250Y-103275000I-243750J0D01*
G01*
X158868750Y-103275000D01*
G75*
G02*
X158625000Y-103031250I0J243750D01*
G01*
X158625000Y-102543750D01*
G75*
G02*
X158868750Y-102300000I243750J0D01*
G01*
G37*
G36*
G01*
X158868750Y-100725000D02*
X159431250Y-100725000D01*
G75*
G02*
X159675000Y-100968750I0J-243750D01*
G01*
X159675000Y-101456250D01*
G75*
G02*
X159431250Y-101700000I-243750J0D01*
G01*
X158868750Y-101700000D01*
G75*
G02*
X158625000Y-101456250I0J243750D01*
G01*
X158625000Y-100968750D01*
G75*
G02*
X158868750Y-100725000I243750J0D01*
G01*
G37*
G36*
G01*
X162118750Y-102300000D02*
X162681250Y-102300000D01*
G75*
G02*
X162925000Y-102543750I0J-243750D01*
G01*
X162925000Y-103031250D01*
G75*
G02*
X162681250Y-103275000I-243750J0D01*
G01*
X162118750Y-103275000D01*
G75*
G02*
X161875000Y-103031250I0J243750D01*
G01*
X161875000Y-102543750D01*
G75*
G02*
X162118750Y-102300000I243750J0D01*
G01*
G37*
G36*
G01*
X162118750Y-100725000D02*
X162681250Y-100725000D01*
G75*
G02*
X162925000Y-100968750I0J-243750D01*
G01*
X162925000Y-101456250D01*
G75*
G02*
X162681250Y-101700000I-243750J0D01*
G01*
X162118750Y-101700000D01*
G75*
G02*
X161875000Y-101456250I0J243750D01*
G01*
X161875000Y-100968750D01*
G75*
G02*
X162118750Y-100725000I243750J0D01*
G01*
G37*
G36*
G01*
X165518750Y-102300000D02*
X166081250Y-102300000D01*
G75*
G02*
X166325000Y-102543750I0J-243750D01*
G01*
X166325000Y-103031250D01*
G75*
G02*
X166081250Y-103275000I-243750J0D01*
G01*
X165518750Y-103275000D01*
G75*
G02*
X165275000Y-103031250I0J243750D01*
G01*
X165275000Y-102543750D01*
G75*
G02*
X165518750Y-102300000I243750J0D01*
G01*
G37*
G36*
G01*
X165518750Y-100725000D02*
X166081250Y-100725000D01*
G75*
G02*
X166325000Y-100968750I0J-243750D01*
G01*
X166325000Y-101456250D01*
G75*
G02*
X166081250Y-101700000I-243750J0D01*
G01*
X165518750Y-101700000D01*
G75*
G02*
X165275000Y-101456250I0J243750D01*
G01*
X165275000Y-100968750D01*
G75*
G02*
X165518750Y-100725000I243750J0D01*
G01*
G37*
G36*
G01*
X128800000Y-92850000D02*
X128800000Y-94650000D01*
G75*
G02*
X128750000Y-94700000I-50000J0D01*
G01*
X126250000Y-94700000D01*
G75*
G02*
X126200000Y-94650000I0J50000D01*
G01*
X126200000Y-92850000D01*
G75*
G02*
X126250000Y-92800000I50000J0D01*
G01*
X128750000Y-92800000D01*
G75*
G02*
X128800000Y-92850000I0J-50000D01*
G01*
G37*
G36*
G01*
X132800000Y-92850000D02*
X132800000Y-94650000D01*
G75*
G02*
X132750000Y-94700000I-50000J0D01*
G01*
X130250000Y-94700000D01*
G75*
G02*
X130200000Y-94650000I0J50000D01*
G01*
X130200000Y-92850000D01*
G75*
G02*
X130250000Y-92800000I50000J0D01*
G01*
X132750000Y-92800000D01*
G75*
G02*
X132800000Y-92850000I0J-50000D01*
G01*
G37*
G36*
G01*
X156825000Y-92175000D02*
X156825000Y-91625000D01*
G75*
G02*
X157075000Y-91375000I250000J0D01*
G01*
X157575000Y-91375000D01*
G75*
G02*
X157825000Y-91625000I0J-250000D01*
G01*
X157825000Y-92175000D01*
G75*
G02*
X157575000Y-92425000I-250000J0D01*
G01*
X157075000Y-92425000D01*
G75*
G02*
X156825000Y-92175000I0J250000D01*
G01*
G37*
G36*
G01*
X155275000Y-92175000D02*
X155275000Y-91625000D01*
G75*
G02*
X155525000Y-91375000I250000J0D01*
G01*
X156025000Y-91375000D01*
G75*
G02*
X156275000Y-91625000I0J-250000D01*
G01*
X156275000Y-92175000D01*
G75*
G02*
X156025000Y-92425000I-250000J0D01*
G01*
X155525000Y-92425000D01*
G75*
G02*
X155275000Y-92175000I0J250000D01*
G01*
G37*
G36*
G01*
X153725000Y-91300000D02*
X153725000Y-90750000D01*
G75*
G02*
X153975000Y-90500000I250000J0D01*
G01*
X154475000Y-90500000D01*
G75*
G02*
X154725000Y-90750000I0J-250000D01*
G01*
X154725000Y-91300000D01*
G75*
G02*
X154475000Y-91550000I-250000J0D01*
G01*
X153975000Y-91550000D01*
G75*
G02*
X153725000Y-91300000I0J250000D01*
G01*
G37*
G36*
G01*
X152175000Y-91300000D02*
X152175000Y-90750000D01*
G75*
G02*
X152425000Y-90500000I250000J0D01*
G01*
X152925000Y-90500000D01*
G75*
G02*
X153175000Y-90750000I0J-250000D01*
G01*
X153175000Y-91300000D01*
G75*
G02*
X152925000Y-91550000I-250000J0D01*
G01*
X152425000Y-91550000D01*
G75*
G02*
X152175000Y-91300000I0J250000D01*
G01*
G37*
G36*
G01*
X143925000Y-102275000D02*
X144475000Y-102275000D01*
G75*
G02*
X144725000Y-102525000I0J-250000D01*
G01*
X144725000Y-103025000D01*
G75*
G02*
X144475000Y-103275000I-250000J0D01*
G01*
X143925000Y-103275000D01*
G75*
G02*
X143675000Y-103025000I0J250000D01*
G01*
X143675000Y-102525000D01*
G75*
G02*
X143925000Y-102275000I250000J0D01*
G01*
G37*
G36*
G01*
X143925000Y-100725000D02*
X144475000Y-100725000D01*
G75*
G02*
X144725000Y-100975000I0J-250000D01*
G01*
X144725000Y-101475000D01*
G75*
G02*
X144475000Y-101725000I-250000J0D01*
G01*
X143925000Y-101725000D01*
G75*
G02*
X143675000Y-101475000I0J250000D01*
G01*
X143675000Y-100975000D01*
G75*
G02*
X143925000Y-100725000I250000J0D01*
G01*
G37*
G36*
G01*
X149525000Y-96725000D02*
X148975000Y-96725000D01*
G75*
G02*
X148725000Y-96475000I0J250000D01*
G01*
X148725000Y-95975000D01*
G75*
G02*
X148975000Y-95725000I250000J0D01*
G01*
X149525000Y-95725000D01*
G75*
G02*
X149775000Y-95975000I0J-250000D01*
G01*
X149775000Y-96475000D01*
G75*
G02*
X149525000Y-96725000I-250000J0D01*
G01*
G37*
G36*
G01*
X149525000Y-98275000D02*
X148975000Y-98275000D01*
G75*
G02*
X148725000Y-98025000I0J250000D01*
G01*
X148725000Y-97525000D01*
G75*
G02*
X148975000Y-97275000I250000J0D01*
G01*
X149525000Y-97275000D01*
G75*
G02*
X149775000Y-97525000I0J-250000D01*
G01*
X149775000Y-98025000D01*
G75*
G02*
X149525000Y-98275000I-250000J0D01*
G01*
G37*
G36*
G01*
X135275000Y-90725000D02*
X134725000Y-90725000D01*
G75*
G02*
X134475000Y-90475000I0J250000D01*
G01*
X134475000Y-89975000D01*
G75*
G02*
X134725000Y-89725000I250000J0D01*
G01*
X135275000Y-89725000D01*
G75*
G02*
X135525000Y-89975000I0J-250000D01*
G01*
X135525000Y-90475000D01*
G75*
G02*
X135275000Y-90725000I-250000J0D01*
G01*
G37*
G36*
G01*
X135275000Y-92275000D02*
X134725000Y-92275000D01*
G75*
G02*
X134475000Y-92025000I0J250000D01*
G01*
X134475000Y-91525000D01*
G75*
G02*
X134725000Y-91275000I250000J0D01*
G01*
X135275000Y-91275000D01*
G75*
G02*
X135525000Y-91525000I0J-250000D01*
G01*
X135525000Y-92025000D01*
G75*
G02*
X135275000Y-92275000I-250000J0D01*
G01*
G37*
G36*
G01*
X135275000Y-94725000D02*
X134725000Y-94725000D01*
G75*
G02*
X134475000Y-94475000I0J250000D01*
G01*
X134475000Y-93975000D01*
G75*
G02*
X134725000Y-93725000I250000J0D01*
G01*
X135275000Y-93725000D01*
G75*
G02*
X135525000Y-93975000I0J-250000D01*
G01*
X135525000Y-94475000D01*
G75*
G02*
X135275000Y-94725000I-250000J0D01*
G01*
G37*
G36*
G01*
X135275000Y-96275000D02*
X134725000Y-96275000D01*
G75*
G02*
X134475000Y-96025000I0J250000D01*
G01*
X134475000Y-95525000D01*
G75*
G02*
X134725000Y-95275000I250000J0D01*
G01*
X135275000Y-95275000D01*
G75*
G02*
X135525000Y-95525000I0J-250000D01*
G01*
X135525000Y-96025000D01*
G75*
G02*
X135275000Y-96275000I-250000J0D01*
G01*
G37*
G36*
G01*
X177775000Y-101775000D02*
X177775000Y-101225000D01*
G75*
G02*
X178025000Y-100975000I250000J0D01*
G01*
X178525000Y-100975000D01*
G75*
G02*
X178775000Y-101225000I0J-250000D01*
G01*
X178775000Y-101775000D01*
G75*
G02*
X178525000Y-102025000I-250000J0D01*
G01*
X178025000Y-102025000D01*
G75*
G02*
X177775000Y-101775000I0J250000D01*
G01*
G37*
G36*
G01*
X176225000Y-101775000D02*
X176225000Y-101225000D01*
G75*
G02*
X176475000Y-100975000I250000J0D01*
G01*
X176975000Y-100975000D01*
G75*
G02*
X177225000Y-101225000I0J-250000D01*
G01*
X177225000Y-101775000D01*
G75*
G02*
X176975000Y-102025000I-250000J0D01*
G01*
X176475000Y-102025000D01*
G75*
G02*
X176225000Y-101775000I0J250000D01*
G01*
G37*
G36*
G01*
X141725000Y-102275000D02*
X142275000Y-102275000D01*
G75*
G02*
X142525000Y-102525000I0J-250000D01*
G01*
X142525000Y-103025000D01*
G75*
G02*
X142275000Y-103275000I-250000J0D01*
G01*
X141725000Y-103275000D01*
G75*
G02*
X141475000Y-103025000I0J250000D01*
G01*
X141475000Y-102525000D01*
G75*
G02*
X141725000Y-102275000I250000J0D01*
G01*
G37*
G36*
G01*
X141725000Y-100725000D02*
X142275000Y-100725000D01*
G75*
G02*
X142525000Y-100975000I0J-250000D01*
G01*
X142525000Y-101475000D01*
G75*
G02*
X142275000Y-101725000I-250000J0D01*
G01*
X141725000Y-101725000D01*
G75*
G02*
X141475000Y-101475000I0J250000D01*
G01*
X141475000Y-100975000D01*
G75*
G02*
X141725000Y-100725000I250000J0D01*
G01*
G37*
G36*
G01*
X134725000Y-102075000D02*
X135275000Y-102075000D01*
G75*
G02*
X135525000Y-102325000I0J-250000D01*
G01*
X135525000Y-102825000D01*
G75*
G02*
X135275000Y-103075000I-250000J0D01*
G01*
X134725000Y-103075000D01*
G75*
G02*
X134475000Y-102825000I0J250000D01*
G01*
X134475000Y-102325000D01*
G75*
G02*
X134725000Y-102075000I250000J0D01*
G01*
G37*
G36*
G01*
X134725000Y-100525000D02*
X135275000Y-100525000D01*
G75*
G02*
X135525000Y-100775000I0J-250000D01*
G01*
X135525000Y-101275000D01*
G75*
G02*
X135275000Y-101525000I-250000J0D01*
G01*
X134725000Y-101525000D01*
G75*
G02*
X134475000Y-101275000I0J250000D01*
G01*
X134475000Y-100775000D01*
G75*
G02*
X134725000Y-100525000I250000J0D01*
G01*
G37*
G36*
G01*
X135275000Y-98100000D02*
X134725000Y-98100000D01*
G75*
G02*
X134475000Y-97850000I0J250000D01*
G01*
X134475000Y-97350000D01*
G75*
G02*
X134725000Y-97100000I250000J0D01*
G01*
X135275000Y-97100000D01*
G75*
G02*
X135525000Y-97350000I0J-250000D01*
G01*
X135525000Y-97850000D01*
G75*
G02*
X135275000Y-98100000I-250000J0D01*
G01*
G37*
G36*
G01*
X135275000Y-99650000D02*
X134725000Y-99650000D01*
G75*
G02*
X134475000Y-99400000I0J250000D01*
G01*
X134475000Y-98900000D01*
G75*
G02*
X134725000Y-98650000I250000J0D01*
G01*
X135275000Y-98650000D01*
G75*
G02*
X135525000Y-98900000I0J-250000D01*
G01*
X135525000Y-99400000D01*
G75*
G02*
X135275000Y-99650000I-250000J0D01*
G01*
G37*
G36*
G01*
X130775000Y-91275000D02*
X130775000Y-90725000D01*
G75*
G02*
X131025000Y-90475000I250000J0D01*
G01*
X131525000Y-90475000D01*
G75*
G02*
X131775000Y-90725000I0J-250000D01*
G01*
X131775000Y-91275000D01*
G75*
G02*
X131525000Y-91525000I-250000J0D01*
G01*
X131025000Y-91525000D01*
G75*
G02*
X130775000Y-91275000I0J250000D01*
G01*
G37*
G36*
G01*
X129225000Y-91275000D02*
X129225000Y-90725000D01*
G75*
G02*
X129475000Y-90475000I250000J0D01*
G01*
X129975000Y-90475000D01*
G75*
G02*
X130225000Y-90725000I0J-250000D01*
G01*
X130225000Y-91275000D01*
G75*
G02*
X129975000Y-91525000I-250000J0D01*
G01*
X129475000Y-91525000D01*
G75*
G02*
X129225000Y-91275000I0J250000D01*
G01*
G37*
G36*
G01*
X130775000Y-89275000D02*
X130775000Y-88725000D01*
G75*
G02*
X131025000Y-88475000I250000J0D01*
G01*
X131525000Y-88475000D01*
G75*
G02*
X131775000Y-88725000I0J-250000D01*
G01*
X131775000Y-89275000D01*
G75*
G02*
X131525000Y-89525000I-250000J0D01*
G01*
X131025000Y-89525000D01*
G75*
G02*
X130775000Y-89275000I0J250000D01*
G01*
G37*
G36*
G01*
X129225000Y-89275000D02*
X129225000Y-88725000D01*
G75*
G02*
X129475000Y-88475000I250000J0D01*
G01*
X129975000Y-88475000D01*
G75*
G02*
X130225000Y-88725000I0J-250000D01*
G01*
X130225000Y-89275000D01*
G75*
G02*
X129975000Y-89525000I-250000J0D01*
G01*
X129475000Y-89525000D01*
G75*
G02*
X129225000Y-89275000I0J250000D01*
G01*
G37*
G36*
G01*
X132275000Y-96775000D02*
X132275000Y-96225000D01*
G75*
G02*
X132525000Y-95975000I250000J0D01*
G01*
X133025000Y-95975000D01*
G75*
G02*
X133275000Y-96225000I0J-250000D01*
G01*
X133275000Y-96775000D01*
G75*
G02*
X133025000Y-97025000I-250000J0D01*
G01*
X132525000Y-97025000D01*
G75*
G02*
X132275000Y-96775000I0J250000D01*
G01*
G37*
G36*
G01*
X130725000Y-96775000D02*
X130725000Y-96225000D01*
G75*
G02*
X130975000Y-95975000I250000J0D01*
G01*
X131475000Y-95975000D01*
G75*
G02*
X131725000Y-96225000I0J-250000D01*
G01*
X131725000Y-96775000D01*
G75*
G02*
X131475000Y-97025000I-250000J0D01*
G01*
X130975000Y-97025000D01*
G75*
G02*
X130725000Y-96775000I0J250000D01*
G01*
G37*
G36*
G01*
X139350000Y-102550000D02*
X139350000Y-101450000D01*
G75*
G02*
X139400000Y-101400000I50000J0D01*
G01*
X140450000Y-101400000D01*
G75*
G02*
X140500000Y-101450000I0J-50000D01*
G01*
X140500000Y-102550000D01*
G75*
G02*
X140450000Y-102600000I-50000J0D01*
G01*
X139400000Y-102600000D01*
G75*
G02*
X139350000Y-102550000I0J50000D01*
G01*
G37*
G36*
G01*
X137500000Y-102550000D02*
X137500000Y-101450000D01*
G75*
G02*
X137550000Y-101400000I50000J0D01*
G01*
X138600000Y-101400000D01*
G75*
G02*
X138650000Y-101450000I0J-50000D01*
G01*
X138650000Y-102550000D01*
G75*
G02*
X138600000Y-102600000I-50000J0D01*
G01*
X137550000Y-102600000D01*
G75*
G02*
X137500000Y-102550000I0J50000D01*
G01*
G37*
G36*
G01*
X132775000Y-99925000D02*
X133125000Y-99925000D01*
G75*
G02*
X133300000Y-100100000I0J-175000D01*
G01*
X133300000Y-101175000D01*
G75*
G02*
X133125000Y-101350000I-175000J0D01*
G01*
X132775000Y-101350000D01*
G75*
G02*
X132600000Y-101175000I0J175000D01*
G01*
X132600000Y-100100000D01*
G75*
G02*
X132775000Y-99925000I175000J0D01*
G01*
G37*
G36*
G01*
X130875000Y-99925000D02*
X131225000Y-99925000D01*
G75*
G02*
X131400000Y-100100000I0J-175000D01*
G01*
X131400000Y-101175000D01*
G75*
G02*
X131225000Y-101350000I-175000J0D01*
G01*
X130875000Y-101350000D01*
G75*
G02*
X130700000Y-101175000I0J175000D01*
G01*
X130700000Y-100100000D01*
G75*
G02*
X130875000Y-99925000I175000J0D01*
G01*
G37*
G36*
G01*
X130875000Y-97650000D02*
X131225000Y-97650000D01*
G75*
G02*
X131400000Y-97825000I0J-175000D01*
G01*
X131400000Y-98900000D01*
G75*
G02*
X131225000Y-99075000I-175000J0D01*
G01*
X130875000Y-99075000D01*
G75*
G02*
X130700000Y-98900000I0J175000D01*
G01*
X130700000Y-97825000D01*
G75*
G02*
X130875000Y-97650000I175000J0D01*
G01*
G37*
G36*
G01*
X131825000Y-97650000D02*
X132175000Y-97650000D01*
G75*
G02*
X132350000Y-97825000I0J-175000D01*
G01*
X132350000Y-98900000D01*
G75*
G02*
X132175000Y-99075000I-175000J0D01*
G01*
X131825000Y-99075000D01*
G75*
G02*
X131650000Y-98900000I0J175000D01*
G01*
X131650000Y-97825000D01*
G75*
G02*
X131825000Y-97650000I175000J0D01*
G01*
G37*
G36*
G01*
X132775000Y-97650000D02*
X133125000Y-97650000D01*
G75*
G02*
X133300000Y-97825000I0J-175000D01*
G01*
X133300000Y-98900000D01*
G75*
G02*
X133125000Y-99075000I-175000J0D01*
G01*
X132775000Y-99075000D01*
G75*
G02*
X132600000Y-98900000I0J175000D01*
G01*
X132600000Y-97825000D01*
G75*
G02*
X132775000Y-97650000I175000J0D01*
G01*
G37*
G36*
G01*
X134100000Y-81970000D02*
X134100000Y-83420000D01*
G75*
G02*
X134050000Y-83470000I-50000J0D01*
G01*
X133500000Y-83470000D01*
G75*
G02*
X133450000Y-83420000I0J50000D01*
G01*
X133450000Y-81970000D01*
G75*
G02*
X133500000Y-81920000I50000J0D01*
G01*
X134050000Y-81920000D01*
G75*
G02*
X134100000Y-81970000I0J-50000D01*
G01*
G37*
G36*
G01*
X140550000Y-81970000D02*
X140550000Y-83420000D01*
G75*
G02*
X140500000Y-83470000I-50000J0D01*
G01*
X139950000Y-83470000D01*
G75*
G02*
X139900000Y-83420000I0J50000D01*
G01*
X139900000Y-81970000D01*
G75*
G02*
X139950000Y-81920000I50000J0D01*
G01*
X140500000Y-81920000D01*
G75*
G02*
X140550000Y-81970000I0J-50000D01*
G01*
G37*
G36*
G01*
X134850000Y-81970000D02*
X134850000Y-83420000D01*
G75*
G02*
X134800000Y-83470000I-50000J0D01*
G01*
X134300000Y-83470000D01*
G75*
G02*
X134250000Y-83420000I0J50000D01*
G01*
X134250000Y-81970000D01*
G75*
G02*
X134300000Y-81920000I50000J0D01*
G01*
X134800000Y-81920000D01*
G75*
G02*
X134850000Y-81970000I0J-50000D01*
G01*
G37*
G36*
G01*
X139750000Y-81970000D02*
X139750000Y-83420000D01*
G75*
G02*
X139700000Y-83470000I-50000J0D01*
G01*
X139200000Y-83470000D01*
G75*
G02*
X139150000Y-83420000I0J50000D01*
G01*
X139150000Y-81970000D01*
G75*
G02*
X139200000Y-81920000I50000J0D01*
G01*
X139700000Y-81920000D01*
G75*
G02*
X139750000Y-81970000I0J-50000D01*
G01*
G37*
G36*
G01*
X138950000Y-81970000D02*
X138950000Y-83420000D01*
G75*
G02*
X138900000Y-83470000I-50000J0D01*
G01*
X138600000Y-83470000D01*
G75*
G02*
X138550000Y-83420000I0J50000D01*
G01*
X138550000Y-81970000D01*
G75*
G02*
X138600000Y-81920000I50000J0D01*
G01*
X138900000Y-81920000D01*
G75*
G02*
X138950000Y-81970000I0J-50000D01*
G01*
G37*
G36*
G01*
X135450000Y-81970000D02*
X135450000Y-83420000D01*
G75*
G02*
X135400000Y-83470000I-50000J0D01*
G01*
X135100000Y-83470000D01*
G75*
G02*
X135050000Y-83420000I0J50000D01*
G01*
X135050000Y-81970000D01*
G75*
G02*
X135100000Y-81920000I50000J0D01*
G01*
X135400000Y-81920000D01*
G75*
G02*
X135450000Y-81970000I0J-50000D01*
G01*
G37*
G36*
G01*
X138450000Y-81970000D02*
X138450000Y-83420000D01*
G75*
G02*
X138400000Y-83470000I-50000J0D01*
G01*
X138100000Y-83470000D01*
G75*
G02*
X138050000Y-83420000I0J50000D01*
G01*
X138050000Y-81970000D01*
G75*
G02*
X138100000Y-81920000I50000J0D01*
G01*
X138400000Y-81920000D01*
G75*
G02*
X138450000Y-81970000I0J-50000D01*
G01*
G37*
G36*
G01*
X135950000Y-81970000D02*
X135950000Y-83420000D01*
G75*
G02*
X135900000Y-83470000I-50000J0D01*
G01*
X135600000Y-83470000D01*
G75*
G02*
X135550000Y-83420000I0J50000D01*
G01*
X135550000Y-81970000D01*
G75*
G02*
X135600000Y-81920000I50000J0D01*
G01*
X135900000Y-81920000D01*
G75*
G02*
X135950000Y-81970000I0J-50000D01*
G01*
G37*
G36*
G01*
X137950000Y-81970000D02*
X137950000Y-83420000D01*
G75*
G02*
X137900000Y-83470000I-50000J0D01*
G01*
X137600000Y-83470000D01*
G75*
G02*
X137550000Y-83420000I0J50000D01*
G01*
X137550000Y-81970000D01*
G75*
G02*
X137600000Y-81920000I50000J0D01*
G01*
X137900000Y-81920000D01*
G75*
G02*
X137950000Y-81970000I0J-50000D01*
G01*
G37*
G36*
G01*
X136450000Y-81970000D02*
X136450000Y-83420000D01*
G75*
G02*
X136400000Y-83470000I-50000J0D01*
G01*
X136100000Y-83470000D01*
G75*
G02*
X136050000Y-83420000I0J50000D01*
G01*
X136050000Y-81970000D01*
G75*
G02*
X136100000Y-81920000I50000J0D01*
G01*
X136400000Y-81920000D01*
G75*
G02*
X136450000Y-81970000I0J-50000D01*
G01*
G37*
G36*
G01*
X136950000Y-81970000D02*
X136950000Y-83420000D01*
G75*
G02*
X136900000Y-83470000I-50000J0D01*
G01*
X136600000Y-83470000D01*
G75*
G02*
X136550000Y-83420000I0J50000D01*
G01*
X136550000Y-81970000D01*
G75*
G02*
X136600000Y-81920000I50000J0D01*
G01*
X136900000Y-81920000D01*
G75*
G02*
X136950000Y-81970000I0J-50000D01*
G01*
G37*
G36*
G01*
X137450000Y-81970000D02*
X137450000Y-83420000D01*
G75*
G02*
X137400000Y-83470000I-50000J0D01*
G01*
X137100000Y-83470000D01*
G75*
G02*
X137050000Y-83420000I0J50000D01*
G01*
X137050000Y-81970000D01*
G75*
G02*
X137100000Y-81920000I50000J0D01*
G01*
X137400000Y-81920000D01*
G75*
G02*
X137450000Y-81970000I0J-50000D01*
G01*
G37*
D12*
X134110000Y-81250000D03*
X139890000Y-81250000D03*
D13*
X154850000Y-85850000D03*
G36*
G01*
X157000000Y-87875000D02*
X157250000Y-87875000D01*
G75*
G02*
X157375000Y-88000000I0J-125000D01*
G01*
X157375000Y-89425000D01*
G75*
G02*
X157250000Y-89550000I-125000J0D01*
G01*
X157000000Y-89550000D01*
G75*
G02*
X156875000Y-89425000I0J125000D01*
G01*
X156875000Y-88000000D01*
G75*
G02*
X157000000Y-87875000I125000J0D01*
G01*
G37*
G36*
G01*
X156350000Y-87875000D02*
X156600000Y-87875000D01*
G75*
G02*
X156725000Y-88000000I0J-125000D01*
G01*
X156725000Y-89425000D01*
G75*
G02*
X156600000Y-89550000I-125000J0D01*
G01*
X156350000Y-89550000D01*
G75*
G02*
X156225000Y-89425000I0J125000D01*
G01*
X156225000Y-88000000D01*
G75*
G02*
X156350000Y-87875000I125000J0D01*
G01*
G37*
G36*
G01*
X155700000Y-87875000D02*
X155950000Y-87875000D01*
G75*
G02*
X156075000Y-88000000I0J-125000D01*
G01*
X156075000Y-89425000D01*
G75*
G02*
X155950000Y-89550000I-125000J0D01*
G01*
X155700000Y-89550000D01*
G75*
G02*
X155575000Y-89425000I0J125000D01*
G01*
X155575000Y-88000000D01*
G75*
G02*
X155700000Y-87875000I125000J0D01*
G01*
G37*
G36*
G01*
X155050000Y-87875000D02*
X155300000Y-87875000D01*
G75*
G02*
X155425000Y-88000000I0J-125000D01*
G01*
X155425000Y-89425000D01*
G75*
G02*
X155300000Y-89550000I-125000J0D01*
G01*
X155050000Y-89550000D01*
G75*
G02*
X154925000Y-89425000I0J125000D01*
G01*
X154925000Y-88000000D01*
G75*
G02*
X155050000Y-87875000I125000J0D01*
G01*
G37*
G36*
G01*
X154400000Y-87875000D02*
X154650000Y-87875000D01*
G75*
G02*
X154775000Y-88000000I0J-125000D01*
G01*
X154775000Y-89425000D01*
G75*
G02*
X154650000Y-89550000I-125000J0D01*
G01*
X154400000Y-89550000D01*
G75*
G02*
X154275000Y-89425000I0J125000D01*
G01*
X154275000Y-88000000D01*
G75*
G02*
X154400000Y-87875000I125000J0D01*
G01*
G37*
G36*
G01*
X153750000Y-87875000D02*
X154000000Y-87875000D01*
G75*
G02*
X154125000Y-88000000I0J-125000D01*
G01*
X154125000Y-89425000D01*
G75*
G02*
X154000000Y-89550000I-125000J0D01*
G01*
X153750000Y-89550000D01*
G75*
G02*
X153625000Y-89425000I0J125000D01*
G01*
X153625000Y-88000000D01*
G75*
G02*
X153750000Y-87875000I125000J0D01*
G01*
G37*
G36*
G01*
X153100000Y-87875000D02*
X153350000Y-87875000D01*
G75*
G02*
X153475000Y-88000000I0J-125000D01*
G01*
X153475000Y-89425000D01*
G75*
G02*
X153350000Y-89550000I-125000J0D01*
G01*
X153100000Y-89550000D01*
G75*
G02*
X152975000Y-89425000I0J125000D01*
G01*
X152975000Y-88000000D01*
G75*
G02*
X153100000Y-87875000I125000J0D01*
G01*
G37*
G36*
G01*
X152450000Y-87875000D02*
X152700000Y-87875000D01*
G75*
G02*
X152825000Y-88000000I0J-125000D01*
G01*
X152825000Y-89425000D01*
G75*
G02*
X152700000Y-89550000I-125000J0D01*
G01*
X152450000Y-89550000D01*
G75*
G02*
X152325000Y-89425000I0J125000D01*
G01*
X152325000Y-88000000D01*
G75*
G02*
X152450000Y-87875000I125000J0D01*
G01*
G37*
G36*
G01*
X152450000Y-82150000D02*
X152700000Y-82150000D01*
G75*
G02*
X152825000Y-82275000I0J-125000D01*
G01*
X152825000Y-83700000D01*
G75*
G02*
X152700000Y-83825000I-125000J0D01*
G01*
X152450000Y-83825000D01*
G75*
G02*
X152325000Y-83700000I0J125000D01*
G01*
X152325000Y-82275000D01*
G75*
G02*
X152450000Y-82150000I125000J0D01*
G01*
G37*
G36*
G01*
X153100000Y-82150000D02*
X153350000Y-82150000D01*
G75*
G02*
X153475000Y-82275000I0J-125000D01*
G01*
X153475000Y-83700000D01*
G75*
G02*
X153350000Y-83825000I-125000J0D01*
G01*
X153100000Y-83825000D01*
G75*
G02*
X152975000Y-83700000I0J125000D01*
G01*
X152975000Y-82275000D01*
G75*
G02*
X153100000Y-82150000I125000J0D01*
G01*
G37*
G36*
G01*
X153750000Y-82150000D02*
X154000000Y-82150000D01*
G75*
G02*
X154125000Y-82275000I0J-125000D01*
G01*
X154125000Y-83700000D01*
G75*
G02*
X154000000Y-83825000I-125000J0D01*
G01*
X153750000Y-83825000D01*
G75*
G02*
X153625000Y-83700000I0J125000D01*
G01*
X153625000Y-82275000D01*
G75*
G02*
X153750000Y-82150000I125000J0D01*
G01*
G37*
G36*
G01*
X154400000Y-82150000D02*
X154650000Y-82150000D01*
G75*
G02*
X154775000Y-82275000I0J-125000D01*
G01*
X154775000Y-83700000D01*
G75*
G02*
X154650000Y-83825000I-125000J0D01*
G01*
X154400000Y-83825000D01*
G75*
G02*
X154275000Y-83700000I0J125000D01*
G01*
X154275000Y-82275000D01*
G75*
G02*
X154400000Y-82150000I125000J0D01*
G01*
G37*
G36*
G01*
X155050000Y-82150000D02*
X155300000Y-82150000D01*
G75*
G02*
X155425000Y-82275000I0J-125000D01*
G01*
X155425000Y-83700000D01*
G75*
G02*
X155300000Y-83825000I-125000J0D01*
G01*
X155050000Y-83825000D01*
G75*
G02*
X154925000Y-83700000I0J125000D01*
G01*
X154925000Y-82275000D01*
G75*
G02*
X155050000Y-82150000I125000J0D01*
G01*
G37*
G36*
G01*
X155700000Y-82150000D02*
X155950000Y-82150000D01*
G75*
G02*
X156075000Y-82275000I0J-125000D01*
G01*
X156075000Y-83700000D01*
G75*
G02*
X155950000Y-83825000I-125000J0D01*
G01*
X155700000Y-83825000D01*
G75*
G02*
X155575000Y-83700000I0J125000D01*
G01*
X155575000Y-82275000D01*
G75*
G02*
X155700000Y-82150000I125000J0D01*
G01*
G37*
G36*
G01*
X156350000Y-82150000D02*
X156600000Y-82150000D01*
G75*
G02*
X156725000Y-82275000I0J-125000D01*
G01*
X156725000Y-83700000D01*
G75*
G02*
X156600000Y-83825000I-125000J0D01*
G01*
X156350000Y-83825000D01*
G75*
G02*
X156225000Y-83700000I0J125000D01*
G01*
X156225000Y-82275000D01*
G75*
G02*
X156350000Y-82150000I125000J0D01*
G01*
G37*
G36*
G01*
X157000000Y-82150000D02*
X157250000Y-82150000D01*
G75*
G02*
X157375000Y-82275000I0J-125000D01*
G01*
X157375000Y-83700000D01*
G75*
G02*
X157250000Y-83825000I-125000J0D01*
G01*
X157000000Y-83825000D01*
G75*
G02*
X156875000Y-83700000I0J125000D01*
G01*
X156875000Y-82275000D01*
G75*
G02*
X157000000Y-82150000I125000J0D01*
G01*
G37*
G36*
G01*
X138100000Y-97525000D02*
X138100000Y-98075000D01*
G75*
G02*
X138050000Y-98125000I-50000J0D01*
G01*
X136450000Y-98125000D01*
G75*
G02*
X136400000Y-98075000I0J50000D01*
G01*
X136400000Y-97525000D01*
G75*
G02*
X136450000Y-97475000I50000J0D01*
G01*
X138050000Y-97475000D01*
G75*
G02*
X138100000Y-97525000I0J-50000D01*
G01*
G37*
G36*
G01*
X138100000Y-96725000D02*
X138100000Y-97275000D01*
G75*
G02*
X138050000Y-97325000I-50000J0D01*
G01*
X136450000Y-97325000D01*
G75*
G02*
X136400000Y-97275000I0J50000D01*
G01*
X136400000Y-96725000D01*
G75*
G02*
X136450000Y-96675000I50000J0D01*
G01*
X138050000Y-96675000D01*
G75*
G02*
X138100000Y-96725000I0J-50000D01*
G01*
G37*
G36*
G01*
X138100000Y-95925000D02*
X138100000Y-96475000D01*
G75*
G02*
X138050000Y-96525000I-50000J0D01*
G01*
X136450000Y-96525000D01*
G75*
G02*
X136400000Y-96475000I0J50000D01*
G01*
X136400000Y-95925000D01*
G75*
G02*
X136450000Y-95875000I50000J0D01*
G01*
X138050000Y-95875000D01*
G75*
G02*
X138100000Y-95925000I0J-50000D01*
G01*
G37*
G36*
G01*
X138100000Y-95125000D02*
X138100000Y-95675000D01*
G75*
G02*
X138050000Y-95725000I-50000J0D01*
G01*
X136450000Y-95725000D01*
G75*
G02*
X136400000Y-95675000I0J50000D01*
G01*
X136400000Y-95125000D01*
G75*
G02*
X136450000Y-95075000I50000J0D01*
G01*
X138050000Y-95075000D01*
G75*
G02*
X138100000Y-95125000I0J-50000D01*
G01*
G37*
G36*
G01*
X138100000Y-94325000D02*
X138100000Y-94875000D01*
G75*
G02*
X138050000Y-94925000I-50000J0D01*
G01*
X136450000Y-94925000D01*
G75*
G02*
X136400000Y-94875000I0J50000D01*
G01*
X136400000Y-94325000D01*
G75*
G02*
X136450000Y-94275000I50000J0D01*
G01*
X138050000Y-94275000D01*
G75*
G02*
X138100000Y-94325000I0J-50000D01*
G01*
G37*
G36*
G01*
X138100000Y-93525000D02*
X138100000Y-94075000D01*
G75*
G02*
X138050000Y-94125000I-50000J0D01*
G01*
X136450000Y-94125000D01*
G75*
G02*
X136400000Y-94075000I0J50000D01*
G01*
X136400000Y-93525000D01*
G75*
G02*
X136450000Y-93475000I50000J0D01*
G01*
X138050000Y-93475000D01*
G75*
G02*
X138100000Y-93525000I0J-50000D01*
G01*
G37*
G36*
G01*
X138100000Y-92725000D02*
X138100000Y-93275000D01*
G75*
G02*
X138050000Y-93325000I-50000J0D01*
G01*
X136450000Y-93325000D01*
G75*
G02*
X136400000Y-93275000I0J50000D01*
G01*
X136400000Y-92725000D01*
G75*
G02*
X136450000Y-92675000I50000J0D01*
G01*
X138050000Y-92675000D01*
G75*
G02*
X138100000Y-92725000I0J-50000D01*
G01*
G37*
G36*
G01*
X138100000Y-91925000D02*
X138100000Y-92475000D01*
G75*
G02*
X138050000Y-92525000I-50000J0D01*
G01*
X136450000Y-92525000D01*
G75*
G02*
X136400000Y-92475000I0J50000D01*
G01*
X136400000Y-91925000D01*
G75*
G02*
X136450000Y-91875000I50000J0D01*
G01*
X138050000Y-91875000D01*
G75*
G02*
X138100000Y-91925000I0J-50000D01*
G01*
G37*
G36*
G01*
X138975000Y-91600000D02*
X138425000Y-91600000D01*
G75*
G02*
X138375000Y-91550000I0J50000D01*
G01*
X138375000Y-89950000D01*
G75*
G02*
X138425000Y-89900000I50000J0D01*
G01*
X138975000Y-89900000D01*
G75*
G02*
X139025000Y-89950000I0J-50000D01*
G01*
X139025000Y-91550000D01*
G75*
G02*
X138975000Y-91600000I-50000J0D01*
G01*
G37*
G36*
G01*
X139775000Y-91600000D02*
X139225000Y-91600000D01*
G75*
G02*
X139175000Y-91550000I0J50000D01*
G01*
X139175000Y-89950000D01*
G75*
G02*
X139225000Y-89900000I50000J0D01*
G01*
X139775000Y-89900000D01*
G75*
G02*
X139825000Y-89950000I0J-50000D01*
G01*
X139825000Y-91550000D01*
G75*
G02*
X139775000Y-91600000I-50000J0D01*
G01*
G37*
G36*
G01*
X140575000Y-91600000D02*
X140025000Y-91600000D01*
G75*
G02*
X139975000Y-91550000I0J50000D01*
G01*
X139975000Y-89950000D01*
G75*
G02*
X140025000Y-89900000I50000J0D01*
G01*
X140575000Y-89900000D01*
G75*
G02*
X140625000Y-89950000I0J-50000D01*
G01*
X140625000Y-91550000D01*
G75*
G02*
X140575000Y-91600000I-50000J0D01*
G01*
G37*
G36*
G01*
X141375000Y-91600000D02*
X140825000Y-91600000D01*
G75*
G02*
X140775000Y-91550000I0J50000D01*
G01*
X140775000Y-89950000D01*
G75*
G02*
X140825000Y-89900000I50000J0D01*
G01*
X141375000Y-89900000D01*
G75*
G02*
X141425000Y-89950000I0J-50000D01*
G01*
X141425000Y-91550000D01*
G75*
G02*
X141375000Y-91600000I-50000J0D01*
G01*
G37*
G36*
G01*
X142175000Y-91600000D02*
X141625000Y-91600000D01*
G75*
G02*
X141575000Y-91550000I0J50000D01*
G01*
X141575000Y-89950000D01*
G75*
G02*
X141625000Y-89900000I50000J0D01*
G01*
X142175000Y-89900000D01*
G75*
G02*
X142225000Y-89950000I0J-50000D01*
G01*
X142225000Y-91550000D01*
G75*
G02*
X142175000Y-91600000I-50000J0D01*
G01*
G37*
G36*
G01*
X142975000Y-91600000D02*
X142425000Y-91600000D01*
G75*
G02*
X142375000Y-91550000I0J50000D01*
G01*
X142375000Y-89950000D01*
G75*
G02*
X142425000Y-89900000I50000J0D01*
G01*
X142975000Y-89900000D01*
G75*
G02*
X143025000Y-89950000I0J-50000D01*
G01*
X143025000Y-91550000D01*
G75*
G02*
X142975000Y-91600000I-50000J0D01*
G01*
G37*
G36*
G01*
X143775000Y-91600000D02*
X143225000Y-91600000D01*
G75*
G02*
X143175000Y-91550000I0J50000D01*
G01*
X143175000Y-89950000D01*
G75*
G02*
X143225000Y-89900000I50000J0D01*
G01*
X143775000Y-89900000D01*
G75*
G02*
X143825000Y-89950000I0J-50000D01*
G01*
X143825000Y-91550000D01*
G75*
G02*
X143775000Y-91600000I-50000J0D01*
G01*
G37*
G36*
G01*
X144575000Y-91600000D02*
X144025000Y-91600000D01*
G75*
G02*
X143975000Y-91550000I0J50000D01*
G01*
X143975000Y-89950000D01*
G75*
G02*
X144025000Y-89900000I50000J0D01*
G01*
X144575000Y-89900000D01*
G75*
G02*
X144625000Y-89950000I0J-50000D01*
G01*
X144625000Y-91550000D01*
G75*
G02*
X144575000Y-91600000I-50000J0D01*
G01*
G37*
G36*
G01*
X146600000Y-91925000D02*
X146600000Y-92475000D01*
G75*
G02*
X146550000Y-92525000I-50000J0D01*
G01*
X144950000Y-92525000D01*
G75*
G02*
X144900000Y-92475000I0J50000D01*
G01*
X144900000Y-91925000D01*
G75*
G02*
X144950000Y-91875000I50000J0D01*
G01*
X146550000Y-91875000D01*
G75*
G02*
X146600000Y-91925000I0J-50000D01*
G01*
G37*
G36*
G01*
X146600000Y-92725000D02*
X146600000Y-93275000D01*
G75*
G02*
X146550000Y-93325000I-50000J0D01*
G01*
X144950000Y-93325000D01*
G75*
G02*
X144900000Y-93275000I0J50000D01*
G01*
X144900000Y-92725000D01*
G75*
G02*
X144950000Y-92675000I50000J0D01*
G01*
X146550000Y-92675000D01*
G75*
G02*
X146600000Y-92725000I0J-50000D01*
G01*
G37*
G36*
G01*
X146600000Y-93525000D02*
X146600000Y-94075000D01*
G75*
G02*
X146550000Y-94125000I-50000J0D01*
G01*
X144950000Y-94125000D01*
G75*
G02*
X144900000Y-94075000I0J50000D01*
G01*
X144900000Y-93525000D01*
G75*
G02*
X144950000Y-93475000I50000J0D01*
G01*
X146550000Y-93475000D01*
G75*
G02*
X146600000Y-93525000I0J-50000D01*
G01*
G37*
G36*
G01*
X146600000Y-94325000D02*
X146600000Y-94875000D01*
G75*
G02*
X146550000Y-94925000I-50000J0D01*
G01*
X144950000Y-94925000D01*
G75*
G02*
X144900000Y-94875000I0J50000D01*
G01*
X144900000Y-94325000D01*
G75*
G02*
X144950000Y-94275000I50000J0D01*
G01*
X146550000Y-94275000D01*
G75*
G02*
X146600000Y-94325000I0J-50000D01*
G01*
G37*
G36*
G01*
X146600000Y-95125000D02*
X146600000Y-95675000D01*
G75*
G02*
X146550000Y-95725000I-50000J0D01*
G01*
X144950000Y-95725000D01*
G75*
G02*
X144900000Y-95675000I0J50000D01*
G01*
X144900000Y-95125000D01*
G75*
G02*
X144950000Y-95075000I50000J0D01*
G01*
X146550000Y-95075000D01*
G75*
G02*
X146600000Y-95125000I0J-50000D01*
G01*
G37*
G36*
G01*
X146600000Y-95925000D02*
X146600000Y-96475000D01*
G75*
G02*
X146550000Y-96525000I-50000J0D01*
G01*
X144950000Y-96525000D01*
G75*
G02*
X144900000Y-96475000I0J50000D01*
G01*
X144900000Y-95925000D01*
G75*
G02*
X144950000Y-95875000I50000J0D01*
G01*
X146550000Y-95875000D01*
G75*
G02*
X146600000Y-95925000I0J-50000D01*
G01*
G37*
G36*
G01*
X146600000Y-96725000D02*
X146600000Y-97275000D01*
G75*
G02*
X146550000Y-97325000I-50000J0D01*
G01*
X144950000Y-97325000D01*
G75*
G02*
X144900000Y-97275000I0J50000D01*
G01*
X144900000Y-96725000D01*
G75*
G02*
X144950000Y-96675000I50000J0D01*
G01*
X146550000Y-96675000D01*
G75*
G02*
X146600000Y-96725000I0J-50000D01*
G01*
G37*
G36*
G01*
X146600000Y-97525000D02*
X146600000Y-98075000D01*
G75*
G02*
X146550000Y-98125000I-50000J0D01*
G01*
X144950000Y-98125000D01*
G75*
G02*
X144900000Y-98075000I0J50000D01*
G01*
X144900000Y-97525000D01*
G75*
G02*
X144950000Y-97475000I50000J0D01*
G01*
X146550000Y-97475000D01*
G75*
G02*
X146600000Y-97525000I0J-50000D01*
G01*
G37*
G36*
G01*
X144575000Y-100100000D02*
X144025000Y-100100000D01*
G75*
G02*
X143975000Y-100050000I0J50000D01*
G01*
X143975000Y-98450000D01*
G75*
G02*
X144025000Y-98400000I50000J0D01*
G01*
X144575000Y-98400000D01*
G75*
G02*
X144625000Y-98450000I0J-50000D01*
G01*
X144625000Y-100050000D01*
G75*
G02*
X144575000Y-100100000I-50000J0D01*
G01*
G37*
G36*
G01*
X143775000Y-100100000D02*
X143225000Y-100100000D01*
G75*
G02*
X143175000Y-100050000I0J50000D01*
G01*
X143175000Y-98450000D01*
G75*
G02*
X143225000Y-98400000I50000J0D01*
G01*
X143775000Y-98400000D01*
G75*
G02*
X143825000Y-98450000I0J-50000D01*
G01*
X143825000Y-100050000D01*
G75*
G02*
X143775000Y-100100000I-50000J0D01*
G01*
G37*
G36*
G01*
X142975000Y-100100000D02*
X142425000Y-100100000D01*
G75*
G02*
X142375000Y-100050000I0J50000D01*
G01*
X142375000Y-98450000D01*
G75*
G02*
X142425000Y-98400000I50000J0D01*
G01*
X142975000Y-98400000D01*
G75*
G02*
X143025000Y-98450000I0J-50000D01*
G01*
X143025000Y-100050000D01*
G75*
G02*
X142975000Y-100100000I-50000J0D01*
G01*
G37*
G36*
G01*
X142175000Y-100100000D02*
X141625000Y-100100000D01*
G75*
G02*
X141575000Y-100050000I0J50000D01*
G01*
X141575000Y-98450000D01*
G75*
G02*
X141625000Y-98400000I50000J0D01*
G01*
X142175000Y-98400000D01*
G75*
G02*
X142225000Y-98450000I0J-50000D01*
G01*
X142225000Y-100050000D01*
G75*
G02*
X142175000Y-100100000I-50000J0D01*
G01*
G37*
G36*
G01*
X141375000Y-100100000D02*
X140825000Y-100100000D01*
G75*
G02*
X140775000Y-100050000I0J50000D01*
G01*
X140775000Y-98450000D01*
G75*
G02*
X140825000Y-98400000I50000J0D01*
G01*
X141375000Y-98400000D01*
G75*
G02*
X141425000Y-98450000I0J-50000D01*
G01*
X141425000Y-100050000D01*
G75*
G02*
X141375000Y-100100000I-50000J0D01*
G01*
G37*
G36*
G01*
X140575000Y-100100000D02*
X140025000Y-100100000D01*
G75*
G02*
X139975000Y-100050000I0J50000D01*
G01*
X139975000Y-98450000D01*
G75*
G02*
X140025000Y-98400000I50000J0D01*
G01*
X140575000Y-98400000D01*
G75*
G02*
X140625000Y-98450000I0J-50000D01*
G01*
X140625000Y-100050000D01*
G75*
G02*
X140575000Y-100100000I-50000J0D01*
G01*
G37*
G36*
G01*
X139775000Y-100100000D02*
X139225000Y-100100000D01*
G75*
G02*
X139175000Y-100050000I0J50000D01*
G01*
X139175000Y-98450000D01*
G75*
G02*
X139225000Y-98400000I50000J0D01*
G01*
X139775000Y-98400000D01*
G75*
G02*
X139825000Y-98450000I0J-50000D01*
G01*
X139825000Y-100050000D01*
G75*
G02*
X139775000Y-100100000I-50000J0D01*
G01*
G37*
G36*
G01*
X138975000Y-100100000D02*
X138425000Y-100100000D01*
G75*
G02*
X138375000Y-100050000I0J50000D01*
G01*
X138375000Y-98450000D01*
G75*
G02*
X138425000Y-98400000I50000J0D01*
G01*
X138975000Y-98400000D01*
G75*
G02*
X139025000Y-98450000I0J-50000D01*
G01*
X139025000Y-100050000D01*
G75*
G02*
X138975000Y-100100000I-50000J0D01*
G01*
G37*
M02*
