M48
; DRILL file {KiCad (5.1.6-dirty)} date Sun May  2 11:55:16 2021
; FORMAT={-:-/ absolute / inch / decimal}
; #@! TF.CreationDate,2021-05-02T11:55:16+02:00
; #@! TF.GenerationSoftware,Kicad,Pcbnew,(5.1.6-dirty)
; #@! TF.FileFunction,Plated,1,2,PTH
FMAT,2
INCH
T1C0.0079
T2C0.0118
T3C0.0236
T4C0.0394
T5C0.1260
%
G90
G05
T1
X6.0374Y-3.3504
X6.0374Y-3.4094
X6.0965Y-3.3504
X6.0965Y-3.4094
X6.1555Y-3.3504
X6.1555Y-3.4094
T2
X4.8819Y-3.2283
X4.8819Y-3.3465
X4.8819Y-3.4646
X4.8819Y-3.5827
X4.8819Y-3.7008
X4.8819Y-3.8189
X4.9311Y-3.6004
X4.9882Y-3.3543
X4.9882Y-3.4577
X4.9892Y-3.5581
X5.0782Y-3.5123
X5.1181Y-3.0315
X5.1181Y-4.0551
X5.1921Y-3.3504
X5.2388Y-3.4787
X5.2598Y-3.7402
X5.2677Y-3.5522
X5.2677Y-3.6134
X5.2756Y-3.3858
X5.2875Y-3.3072
X5.315Y-3.0315
X5.315Y-3.5197
X5.315Y-3.6575
X5.374Y-4.0551
X5.3917Y-3.9035
X5.4331Y-3.0315
X5.4567Y-3.3465
X5.4606Y-3.6624
X5.4636Y-3.7244
X5.4724Y-3.8268
X5.4803Y-4.063
X5.4803Y-3.7874
X5.4898Y-3.3095
X5.4961Y-3.8504
X5.5167Y-3.626
X5.5197Y-3.4961
X5.5236Y-3.7953
X5.5549Y-3.8199
X5.5867Y-3.8425
X5.6073Y-3.4537
X5.6163Y-3.8652
X5.6299Y-3.0315
X5.6673Y-3.7687
X5.748Y-3.0315
X5.748Y-4.0551
X5.7608Y-3.3573
X5.7648Y-3.9852
X5.7971Y-3.758
X5.811Y-3.811
X5.8469Y-3.7228
X5.8661Y-3.0315
X5.8661Y-4.0551
X5.8907Y-3.5285
X5.9144Y-3.3976
X5.9213Y-3.3238
X5.9252Y-3.8219
X5.9461Y-3.6907
X5.9488Y-3.7638
X5.9555Y-3.5415
X5.9594Y-3.5762
X5.9626Y-3.2136
X5.9843Y-3.0315
X6.0157Y-4.0551
X6.0581Y-3.2067
X6.0906Y-3.6161
X6.0965Y-3.8209
X6.1024Y-3.0315
X6.126Y-3.939
X6.1598Y-3.5443
X6.1713Y-3.188
X6.19Y-3.562
X6.2205Y-3.0315
X6.2283Y-3.2264
X6.2511Y-3.3012
X6.2559Y-3.4587
X6.2559Y-3.5039
X6.2638Y-3.938
X6.2648Y-3.6634
X6.3278Y-3.7539
X6.3386Y-3.0315
X6.377Y-3.6624
X6.3829Y-3.2195
X6.3839Y-3.3268
X6.395Y-3.938
X6.4488Y-3.5492
X6.4567Y-3.0315
X6.5225Y-3.938
X6.5276Y-3.6929
X6.5669Y-3.5945
X6.5701Y-3.2724
X6.5748Y-3.0315
X6.6398Y-3.874
X6.6634Y-3.5492
X6.6634Y-3.6171
X6.6693Y-3.1732
X6.6732Y-3.3199
X6.6732Y-3.4528
X6.6762Y-3.8317
X6.6929Y-3.0315
X6.7549Y-3.9114
X6.7835Y-3.7087
X6.811Y-3.0315
X6.811Y-4.0551
X6.8681Y-4.0305
X6.8829Y-3.5531
X6.8927Y-3.8061
X6.9094Y-3.874
X6.9291Y-3.0315
X6.9715Y-3.3209
X6.9931Y-3.1614
X7.0079Y-4.0551
X7.0443Y-3.6309
X7.0662Y-3.8654
X7.0866Y-3.0315
X7.126Y-4.0551
X7.185Y-3.5039
X7.3622Y-3.2677
X7.3622Y-3.3858
X7.3622Y-3.5039
X7.3622Y-3.622
X7.3622Y-3.7402
X7.3622Y-3.8583
T4
X6.7913Y-3.1102
X6.8913Y-3.1102
X5.922Y-3.1102
X6.022Y-3.1102
X6.122Y-3.1102
X6.222Y-3.1102
X6.322Y-3.1102
X7.1339Y-3.3465
X7.1339Y-3.4465
X7.1339Y-3.5465
X7.1339Y-3.6465
X7.1339Y-3.7465
X7.2339Y-3.3465
X7.2339Y-3.4465
X7.2339Y-3.5465
X7.2339Y-3.6465
X7.2339Y-3.7465
T5
X7.2441Y-3.1496
X5.0Y-3.1496
X7.2441Y-3.937
X5.0Y-3.937
T3
G00X5.2236Y-3.0669
M15
G01X5.2236Y-3.0433
M16
G05
G00X5.2236Y-3.2413
M15
G01X5.2236Y-3.198
M16
G05
G00X5.5638Y-3.0669
M15
G01X5.5638Y-3.0433
M16
G05
G00X5.5638Y-3.2413
M15
G01X5.5638Y-3.198
M16
G05
T0
M30
