G04 #@! TF.GenerationSoftware,KiCad,Pcbnew,(5.1.6-dirty)*
G04 #@! TF.CreationDate,2021-05-02T11:55:31+02:00*
G04 #@! TF.ProjectId,reva,72657661-2e6b-4696-9361-645f70636258,rev?*
G04 #@! TF.SameCoordinates,Original*
G04 #@! TF.FileFunction,Soldermask,Top*
G04 #@! TF.FilePolarity,Negative*
%FSLAX46Y46*%
G04 Gerber Fmt 4.6, Leading zero omitted, Abs format (unit mm)*
G04 Created by KiCad (PCBNEW (5.1.6-dirty)) date 2021-05-02 11:55:31*
%MOMM*%
%LPD*%
G01*
G04 APERTURE LIST*
%ADD10O,1.800000X1.800000*%
%ADD11R,1.800000X1.800000*%
%ADD12C,5.700000*%
%ADD13R,2.100000X1.600000*%
%ADD14R,1.600000X2.100000*%
%ADD15R,2.600000X1.900000*%
%ADD16R,1.500000X1.100000*%
%ADD17R,1.500000X1.300000*%
%ADD18R,1.150000X1.200000*%
%ADD19R,0.650000X1.550000*%
%ADD20R,0.600000X1.550000*%
%ADD21R,0.400000X1.550000*%
%ADD22C,0.750000*%
%ADD23R,2.310000X2.460000*%
%ADD24R,1.700000X0.650000*%
%ADD25R,0.650000X1.700000*%
G04 APERTURE END LIST*
D10*
G04 #@! TO.C,J3*
X175040000Y-79000000D03*
D11*
X172500000Y-79000000D03*
G04 #@! TD*
D12*
G04 #@! TO.C,H4*
X184000000Y-80000000D03*
G04 #@! TD*
G04 #@! TO.C,H3*
X127000000Y-100000000D03*
G04 #@! TD*
G04 #@! TO.C,H2*
X184000000Y-100000000D03*
G04 #@! TD*
G04 #@! TO.C,H1*
X127000000Y-80000000D03*
G04 #@! TD*
D13*
G04 #@! TO.C,SW1*
X157700000Y-95200000D03*
X165900000Y-95200000D03*
G04 #@! TD*
G04 #@! TO.C,R22*
G36*
G01*
X160450000Y-84725000D02*
X160450000Y-84125000D01*
G75*
G02*
X160675000Y-83900000I225000J0D01*
G01*
X161125000Y-83900000D01*
G75*
G02*
X161350000Y-84125000I0J-225000D01*
G01*
X161350000Y-84725000D01*
G75*
G02*
X161125000Y-84950000I-225000J0D01*
G01*
X160675000Y-84950000D01*
G75*
G02*
X160450000Y-84725000I0J225000D01*
G01*
G37*
G36*
G01*
X158800000Y-84725000D02*
X158800000Y-84125000D01*
G75*
G02*
X159025000Y-83900000I225000J0D01*
G01*
X159475000Y-83900000D01*
G75*
G02*
X159700000Y-84125000I0J-225000D01*
G01*
X159700000Y-84725000D01*
G75*
G02*
X159475000Y-84950000I-225000J0D01*
G01*
X159025000Y-84950000D01*
G75*
G02*
X158800000Y-84725000I0J225000D01*
G01*
G37*
G04 #@! TD*
D10*
G04 #@! TO.C,J2*
X160580000Y-79000000D03*
X158040000Y-79000000D03*
X155500000Y-79000000D03*
X152960000Y-79000000D03*
D11*
X150420000Y-79000000D03*
G04 #@! TD*
D10*
G04 #@! TO.C,J1*
X183740000Y-95160000D03*
X181200000Y-95160000D03*
X183740000Y-92620000D03*
X181200000Y-92620000D03*
X183740000Y-90080000D03*
X181200000Y-90080000D03*
X183740000Y-87540000D03*
X181200000Y-87540000D03*
X183740000Y-85000000D03*
D11*
X181200000Y-85000000D03*
G04 #@! TD*
D13*
G04 #@! TO.C,SW5*
X177700000Y-86000000D03*
X169500000Y-86000000D03*
G04 #@! TD*
G04 #@! TO.C,SW4*
X177700000Y-78750000D03*
X169500000Y-78750000D03*
G04 #@! TD*
D14*
G04 #@! TO.C,SW3*
X170600000Y-93500000D03*
X170600000Y-101700000D03*
G04 #@! TD*
G04 #@! TO.C,SW2*
X152800000Y-93300000D03*
X152800000Y-101500000D03*
G04 #@! TD*
G04 #@! TO.C,R21*
G36*
G01*
X177375000Y-94100000D02*
X177375000Y-93500000D01*
G75*
G02*
X177600000Y-93275000I225000J0D01*
G01*
X178050000Y-93275000D01*
G75*
G02*
X178275000Y-93500000I0J-225000D01*
G01*
X178275000Y-94100000D01*
G75*
G02*
X178050000Y-94325000I-225000J0D01*
G01*
X177600000Y-94325000D01*
G75*
G02*
X177375000Y-94100000I0J225000D01*
G01*
G37*
G36*
G01*
X175725000Y-94100000D02*
X175725000Y-93500000D01*
G75*
G02*
X175950000Y-93275000I225000J0D01*
G01*
X176400000Y-93275000D01*
G75*
G02*
X176625000Y-93500000I0J-225000D01*
G01*
X176625000Y-94100000D01*
G75*
G02*
X176400000Y-94325000I-225000J0D01*
G01*
X175950000Y-94325000D01*
G75*
G02*
X175725000Y-94100000I0J225000D01*
G01*
G37*
G04 #@! TD*
G04 #@! TO.C,R20*
G36*
G01*
X177375000Y-96800000D02*
X177375000Y-96200000D01*
G75*
G02*
X177600000Y-95975000I225000J0D01*
G01*
X178050000Y-95975000D01*
G75*
G02*
X178275000Y-96200000I0J-225000D01*
G01*
X178275000Y-96800000D01*
G75*
G02*
X178050000Y-97025000I-225000J0D01*
G01*
X177600000Y-97025000D01*
G75*
G02*
X177375000Y-96800000I0J225000D01*
G01*
G37*
G36*
G01*
X175725000Y-96800000D02*
X175725000Y-96200000D01*
G75*
G02*
X175950000Y-95975000I225000J0D01*
G01*
X176400000Y-95975000D01*
G75*
G02*
X176625000Y-96200000I0J-225000D01*
G01*
X176625000Y-96800000D01*
G75*
G02*
X176400000Y-97025000I-225000J0D01*
G01*
X175950000Y-97025000D01*
G75*
G02*
X175725000Y-96800000I0J225000D01*
G01*
G37*
G04 #@! TD*
G04 #@! TO.C,R19*
G36*
G01*
X124950000Y-89875000D02*
X125550000Y-89875000D01*
G75*
G02*
X125775000Y-90100000I0J-225000D01*
G01*
X125775000Y-90550000D01*
G75*
G02*
X125550000Y-90775000I-225000J0D01*
G01*
X124950000Y-90775000D01*
G75*
G02*
X124725000Y-90550000I0J225000D01*
G01*
X124725000Y-90100000D01*
G75*
G02*
X124950000Y-89875000I225000J0D01*
G01*
G37*
G36*
G01*
X124950000Y-88225000D02*
X125550000Y-88225000D01*
G75*
G02*
X125775000Y-88450000I0J-225000D01*
G01*
X125775000Y-88900000D01*
G75*
G02*
X125550000Y-89125000I-225000J0D01*
G01*
X124950000Y-89125000D01*
G75*
G02*
X124725000Y-88900000I0J225000D01*
G01*
X124725000Y-88450000D01*
G75*
G02*
X124950000Y-88225000I225000J0D01*
G01*
G37*
G04 #@! TD*
G04 #@! TO.C,R18*
G36*
G01*
X148650000Y-85625000D02*
X148650000Y-85025000D01*
G75*
G02*
X148875000Y-84800000I225000J0D01*
G01*
X149325000Y-84800000D01*
G75*
G02*
X149550000Y-85025000I0J-225000D01*
G01*
X149550000Y-85625000D01*
G75*
G02*
X149325000Y-85850000I-225000J0D01*
G01*
X148875000Y-85850000D01*
G75*
G02*
X148650000Y-85625000I0J225000D01*
G01*
G37*
G36*
G01*
X147000000Y-85625000D02*
X147000000Y-85025000D01*
G75*
G02*
X147225000Y-84800000I225000J0D01*
G01*
X147675000Y-84800000D01*
G75*
G02*
X147900000Y-85025000I0J-225000D01*
G01*
X147900000Y-85625000D01*
G75*
G02*
X147675000Y-85850000I-225000J0D01*
G01*
X147225000Y-85850000D01*
G75*
G02*
X147000000Y-85625000I0J225000D01*
G01*
G37*
G04 #@! TD*
G04 #@! TO.C,R17*
G36*
G01*
X178300000Y-81925000D02*
X177700000Y-81925000D01*
G75*
G02*
X177475000Y-81700000I0J225000D01*
G01*
X177475000Y-81250000D01*
G75*
G02*
X177700000Y-81025000I225000J0D01*
G01*
X178300000Y-81025000D01*
G75*
G02*
X178525000Y-81250000I0J-225000D01*
G01*
X178525000Y-81700000D01*
G75*
G02*
X178300000Y-81925000I-225000J0D01*
G01*
G37*
G36*
G01*
X178300000Y-83575000D02*
X177700000Y-83575000D01*
G75*
G02*
X177475000Y-83350000I0J225000D01*
G01*
X177475000Y-82900000D01*
G75*
G02*
X177700000Y-82675000I225000J0D01*
G01*
X178300000Y-82675000D01*
G75*
G02*
X178525000Y-82900000I0J-225000D01*
G01*
X178525000Y-83350000D01*
G75*
G02*
X178300000Y-83575000I-225000J0D01*
G01*
G37*
G04 #@! TD*
G04 #@! TO.C,R16*
G36*
G01*
X176175000Y-100100000D02*
X176175000Y-99500000D01*
G75*
G02*
X176400000Y-99275000I225000J0D01*
G01*
X176850000Y-99275000D01*
G75*
G02*
X177075000Y-99500000I0J-225000D01*
G01*
X177075000Y-100100000D01*
G75*
G02*
X176850000Y-100325000I-225000J0D01*
G01*
X176400000Y-100325000D01*
G75*
G02*
X176175000Y-100100000I0J225000D01*
G01*
G37*
G36*
G01*
X174525000Y-100100000D02*
X174525000Y-99500000D01*
G75*
G02*
X174750000Y-99275000I225000J0D01*
G01*
X175200000Y-99275000D01*
G75*
G02*
X175425000Y-99500000I0J-225000D01*
G01*
X175425000Y-100100000D01*
G75*
G02*
X175200000Y-100325000I-225000J0D01*
G01*
X174750000Y-100325000D01*
G75*
G02*
X174525000Y-100100000I0J225000D01*
G01*
G37*
G04 #@! TD*
G04 #@! TO.C,R15*
G36*
G01*
X149475000Y-81350000D02*
X149475000Y-81950000D01*
G75*
G02*
X149250000Y-82175000I-225000J0D01*
G01*
X148800000Y-82175000D01*
G75*
G02*
X148575000Y-81950000I0J225000D01*
G01*
X148575000Y-81350000D01*
G75*
G02*
X148800000Y-81125000I225000J0D01*
G01*
X149250000Y-81125000D01*
G75*
G02*
X149475000Y-81350000I0J-225000D01*
G01*
G37*
G36*
G01*
X151125000Y-81350000D02*
X151125000Y-81950000D01*
G75*
G02*
X150900000Y-82175000I-225000J0D01*
G01*
X150450000Y-82175000D01*
G75*
G02*
X150225000Y-81950000I0J225000D01*
G01*
X150225000Y-81350000D01*
G75*
G02*
X150450000Y-81125000I225000J0D01*
G01*
X150900000Y-81125000D01*
G75*
G02*
X151125000Y-81350000I0J-225000D01*
G01*
G37*
G04 #@! TD*
G04 #@! TO.C,R14*
G36*
G01*
X160475000Y-82100000D02*
X160475000Y-81500000D01*
G75*
G02*
X160700000Y-81275000I225000J0D01*
G01*
X161150000Y-81275000D01*
G75*
G02*
X161375000Y-81500000I0J-225000D01*
G01*
X161375000Y-82100000D01*
G75*
G02*
X161150000Y-82325000I-225000J0D01*
G01*
X160700000Y-82325000D01*
G75*
G02*
X160475000Y-82100000I0J225000D01*
G01*
G37*
G36*
G01*
X158825000Y-82100000D02*
X158825000Y-81500000D01*
G75*
G02*
X159050000Y-81275000I225000J0D01*
G01*
X159500000Y-81275000D01*
G75*
G02*
X159725000Y-81500000I0J-225000D01*
G01*
X159725000Y-82100000D01*
G75*
G02*
X159500000Y-82325000I-225000J0D01*
G01*
X159050000Y-82325000D01*
G75*
G02*
X158825000Y-82100000I0J225000D01*
G01*
G37*
G04 #@! TD*
G04 #@! TO.C,R13*
G36*
G01*
X177875000Y-98500000D02*
X177875000Y-97900000D01*
G75*
G02*
X178100000Y-97675000I225000J0D01*
G01*
X178550000Y-97675000D01*
G75*
G02*
X178775000Y-97900000I0J-225000D01*
G01*
X178775000Y-98500000D01*
G75*
G02*
X178550000Y-98725000I-225000J0D01*
G01*
X178100000Y-98725000D01*
G75*
G02*
X177875000Y-98500000I0J225000D01*
G01*
G37*
G36*
G01*
X176225000Y-98500000D02*
X176225000Y-97900000D01*
G75*
G02*
X176450000Y-97675000I225000J0D01*
G01*
X176900000Y-97675000D01*
G75*
G02*
X177125000Y-97900000I0J-225000D01*
G01*
X177125000Y-98500000D01*
G75*
G02*
X176900000Y-98725000I-225000J0D01*
G01*
X176450000Y-98725000D01*
G75*
G02*
X176225000Y-98500000I0J225000D01*
G01*
G37*
G04 #@! TD*
G04 #@! TO.C,R12*
G36*
G01*
X137300000Y-86625000D02*
X136700000Y-86625000D01*
G75*
G02*
X136475000Y-86400000I0J225000D01*
G01*
X136475000Y-85950000D01*
G75*
G02*
X136700000Y-85725000I225000J0D01*
G01*
X137300000Y-85725000D01*
G75*
G02*
X137525000Y-85950000I0J-225000D01*
G01*
X137525000Y-86400000D01*
G75*
G02*
X137300000Y-86625000I-225000J0D01*
G01*
G37*
G36*
G01*
X137300000Y-88275000D02*
X136700000Y-88275000D01*
G75*
G02*
X136475000Y-88050000I0J225000D01*
G01*
X136475000Y-87600000D01*
G75*
G02*
X136700000Y-87375000I225000J0D01*
G01*
X137300000Y-87375000D01*
G75*
G02*
X137525000Y-87600000I0J-225000D01*
G01*
X137525000Y-88050000D01*
G75*
G02*
X137300000Y-88275000I-225000J0D01*
G01*
G37*
G04 #@! TD*
G04 #@! TO.C,R11*
G36*
G01*
X139300000Y-86625000D02*
X138700000Y-86625000D01*
G75*
G02*
X138475000Y-86400000I0J225000D01*
G01*
X138475000Y-85950000D01*
G75*
G02*
X138700000Y-85725000I225000J0D01*
G01*
X139300000Y-85725000D01*
G75*
G02*
X139525000Y-85950000I0J-225000D01*
G01*
X139525000Y-86400000D01*
G75*
G02*
X139300000Y-86625000I-225000J0D01*
G01*
G37*
G36*
G01*
X139300000Y-88275000D02*
X138700000Y-88275000D01*
G75*
G02*
X138475000Y-88050000I0J225000D01*
G01*
X138475000Y-87600000D01*
G75*
G02*
X138700000Y-87375000I225000J0D01*
G01*
X139300000Y-87375000D01*
G75*
G02*
X139525000Y-87600000I0J-225000D01*
G01*
X139525000Y-88050000D01*
G75*
G02*
X139300000Y-88275000I-225000J0D01*
G01*
G37*
G04 #@! TD*
G04 #@! TO.C,R10*
G36*
G01*
X157700000Y-101625000D02*
X157100000Y-101625000D01*
G75*
G02*
X156875000Y-101400000I0J225000D01*
G01*
X156875000Y-100950000D01*
G75*
G02*
X157100000Y-100725000I225000J0D01*
G01*
X157700000Y-100725000D01*
G75*
G02*
X157925000Y-100950000I0J-225000D01*
G01*
X157925000Y-101400000D01*
G75*
G02*
X157700000Y-101625000I-225000J0D01*
G01*
G37*
G36*
G01*
X157700000Y-103275000D02*
X157100000Y-103275000D01*
G75*
G02*
X156875000Y-103050000I0J225000D01*
G01*
X156875000Y-102600000D01*
G75*
G02*
X157100000Y-102375000I225000J0D01*
G01*
X157700000Y-102375000D01*
G75*
G02*
X157925000Y-102600000I0J-225000D01*
G01*
X157925000Y-103050000D01*
G75*
G02*
X157700000Y-103275000I-225000J0D01*
G01*
G37*
G04 #@! TD*
G04 #@! TO.C,R9*
G36*
G01*
X161200000Y-101625000D02*
X160600000Y-101625000D01*
G75*
G02*
X160375000Y-101400000I0J225000D01*
G01*
X160375000Y-100950000D01*
G75*
G02*
X160600000Y-100725000I225000J0D01*
G01*
X161200000Y-100725000D01*
G75*
G02*
X161425000Y-100950000I0J-225000D01*
G01*
X161425000Y-101400000D01*
G75*
G02*
X161200000Y-101625000I-225000J0D01*
G01*
G37*
G36*
G01*
X161200000Y-103275000D02*
X160600000Y-103275000D01*
G75*
G02*
X160375000Y-103050000I0J225000D01*
G01*
X160375000Y-102600000D01*
G75*
G02*
X160600000Y-102375000I225000J0D01*
G01*
X161200000Y-102375000D01*
G75*
G02*
X161425000Y-102600000I0J-225000D01*
G01*
X161425000Y-103050000D01*
G75*
G02*
X161200000Y-103275000I-225000J0D01*
G01*
G37*
G04 #@! TD*
G04 #@! TO.C,R8*
G36*
G01*
X164450000Y-101625000D02*
X163850000Y-101625000D01*
G75*
G02*
X163625000Y-101400000I0J225000D01*
G01*
X163625000Y-100950000D01*
G75*
G02*
X163850000Y-100725000I225000J0D01*
G01*
X164450000Y-100725000D01*
G75*
G02*
X164675000Y-100950000I0J-225000D01*
G01*
X164675000Y-101400000D01*
G75*
G02*
X164450000Y-101625000I-225000J0D01*
G01*
G37*
G36*
G01*
X164450000Y-103275000D02*
X163850000Y-103275000D01*
G75*
G02*
X163625000Y-103050000I0J225000D01*
G01*
X163625000Y-102600000D01*
G75*
G02*
X163850000Y-102375000I225000J0D01*
G01*
X164450000Y-102375000D01*
G75*
G02*
X164675000Y-102600000I0J-225000D01*
G01*
X164675000Y-103050000D01*
G75*
G02*
X164450000Y-103275000I-225000J0D01*
G01*
G37*
G04 #@! TD*
G04 #@! TO.C,R7*
G36*
G01*
X167900000Y-101625000D02*
X167300000Y-101625000D01*
G75*
G02*
X167075000Y-101400000I0J225000D01*
G01*
X167075000Y-100950000D01*
G75*
G02*
X167300000Y-100725000I225000J0D01*
G01*
X167900000Y-100725000D01*
G75*
G02*
X168125000Y-100950000I0J-225000D01*
G01*
X168125000Y-101400000D01*
G75*
G02*
X167900000Y-101625000I-225000J0D01*
G01*
G37*
G36*
G01*
X167900000Y-103275000D02*
X167300000Y-103275000D01*
G75*
G02*
X167075000Y-103050000I0J225000D01*
G01*
X167075000Y-102600000D01*
G75*
G02*
X167300000Y-102375000I225000J0D01*
G01*
X167900000Y-102375000D01*
G75*
G02*
X168125000Y-102600000I0J-225000D01*
G01*
X168125000Y-103050000D01*
G75*
G02*
X167900000Y-103275000I-225000J0D01*
G01*
G37*
G04 #@! TD*
G04 #@! TO.C,R6*
G36*
G01*
X176500000Y-81950000D02*
X175900000Y-81950000D01*
G75*
G02*
X175675000Y-81725000I0J225000D01*
G01*
X175675000Y-81275000D01*
G75*
G02*
X175900000Y-81050000I225000J0D01*
G01*
X176500000Y-81050000D01*
G75*
G02*
X176725000Y-81275000I0J-225000D01*
G01*
X176725000Y-81725000D01*
G75*
G02*
X176500000Y-81950000I-225000J0D01*
G01*
G37*
G36*
G01*
X176500000Y-83600000D02*
X175900000Y-83600000D01*
G75*
G02*
X175675000Y-83375000I0J225000D01*
G01*
X175675000Y-82925000D01*
G75*
G02*
X175900000Y-82700000I225000J0D01*
G01*
X176500000Y-82700000D01*
G75*
G02*
X176725000Y-82925000I0J-225000D01*
G01*
X176725000Y-83375000D01*
G75*
G02*
X176500000Y-83600000I-225000J0D01*
G01*
G37*
G04 #@! TD*
G04 #@! TO.C,R5*
G36*
G01*
X140700000Y-87375000D02*
X141300000Y-87375000D01*
G75*
G02*
X141525000Y-87600000I0J-225000D01*
G01*
X141525000Y-88050000D01*
G75*
G02*
X141300000Y-88275000I-225000J0D01*
G01*
X140700000Y-88275000D01*
G75*
G02*
X140475000Y-88050000I0J225000D01*
G01*
X140475000Y-87600000D01*
G75*
G02*
X140700000Y-87375000I225000J0D01*
G01*
G37*
G36*
G01*
X140700000Y-85725000D02*
X141300000Y-85725000D01*
G75*
G02*
X141525000Y-85950000I0J-225000D01*
G01*
X141525000Y-86400000D01*
G75*
G02*
X141300000Y-86625000I-225000J0D01*
G01*
X140700000Y-86625000D01*
G75*
G02*
X140475000Y-86400000I0J225000D01*
G01*
X140475000Y-85950000D01*
G75*
G02*
X140700000Y-85725000I225000J0D01*
G01*
G37*
G04 #@! TD*
G04 #@! TO.C,R4*
G36*
G01*
X167700000Y-92350000D02*
X168300000Y-92350000D01*
G75*
G02*
X168525000Y-92575000I0J-225000D01*
G01*
X168525000Y-93025000D01*
G75*
G02*
X168300000Y-93250000I-225000J0D01*
G01*
X167700000Y-93250000D01*
G75*
G02*
X167475000Y-93025000I0J225000D01*
G01*
X167475000Y-92575000D01*
G75*
G02*
X167700000Y-92350000I225000J0D01*
G01*
G37*
G36*
G01*
X167700000Y-90700000D02*
X168300000Y-90700000D01*
G75*
G02*
X168525000Y-90925000I0J-225000D01*
G01*
X168525000Y-91375000D01*
G75*
G02*
X168300000Y-91600000I-225000J0D01*
G01*
X167700000Y-91600000D01*
G75*
G02*
X167475000Y-91375000I0J225000D01*
G01*
X167475000Y-90925000D01*
G75*
G02*
X167700000Y-90700000I225000J0D01*
G01*
G37*
G04 #@! TD*
G04 #@! TO.C,R3*
G36*
G01*
X134700000Y-87375000D02*
X135300000Y-87375000D01*
G75*
G02*
X135525000Y-87600000I0J-225000D01*
G01*
X135525000Y-88050000D01*
G75*
G02*
X135300000Y-88275000I-225000J0D01*
G01*
X134700000Y-88275000D01*
G75*
G02*
X134475000Y-88050000I0J225000D01*
G01*
X134475000Y-87600000D01*
G75*
G02*
X134700000Y-87375000I225000J0D01*
G01*
G37*
G36*
G01*
X134700000Y-85725000D02*
X135300000Y-85725000D01*
G75*
G02*
X135525000Y-85950000I0J-225000D01*
G01*
X135525000Y-86400000D01*
G75*
G02*
X135300000Y-86625000I-225000J0D01*
G01*
X134700000Y-86625000D01*
G75*
G02*
X134475000Y-86400000I0J225000D01*
G01*
X134475000Y-85950000D01*
G75*
G02*
X134700000Y-85725000I225000J0D01*
G01*
G37*
G04 #@! TD*
G04 #@! TO.C,R2*
G36*
G01*
X159350000Y-91475000D02*
X159950000Y-91475000D01*
G75*
G02*
X160175000Y-91700000I0J-225000D01*
G01*
X160175000Y-92150000D01*
G75*
G02*
X159950000Y-92375000I-225000J0D01*
G01*
X159350000Y-92375000D01*
G75*
G02*
X159125000Y-92150000I0J225000D01*
G01*
X159125000Y-91700000D01*
G75*
G02*
X159350000Y-91475000I225000J0D01*
G01*
G37*
G36*
G01*
X159350000Y-89825000D02*
X159950000Y-89825000D01*
G75*
G02*
X160175000Y-90050000I0J-225000D01*
G01*
X160175000Y-90500000D01*
G75*
G02*
X159950000Y-90725000I-225000J0D01*
G01*
X159350000Y-90725000D01*
G75*
G02*
X159125000Y-90500000I0J225000D01*
G01*
X159125000Y-90050000D01*
G75*
G02*
X159350000Y-89825000I225000J0D01*
G01*
G37*
G04 #@! TD*
G04 #@! TO.C,R1*
G36*
G01*
X161250000Y-91475000D02*
X161850000Y-91475000D01*
G75*
G02*
X162075000Y-91700000I0J-225000D01*
G01*
X162075000Y-92150000D01*
G75*
G02*
X161850000Y-92375000I-225000J0D01*
G01*
X161250000Y-92375000D01*
G75*
G02*
X161025000Y-92150000I0J225000D01*
G01*
X161025000Y-91700000D01*
G75*
G02*
X161250000Y-91475000I225000J0D01*
G01*
G37*
G36*
G01*
X161250000Y-89825000D02*
X161850000Y-89825000D01*
G75*
G02*
X162075000Y-90050000I0J-225000D01*
G01*
X162075000Y-90500000D01*
G75*
G02*
X161850000Y-90725000I-225000J0D01*
G01*
X161250000Y-90725000D01*
G75*
G02*
X161025000Y-90500000I0J225000D01*
G01*
X161025000Y-90050000D01*
G75*
G02*
X161250000Y-89825000I225000J0D01*
G01*
G37*
G04 #@! TD*
G04 #@! TO.C,FB2*
G36*
G01*
X149531250Y-100450000D02*
X148968750Y-100450000D01*
G75*
G02*
X148725000Y-100206250I0J243750D01*
G01*
X148725000Y-99718750D01*
G75*
G02*
X148968750Y-99475000I243750J0D01*
G01*
X149531250Y-99475000D01*
G75*
G02*
X149775000Y-99718750I0J-243750D01*
G01*
X149775000Y-100206250D01*
G75*
G02*
X149531250Y-100450000I-243750J0D01*
G01*
G37*
G36*
G01*
X149531250Y-102025000D02*
X148968750Y-102025000D01*
G75*
G02*
X148725000Y-101781250I0J243750D01*
G01*
X148725000Y-101293750D01*
G75*
G02*
X148968750Y-101050000I243750J0D01*
G01*
X149531250Y-101050000D01*
G75*
G02*
X149775000Y-101293750I0J-243750D01*
G01*
X149775000Y-101781250D01*
G75*
G02*
X149531250Y-102025000I-243750J0D01*
G01*
G37*
G04 #@! TD*
G04 #@! TO.C,FB1*
G36*
G01*
X128281250Y-89700000D02*
X127718750Y-89700000D01*
G75*
G02*
X127475000Y-89456250I0J243750D01*
G01*
X127475000Y-88968750D01*
G75*
G02*
X127718750Y-88725000I243750J0D01*
G01*
X128281250Y-88725000D01*
G75*
G02*
X128525000Y-88968750I0J-243750D01*
G01*
X128525000Y-89456250D01*
G75*
G02*
X128281250Y-89700000I-243750J0D01*
G01*
G37*
G36*
G01*
X128281250Y-91275000D02*
X127718750Y-91275000D01*
G75*
G02*
X127475000Y-91031250I0J243750D01*
G01*
X127475000Y-90543750D01*
G75*
G02*
X127718750Y-90300000I243750J0D01*
G01*
X128281250Y-90300000D01*
G75*
G02*
X128525000Y-90543750I0J-243750D01*
G01*
X128525000Y-91031250D01*
G75*
G02*
X128281250Y-91275000I-243750J0D01*
G01*
G37*
G04 #@! TD*
G04 #@! TO.C,D8*
G36*
G01*
X124968750Y-86012500D02*
X125531250Y-86012500D01*
G75*
G02*
X125775000Y-86256250I0J-243750D01*
G01*
X125775000Y-86743750D01*
G75*
G02*
X125531250Y-86987500I-243750J0D01*
G01*
X124968750Y-86987500D01*
G75*
G02*
X124725000Y-86743750I0J243750D01*
G01*
X124725000Y-86256250D01*
G75*
G02*
X124968750Y-86012500I243750J0D01*
G01*
G37*
G36*
G01*
X124968750Y-84437500D02*
X125531250Y-84437500D01*
G75*
G02*
X125775000Y-84681250I0J-243750D01*
G01*
X125775000Y-85168750D01*
G75*
G02*
X125531250Y-85412500I-243750J0D01*
G01*
X124968750Y-85412500D01*
G75*
G02*
X124725000Y-85168750I0J243750D01*
G01*
X124725000Y-84681250D01*
G75*
G02*
X124968750Y-84437500I243750J0D01*
G01*
G37*
G04 #@! TD*
D15*
G04 #@! TO.C,D7*
X176800000Y-90200000D03*
X172800000Y-90200000D03*
G04 #@! TD*
D16*
G04 #@! TO.C,D6*
X130600000Y-85050000D03*
X130600000Y-86950000D03*
X128400000Y-86950000D03*
D17*
X128400000Y-85230000D03*
G04 #@! TD*
G04 #@! TO.C,D5*
G36*
G01*
X155368750Y-102300000D02*
X155931250Y-102300000D01*
G75*
G02*
X156175000Y-102543750I0J-243750D01*
G01*
X156175000Y-103031250D01*
G75*
G02*
X155931250Y-103275000I-243750J0D01*
G01*
X155368750Y-103275000D01*
G75*
G02*
X155125000Y-103031250I0J243750D01*
G01*
X155125000Y-102543750D01*
G75*
G02*
X155368750Y-102300000I243750J0D01*
G01*
G37*
G36*
G01*
X155368750Y-100725000D02*
X155931250Y-100725000D01*
G75*
G02*
X156175000Y-100968750I0J-243750D01*
G01*
X156175000Y-101456250D01*
G75*
G02*
X155931250Y-101700000I-243750J0D01*
G01*
X155368750Y-101700000D01*
G75*
G02*
X155125000Y-101456250I0J243750D01*
G01*
X155125000Y-100968750D01*
G75*
G02*
X155368750Y-100725000I243750J0D01*
G01*
G37*
G04 #@! TD*
G04 #@! TO.C,D4*
G36*
G01*
X158868750Y-102300000D02*
X159431250Y-102300000D01*
G75*
G02*
X159675000Y-102543750I0J-243750D01*
G01*
X159675000Y-103031250D01*
G75*
G02*
X159431250Y-103275000I-243750J0D01*
G01*
X158868750Y-103275000D01*
G75*
G02*
X158625000Y-103031250I0J243750D01*
G01*
X158625000Y-102543750D01*
G75*
G02*
X158868750Y-102300000I243750J0D01*
G01*
G37*
G36*
G01*
X158868750Y-100725000D02*
X159431250Y-100725000D01*
G75*
G02*
X159675000Y-100968750I0J-243750D01*
G01*
X159675000Y-101456250D01*
G75*
G02*
X159431250Y-101700000I-243750J0D01*
G01*
X158868750Y-101700000D01*
G75*
G02*
X158625000Y-101456250I0J243750D01*
G01*
X158625000Y-100968750D01*
G75*
G02*
X158868750Y-100725000I243750J0D01*
G01*
G37*
G04 #@! TD*
G04 #@! TO.C,D3*
G36*
G01*
X162118750Y-102300000D02*
X162681250Y-102300000D01*
G75*
G02*
X162925000Y-102543750I0J-243750D01*
G01*
X162925000Y-103031250D01*
G75*
G02*
X162681250Y-103275000I-243750J0D01*
G01*
X162118750Y-103275000D01*
G75*
G02*
X161875000Y-103031250I0J243750D01*
G01*
X161875000Y-102543750D01*
G75*
G02*
X162118750Y-102300000I243750J0D01*
G01*
G37*
G36*
G01*
X162118750Y-100725000D02*
X162681250Y-100725000D01*
G75*
G02*
X162925000Y-100968750I0J-243750D01*
G01*
X162925000Y-101456250D01*
G75*
G02*
X162681250Y-101700000I-243750J0D01*
G01*
X162118750Y-101700000D01*
G75*
G02*
X161875000Y-101456250I0J243750D01*
G01*
X161875000Y-100968750D01*
G75*
G02*
X162118750Y-100725000I243750J0D01*
G01*
G37*
G04 #@! TD*
G04 #@! TO.C,D2*
G36*
G01*
X165518750Y-102300000D02*
X166081250Y-102300000D01*
G75*
G02*
X166325000Y-102543750I0J-243750D01*
G01*
X166325000Y-103031250D01*
G75*
G02*
X166081250Y-103275000I-243750J0D01*
G01*
X165518750Y-103275000D01*
G75*
G02*
X165275000Y-103031250I0J243750D01*
G01*
X165275000Y-102543750D01*
G75*
G02*
X165518750Y-102300000I243750J0D01*
G01*
G37*
G36*
G01*
X165518750Y-100725000D02*
X166081250Y-100725000D01*
G75*
G02*
X166325000Y-100968750I0J-243750D01*
G01*
X166325000Y-101456250D01*
G75*
G02*
X166081250Y-101700000I-243750J0D01*
G01*
X165518750Y-101700000D01*
G75*
G02*
X165275000Y-101456250I0J243750D01*
G01*
X165275000Y-100968750D01*
G75*
G02*
X165518750Y-100725000I243750J0D01*
G01*
G37*
G04 #@! TD*
D15*
G04 #@! TO.C,D1*
X127500000Y-93750000D03*
X131500000Y-93750000D03*
G04 #@! TD*
G04 #@! TO.C,C13*
G36*
G01*
X156825000Y-92175000D02*
X156825000Y-91625000D01*
G75*
G02*
X157075000Y-91375000I250000J0D01*
G01*
X157575000Y-91375000D01*
G75*
G02*
X157825000Y-91625000I0J-250000D01*
G01*
X157825000Y-92175000D01*
G75*
G02*
X157575000Y-92425000I-250000J0D01*
G01*
X157075000Y-92425000D01*
G75*
G02*
X156825000Y-92175000I0J250000D01*
G01*
G37*
G36*
G01*
X155275000Y-92175000D02*
X155275000Y-91625000D01*
G75*
G02*
X155525000Y-91375000I250000J0D01*
G01*
X156025000Y-91375000D01*
G75*
G02*
X156275000Y-91625000I0J-250000D01*
G01*
X156275000Y-92175000D01*
G75*
G02*
X156025000Y-92425000I-250000J0D01*
G01*
X155525000Y-92425000D01*
G75*
G02*
X155275000Y-92175000I0J250000D01*
G01*
G37*
G04 #@! TD*
G04 #@! TO.C,C12*
G36*
G01*
X153725000Y-91300000D02*
X153725000Y-90750000D01*
G75*
G02*
X153975000Y-90500000I250000J0D01*
G01*
X154475000Y-90500000D01*
G75*
G02*
X154725000Y-90750000I0J-250000D01*
G01*
X154725000Y-91300000D01*
G75*
G02*
X154475000Y-91550000I-250000J0D01*
G01*
X153975000Y-91550000D01*
G75*
G02*
X153725000Y-91300000I0J250000D01*
G01*
G37*
G36*
G01*
X152175000Y-91300000D02*
X152175000Y-90750000D01*
G75*
G02*
X152425000Y-90500000I250000J0D01*
G01*
X152925000Y-90500000D01*
G75*
G02*
X153175000Y-90750000I0J-250000D01*
G01*
X153175000Y-91300000D01*
G75*
G02*
X152925000Y-91550000I-250000J0D01*
G01*
X152425000Y-91550000D01*
G75*
G02*
X152175000Y-91300000I0J250000D01*
G01*
G37*
G04 #@! TD*
G04 #@! TO.C,C11*
G36*
G01*
X143925000Y-102275000D02*
X144475000Y-102275000D01*
G75*
G02*
X144725000Y-102525000I0J-250000D01*
G01*
X144725000Y-103025000D01*
G75*
G02*
X144475000Y-103275000I-250000J0D01*
G01*
X143925000Y-103275000D01*
G75*
G02*
X143675000Y-103025000I0J250000D01*
G01*
X143675000Y-102525000D01*
G75*
G02*
X143925000Y-102275000I250000J0D01*
G01*
G37*
G36*
G01*
X143925000Y-100725000D02*
X144475000Y-100725000D01*
G75*
G02*
X144725000Y-100975000I0J-250000D01*
G01*
X144725000Y-101475000D01*
G75*
G02*
X144475000Y-101725000I-250000J0D01*
G01*
X143925000Y-101725000D01*
G75*
G02*
X143675000Y-101475000I0J250000D01*
G01*
X143675000Y-100975000D01*
G75*
G02*
X143925000Y-100725000I250000J0D01*
G01*
G37*
G04 #@! TD*
G04 #@! TO.C,C10*
G36*
G01*
X149525000Y-96725000D02*
X148975000Y-96725000D01*
G75*
G02*
X148725000Y-96475000I0J250000D01*
G01*
X148725000Y-95975000D01*
G75*
G02*
X148975000Y-95725000I250000J0D01*
G01*
X149525000Y-95725000D01*
G75*
G02*
X149775000Y-95975000I0J-250000D01*
G01*
X149775000Y-96475000D01*
G75*
G02*
X149525000Y-96725000I-250000J0D01*
G01*
G37*
G36*
G01*
X149525000Y-98275000D02*
X148975000Y-98275000D01*
G75*
G02*
X148725000Y-98025000I0J250000D01*
G01*
X148725000Y-97525000D01*
G75*
G02*
X148975000Y-97275000I250000J0D01*
G01*
X149525000Y-97275000D01*
G75*
G02*
X149775000Y-97525000I0J-250000D01*
G01*
X149775000Y-98025000D01*
G75*
G02*
X149525000Y-98275000I-250000J0D01*
G01*
G37*
G04 #@! TD*
G04 #@! TO.C,C9*
G36*
G01*
X135275000Y-90725000D02*
X134725000Y-90725000D01*
G75*
G02*
X134475000Y-90475000I0J250000D01*
G01*
X134475000Y-89975000D01*
G75*
G02*
X134725000Y-89725000I250000J0D01*
G01*
X135275000Y-89725000D01*
G75*
G02*
X135525000Y-89975000I0J-250000D01*
G01*
X135525000Y-90475000D01*
G75*
G02*
X135275000Y-90725000I-250000J0D01*
G01*
G37*
G36*
G01*
X135275000Y-92275000D02*
X134725000Y-92275000D01*
G75*
G02*
X134475000Y-92025000I0J250000D01*
G01*
X134475000Y-91525000D01*
G75*
G02*
X134725000Y-91275000I250000J0D01*
G01*
X135275000Y-91275000D01*
G75*
G02*
X135525000Y-91525000I0J-250000D01*
G01*
X135525000Y-92025000D01*
G75*
G02*
X135275000Y-92275000I-250000J0D01*
G01*
G37*
G04 #@! TD*
G04 #@! TO.C,C8*
G36*
G01*
X135275000Y-94725000D02*
X134725000Y-94725000D01*
G75*
G02*
X134475000Y-94475000I0J250000D01*
G01*
X134475000Y-93975000D01*
G75*
G02*
X134725000Y-93725000I250000J0D01*
G01*
X135275000Y-93725000D01*
G75*
G02*
X135525000Y-93975000I0J-250000D01*
G01*
X135525000Y-94475000D01*
G75*
G02*
X135275000Y-94725000I-250000J0D01*
G01*
G37*
G36*
G01*
X135275000Y-96275000D02*
X134725000Y-96275000D01*
G75*
G02*
X134475000Y-96025000I0J250000D01*
G01*
X134475000Y-95525000D01*
G75*
G02*
X134725000Y-95275000I250000J0D01*
G01*
X135275000Y-95275000D01*
G75*
G02*
X135525000Y-95525000I0J-250000D01*
G01*
X135525000Y-96025000D01*
G75*
G02*
X135275000Y-96275000I-250000J0D01*
G01*
G37*
G04 #@! TD*
G04 #@! TO.C,C7*
G36*
G01*
X177775000Y-101775000D02*
X177775000Y-101225000D01*
G75*
G02*
X178025000Y-100975000I250000J0D01*
G01*
X178525000Y-100975000D01*
G75*
G02*
X178775000Y-101225000I0J-250000D01*
G01*
X178775000Y-101775000D01*
G75*
G02*
X178525000Y-102025000I-250000J0D01*
G01*
X178025000Y-102025000D01*
G75*
G02*
X177775000Y-101775000I0J250000D01*
G01*
G37*
G36*
G01*
X176225000Y-101775000D02*
X176225000Y-101225000D01*
G75*
G02*
X176475000Y-100975000I250000J0D01*
G01*
X176975000Y-100975000D01*
G75*
G02*
X177225000Y-101225000I0J-250000D01*
G01*
X177225000Y-101775000D01*
G75*
G02*
X176975000Y-102025000I-250000J0D01*
G01*
X176475000Y-102025000D01*
G75*
G02*
X176225000Y-101775000I0J250000D01*
G01*
G37*
G04 #@! TD*
G04 #@! TO.C,C6*
G36*
G01*
X141725000Y-102275000D02*
X142275000Y-102275000D01*
G75*
G02*
X142525000Y-102525000I0J-250000D01*
G01*
X142525000Y-103025000D01*
G75*
G02*
X142275000Y-103275000I-250000J0D01*
G01*
X141725000Y-103275000D01*
G75*
G02*
X141475000Y-103025000I0J250000D01*
G01*
X141475000Y-102525000D01*
G75*
G02*
X141725000Y-102275000I250000J0D01*
G01*
G37*
G36*
G01*
X141725000Y-100725000D02*
X142275000Y-100725000D01*
G75*
G02*
X142525000Y-100975000I0J-250000D01*
G01*
X142525000Y-101475000D01*
G75*
G02*
X142275000Y-101725000I-250000J0D01*
G01*
X141725000Y-101725000D01*
G75*
G02*
X141475000Y-101475000I0J250000D01*
G01*
X141475000Y-100975000D01*
G75*
G02*
X141725000Y-100725000I250000J0D01*
G01*
G37*
G04 #@! TD*
G04 #@! TO.C,C5*
G36*
G01*
X134725000Y-102075000D02*
X135275000Y-102075000D01*
G75*
G02*
X135525000Y-102325000I0J-250000D01*
G01*
X135525000Y-102825000D01*
G75*
G02*
X135275000Y-103075000I-250000J0D01*
G01*
X134725000Y-103075000D01*
G75*
G02*
X134475000Y-102825000I0J250000D01*
G01*
X134475000Y-102325000D01*
G75*
G02*
X134725000Y-102075000I250000J0D01*
G01*
G37*
G36*
G01*
X134725000Y-100525000D02*
X135275000Y-100525000D01*
G75*
G02*
X135525000Y-100775000I0J-250000D01*
G01*
X135525000Y-101275000D01*
G75*
G02*
X135275000Y-101525000I-250000J0D01*
G01*
X134725000Y-101525000D01*
G75*
G02*
X134475000Y-101275000I0J250000D01*
G01*
X134475000Y-100775000D01*
G75*
G02*
X134725000Y-100525000I250000J0D01*
G01*
G37*
G04 #@! TD*
G04 #@! TO.C,C4*
G36*
G01*
X135275000Y-98100000D02*
X134725000Y-98100000D01*
G75*
G02*
X134475000Y-97850000I0J250000D01*
G01*
X134475000Y-97350000D01*
G75*
G02*
X134725000Y-97100000I250000J0D01*
G01*
X135275000Y-97100000D01*
G75*
G02*
X135525000Y-97350000I0J-250000D01*
G01*
X135525000Y-97850000D01*
G75*
G02*
X135275000Y-98100000I-250000J0D01*
G01*
G37*
G36*
G01*
X135275000Y-99650000D02*
X134725000Y-99650000D01*
G75*
G02*
X134475000Y-99400000I0J250000D01*
G01*
X134475000Y-98900000D01*
G75*
G02*
X134725000Y-98650000I250000J0D01*
G01*
X135275000Y-98650000D01*
G75*
G02*
X135525000Y-98900000I0J-250000D01*
G01*
X135525000Y-99400000D01*
G75*
G02*
X135275000Y-99650000I-250000J0D01*
G01*
G37*
G04 #@! TD*
G04 #@! TO.C,C3*
G36*
G01*
X130775000Y-91275000D02*
X130775000Y-90725000D01*
G75*
G02*
X131025000Y-90475000I250000J0D01*
G01*
X131525000Y-90475000D01*
G75*
G02*
X131775000Y-90725000I0J-250000D01*
G01*
X131775000Y-91275000D01*
G75*
G02*
X131525000Y-91525000I-250000J0D01*
G01*
X131025000Y-91525000D01*
G75*
G02*
X130775000Y-91275000I0J250000D01*
G01*
G37*
G36*
G01*
X129225000Y-91275000D02*
X129225000Y-90725000D01*
G75*
G02*
X129475000Y-90475000I250000J0D01*
G01*
X129975000Y-90475000D01*
G75*
G02*
X130225000Y-90725000I0J-250000D01*
G01*
X130225000Y-91275000D01*
G75*
G02*
X129975000Y-91525000I-250000J0D01*
G01*
X129475000Y-91525000D01*
G75*
G02*
X129225000Y-91275000I0J250000D01*
G01*
G37*
G04 #@! TD*
G04 #@! TO.C,C2*
G36*
G01*
X130775000Y-89275000D02*
X130775000Y-88725000D01*
G75*
G02*
X131025000Y-88475000I250000J0D01*
G01*
X131525000Y-88475000D01*
G75*
G02*
X131775000Y-88725000I0J-250000D01*
G01*
X131775000Y-89275000D01*
G75*
G02*
X131525000Y-89525000I-250000J0D01*
G01*
X131025000Y-89525000D01*
G75*
G02*
X130775000Y-89275000I0J250000D01*
G01*
G37*
G36*
G01*
X129225000Y-89275000D02*
X129225000Y-88725000D01*
G75*
G02*
X129475000Y-88475000I250000J0D01*
G01*
X129975000Y-88475000D01*
G75*
G02*
X130225000Y-88725000I0J-250000D01*
G01*
X130225000Y-89275000D01*
G75*
G02*
X129975000Y-89525000I-250000J0D01*
G01*
X129475000Y-89525000D01*
G75*
G02*
X129225000Y-89275000I0J250000D01*
G01*
G37*
G04 #@! TD*
G04 #@! TO.C,C1*
G36*
G01*
X132275000Y-96775000D02*
X132275000Y-96225000D01*
G75*
G02*
X132525000Y-95975000I250000J0D01*
G01*
X133025000Y-95975000D01*
G75*
G02*
X133275000Y-96225000I0J-250000D01*
G01*
X133275000Y-96775000D01*
G75*
G02*
X133025000Y-97025000I-250000J0D01*
G01*
X132525000Y-97025000D01*
G75*
G02*
X132275000Y-96775000I0J250000D01*
G01*
G37*
G36*
G01*
X130725000Y-96775000D02*
X130725000Y-96225000D01*
G75*
G02*
X130975000Y-95975000I250000J0D01*
G01*
X131475000Y-95975000D01*
G75*
G02*
X131725000Y-96225000I0J-250000D01*
G01*
X131725000Y-96775000D01*
G75*
G02*
X131475000Y-97025000I-250000J0D01*
G01*
X130975000Y-97025000D01*
G75*
G02*
X130725000Y-96775000I0J250000D01*
G01*
G37*
G04 #@! TD*
D18*
G04 #@! TO.C,Y1*
X139925000Y-102000000D03*
X138075000Y-102000000D03*
G04 #@! TD*
G04 #@! TO.C,U3*
G36*
G01*
X132775000Y-99925000D02*
X133125000Y-99925000D01*
G75*
G02*
X133300000Y-100100000I0J-175000D01*
G01*
X133300000Y-101175000D01*
G75*
G02*
X133125000Y-101350000I-175000J0D01*
G01*
X132775000Y-101350000D01*
G75*
G02*
X132600000Y-101175000I0J175000D01*
G01*
X132600000Y-100100000D01*
G75*
G02*
X132775000Y-99925000I175000J0D01*
G01*
G37*
G36*
G01*
X130875000Y-99925000D02*
X131225000Y-99925000D01*
G75*
G02*
X131400000Y-100100000I0J-175000D01*
G01*
X131400000Y-101175000D01*
G75*
G02*
X131225000Y-101350000I-175000J0D01*
G01*
X130875000Y-101350000D01*
G75*
G02*
X130700000Y-101175000I0J175000D01*
G01*
X130700000Y-100100000D01*
G75*
G02*
X130875000Y-99925000I175000J0D01*
G01*
G37*
G36*
G01*
X130875000Y-97650000D02*
X131225000Y-97650000D01*
G75*
G02*
X131400000Y-97825000I0J-175000D01*
G01*
X131400000Y-98900000D01*
G75*
G02*
X131225000Y-99075000I-175000J0D01*
G01*
X130875000Y-99075000D01*
G75*
G02*
X130700000Y-98900000I0J175000D01*
G01*
X130700000Y-97825000D01*
G75*
G02*
X130875000Y-97650000I175000J0D01*
G01*
G37*
G36*
G01*
X131825000Y-97650000D02*
X132175000Y-97650000D01*
G75*
G02*
X132350000Y-97825000I0J-175000D01*
G01*
X132350000Y-98900000D01*
G75*
G02*
X132175000Y-99075000I-175000J0D01*
G01*
X131825000Y-99075000D01*
G75*
G02*
X131650000Y-98900000I0J175000D01*
G01*
X131650000Y-97825000D01*
G75*
G02*
X131825000Y-97650000I175000J0D01*
G01*
G37*
G36*
G01*
X132775000Y-97650000D02*
X133125000Y-97650000D01*
G75*
G02*
X133300000Y-97825000I0J-175000D01*
G01*
X133300000Y-98900000D01*
G75*
G02*
X133125000Y-99075000I-175000J0D01*
G01*
X132775000Y-99075000D01*
G75*
G02*
X132600000Y-98900000I0J175000D01*
G01*
X132600000Y-97825000D01*
G75*
G02*
X132775000Y-97650000I175000J0D01*
G01*
G37*
G04 #@! TD*
D19*
G04 #@! TO.C,USB1*
X133775000Y-82695000D03*
X140225000Y-82695000D03*
D20*
X134550000Y-82695000D03*
X139450000Y-82695000D03*
D21*
X138750000Y-82695000D03*
X135250000Y-82695000D03*
X138250000Y-82695000D03*
X135750000Y-82695000D03*
X137750000Y-82695000D03*
X136250000Y-82695000D03*
X136750000Y-82695000D03*
X137250000Y-82695000D03*
D22*
X134110000Y-81250000D03*
X139890000Y-81250000D03*
G04 #@! TD*
D23*
G04 #@! TO.C,U2*
X154850000Y-85850000D03*
G36*
G01*
X157000000Y-87875000D02*
X157250000Y-87875000D01*
G75*
G02*
X157375000Y-88000000I0J-125000D01*
G01*
X157375000Y-89425000D01*
G75*
G02*
X157250000Y-89550000I-125000J0D01*
G01*
X157000000Y-89550000D01*
G75*
G02*
X156875000Y-89425000I0J125000D01*
G01*
X156875000Y-88000000D01*
G75*
G02*
X157000000Y-87875000I125000J0D01*
G01*
G37*
G36*
G01*
X156350000Y-87875000D02*
X156600000Y-87875000D01*
G75*
G02*
X156725000Y-88000000I0J-125000D01*
G01*
X156725000Y-89425000D01*
G75*
G02*
X156600000Y-89550000I-125000J0D01*
G01*
X156350000Y-89550000D01*
G75*
G02*
X156225000Y-89425000I0J125000D01*
G01*
X156225000Y-88000000D01*
G75*
G02*
X156350000Y-87875000I125000J0D01*
G01*
G37*
G36*
G01*
X155700000Y-87875000D02*
X155950000Y-87875000D01*
G75*
G02*
X156075000Y-88000000I0J-125000D01*
G01*
X156075000Y-89425000D01*
G75*
G02*
X155950000Y-89550000I-125000J0D01*
G01*
X155700000Y-89550000D01*
G75*
G02*
X155575000Y-89425000I0J125000D01*
G01*
X155575000Y-88000000D01*
G75*
G02*
X155700000Y-87875000I125000J0D01*
G01*
G37*
G36*
G01*
X155050000Y-87875000D02*
X155300000Y-87875000D01*
G75*
G02*
X155425000Y-88000000I0J-125000D01*
G01*
X155425000Y-89425000D01*
G75*
G02*
X155300000Y-89550000I-125000J0D01*
G01*
X155050000Y-89550000D01*
G75*
G02*
X154925000Y-89425000I0J125000D01*
G01*
X154925000Y-88000000D01*
G75*
G02*
X155050000Y-87875000I125000J0D01*
G01*
G37*
G36*
G01*
X154400000Y-87875000D02*
X154650000Y-87875000D01*
G75*
G02*
X154775000Y-88000000I0J-125000D01*
G01*
X154775000Y-89425000D01*
G75*
G02*
X154650000Y-89550000I-125000J0D01*
G01*
X154400000Y-89550000D01*
G75*
G02*
X154275000Y-89425000I0J125000D01*
G01*
X154275000Y-88000000D01*
G75*
G02*
X154400000Y-87875000I125000J0D01*
G01*
G37*
G36*
G01*
X153750000Y-87875000D02*
X154000000Y-87875000D01*
G75*
G02*
X154125000Y-88000000I0J-125000D01*
G01*
X154125000Y-89425000D01*
G75*
G02*
X154000000Y-89550000I-125000J0D01*
G01*
X153750000Y-89550000D01*
G75*
G02*
X153625000Y-89425000I0J125000D01*
G01*
X153625000Y-88000000D01*
G75*
G02*
X153750000Y-87875000I125000J0D01*
G01*
G37*
G36*
G01*
X153100000Y-87875000D02*
X153350000Y-87875000D01*
G75*
G02*
X153475000Y-88000000I0J-125000D01*
G01*
X153475000Y-89425000D01*
G75*
G02*
X153350000Y-89550000I-125000J0D01*
G01*
X153100000Y-89550000D01*
G75*
G02*
X152975000Y-89425000I0J125000D01*
G01*
X152975000Y-88000000D01*
G75*
G02*
X153100000Y-87875000I125000J0D01*
G01*
G37*
G36*
G01*
X152450000Y-87875000D02*
X152700000Y-87875000D01*
G75*
G02*
X152825000Y-88000000I0J-125000D01*
G01*
X152825000Y-89425000D01*
G75*
G02*
X152700000Y-89550000I-125000J0D01*
G01*
X152450000Y-89550000D01*
G75*
G02*
X152325000Y-89425000I0J125000D01*
G01*
X152325000Y-88000000D01*
G75*
G02*
X152450000Y-87875000I125000J0D01*
G01*
G37*
G36*
G01*
X152450000Y-82150000D02*
X152700000Y-82150000D01*
G75*
G02*
X152825000Y-82275000I0J-125000D01*
G01*
X152825000Y-83700000D01*
G75*
G02*
X152700000Y-83825000I-125000J0D01*
G01*
X152450000Y-83825000D01*
G75*
G02*
X152325000Y-83700000I0J125000D01*
G01*
X152325000Y-82275000D01*
G75*
G02*
X152450000Y-82150000I125000J0D01*
G01*
G37*
G36*
G01*
X153100000Y-82150000D02*
X153350000Y-82150000D01*
G75*
G02*
X153475000Y-82275000I0J-125000D01*
G01*
X153475000Y-83700000D01*
G75*
G02*
X153350000Y-83825000I-125000J0D01*
G01*
X153100000Y-83825000D01*
G75*
G02*
X152975000Y-83700000I0J125000D01*
G01*
X152975000Y-82275000D01*
G75*
G02*
X153100000Y-82150000I125000J0D01*
G01*
G37*
G36*
G01*
X153750000Y-82150000D02*
X154000000Y-82150000D01*
G75*
G02*
X154125000Y-82275000I0J-125000D01*
G01*
X154125000Y-83700000D01*
G75*
G02*
X154000000Y-83825000I-125000J0D01*
G01*
X153750000Y-83825000D01*
G75*
G02*
X153625000Y-83700000I0J125000D01*
G01*
X153625000Y-82275000D01*
G75*
G02*
X153750000Y-82150000I125000J0D01*
G01*
G37*
G36*
G01*
X154400000Y-82150000D02*
X154650000Y-82150000D01*
G75*
G02*
X154775000Y-82275000I0J-125000D01*
G01*
X154775000Y-83700000D01*
G75*
G02*
X154650000Y-83825000I-125000J0D01*
G01*
X154400000Y-83825000D01*
G75*
G02*
X154275000Y-83700000I0J125000D01*
G01*
X154275000Y-82275000D01*
G75*
G02*
X154400000Y-82150000I125000J0D01*
G01*
G37*
G36*
G01*
X155050000Y-82150000D02*
X155300000Y-82150000D01*
G75*
G02*
X155425000Y-82275000I0J-125000D01*
G01*
X155425000Y-83700000D01*
G75*
G02*
X155300000Y-83825000I-125000J0D01*
G01*
X155050000Y-83825000D01*
G75*
G02*
X154925000Y-83700000I0J125000D01*
G01*
X154925000Y-82275000D01*
G75*
G02*
X155050000Y-82150000I125000J0D01*
G01*
G37*
G36*
G01*
X155700000Y-82150000D02*
X155950000Y-82150000D01*
G75*
G02*
X156075000Y-82275000I0J-125000D01*
G01*
X156075000Y-83700000D01*
G75*
G02*
X155950000Y-83825000I-125000J0D01*
G01*
X155700000Y-83825000D01*
G75*
G02*
X155575000Y-83700000I0J125000D01*
G01*
X155575000Y-82275000D01*
G75*
G02*
X155700000Y-82150000I125000J0D01*
G01*
G37*
G36*
G01*
X156350000Y-82150000D02*
X156600000Y-82150000D01*
G75*
G02*
X156725000Y-82275000I0J-125000D01*
G01*
X156725000Y-83700000D01*
G75*
G02*
X156600000Y-83825000I-125000J0D01*
G01*
X156350000Y-83825000D01*
G75*
G02*
X156225000Y-83700000I0J125000D01*
G01*
X156225000Y-82275000D01*
G75*
G02*
X156350000Y-82150000I125000J0D01*
G01*
G37*
G36*
G01*
X157000000Y-82150000D02*
X157250000Y-82150000D01*
G75*
G02*
X157375000Y-82275000I0J-125000D01*
G01*
X157375000Y-83700000D01*
G75*
G02*
X157250000Y-83825000I-125000J0D01*
G01*
X157000000Y-83825000D01*
G75*
G02*
X156875000Y-83700000I0J125000D01*
G01*
X156875000Y-82275000D01*
G75*
G02*
X157000000Y-82150000I125000J0D01*
G01*
G37*
G04 #@! TD*
D24*
G04 #@! TO.C,U1*
X137250000Y-97800000D03*
X137250000Y-97000000D03*
X137250000Y-96200000D03*
X137250000Y-95400000D03*
X137250000Y-94600000D03*
X137250000Y-93800000D03*
X137250000Y-93000000D03*
X137250000Y-92200000D03*
D25*
X138700000Y-90750000D03*
X139500000Y-90750000D03*
X140300000Y-90750000D03*
X141100000Y-90750000D03*
X141900000Y-90750000D03*
X142700000Y-90750000D03*
X143500000Y-90750000D03*
X144300000Y-90750000D03*
D24*
X145750000Y-92200000D03*
X145750000Y-93000000D03*
X145750000Y-93800000D03*
X145750000Y-94600000D03*
X145750000Y-95400000D03*
X145750000Y-96200000D03*
X145750000Y-97000000D03*
X145750000Y-97800000D03*
D25*
X144300000Y-99250000D03*
X143500000Y-99250000D03*
X142700000Y-99250000D03*
X141900000Y-99250000D03*
X141100000Y-99250000D03*
X140300000Y-99250000D03*
X139500000Y-99250000D03*
X138700000Y-99250000D03*
G04 #@! TD*
M02*
