G04 #@! TF.GenerationSoftware,KiCad,Pcbnew,5.1.10-5.1.10*
G04 #@! TF.CreationDate,2021-05-16T20:28:14+02:00*
G04 #@! TF.ProjectId,reva,72657661-2e6b-4696-9361-645f70636258,rev?*
G04 #@! TF.SameCoordinates,Original*
G04 #@! TF.FileFunction,Paste,Top*
G04 #@! TF.FilePolarity,Positive*
%FSLAX46Y46*%
G04 Gerber Fmt 4.6, Leading zero omitted, Abs format (unit mm)*
G04 Created by KiCad (PCBNEW 5.1.10-5.1.10) date 2021-05-16 20:28:14*
%MOMM*%
%LPD*%
G01*
G04 APERTURE LIST*
%ADD10R,2.500000X1.800000*%
%ADD11R,2.000000X1.500000*%
%ADD12R,1.500000X2.000000*%
%ADD13R,1.400000X1.000000*%
%ADD14R,1.400000X1.200000*%
%ADD15R,1.050000X1.100000*%
%ADD16R,0.550000X1.450000*%
%ADD17R,0.500000X1.450000*%
%ADD18R,0.300000X1.450000*%
%ADD19R,1.600000X0.550000*%
%ADD20R,0.550000X1.600000*%
G04 APERTURE END LIST*
D10*
X176800000Y-90200000D03*
X172800000Y-90200000D03*
D11*
X157700000Y-95200000D03*
X165900000Y-95200000D03*
G36*
G01*
X160500000Y-84700000D02*
X160500000Y-84150000D01*
G75*
G02*
X160700000Y-83950000I200000J0D01*
G01*
X161100000Y-83950000D01*
G75*
G02*
X161300000Y-84150000I0J-200000D01*
G01*
X161300000Y-84700000D01*
G75*
G02*
X161100000Y-84900000I-200000J0D01*
G01*
X160700000Y-84900000D01*
G75*
G02*
X160500000Y-84700000I0J200000D01*
G01*
G37*
G36*
G01*
X158850000Y-84700000D02*
X158850000Y-84150000D01*
G75*
G02*
X159050000Y-83950000I200000J0D01*
G01*
X159450000Y-83950000D01*
G75*
G02*
X159650000Y-84150000I0J-200000D01*
G01*
X159650000Y-84700000D01*
G75*
G02*
X159450000Y-84900000I-200000J0D01*
G01*
X159050000Y-84900000D01*
G75*
G02*
X158850000Y-84700000I0J200000D01*
G01*
G37*
X177700000Y-86000000D03*
X169500000Y-86000000D03*
X177700000Y-78750000D03*
X169500000Y-78750000D03*
D12*
X170600000Y-93500000D03*
X170600000Y-101700000D03*
X152800000Y-93300000D03*
X152800000Y-101500000D03*
G36*
G01*
X177425000Y-94075000D02*
X177425000Y-93525000D01*
G75*
G02*
X177625000Y-93325000I200000J0D01*
G01*
X178025000Y-93325000D01*
G75*
G02*
X178225000Y-93525000I0J-200000D01*
G01*
X178225000Y-94075000D01*
G75*
G02*
X178025000Y-94275000I-200000J0D01*
G01*
X177625000Y-94275000D01*
G75*
G02*
X177425000Y-94075000I0J200000D01*
G01*
G37*
G36*
G01*
X175775000Y-94075000D02*
X175775000Y-93525000D01*
G75*
G02*
X175975000Y-93325000I200000J0D01*
G01*
X176375000Y-93325000D01*
G75*
G02*
X176575000Y-93525000I0J-200000D01*
G01*
X176575000Y-94075000D01*
G75*
G02*
X176375000Y-94275000I-200000J0D01*
G01*
X175975000Y-94275000D01*
G75*
G02*
X175775000Y-94075000I0J200000D01*
G01*
G37*
G36*
G01*
X177425000Y-96775000D02*
X177425000Y-96225000D01*
G75*
G02*
X177625000Y-96025000I200000J0D01*
G01*
X178025000Y-96025000D01*
G75*
G02*
X178225000Y-96225000I0J-200000D01*
G01*
X178225000Y-96775000D01*
G75*
G02*
X178025000Y-96975000I-200000J0D01*
G01*
X177625000Y-96975000D01*
G75*
G02*
X177425000Y-96775000I0J200000D01*
G01*
G37*
G36*
G01*
X175775000Y-96775000D02*
X175775000Y-96225000D01*
G75*
G02*
X175975000Y-96025000I200000J0D01*
G01*
X176375000Y-96025000D01*
G75*
G02*
X176575000Y-96225000I0J-200000D01*
G01*
X176575000Y-96775000D01*
G75*
G02*
X176375000Y-96975000I-200000J0D01*
G01*
X175975000Y-96975000D01*
G75*
G02*
X175775000Y-96775000I0J200000D01*
G01*
G37*
G36*
G01*
X124975000Y-89925000D02*
X125525000Y-89925000D01*
G75*
G02*
X125725000Y-90125000I0J-200000D01*
G01*
X125725000Y-90525000D01*
G75*
G02*
X125525000Y-90725000I-200000J0D01*
G01*
X124975000Y-90725000D01*
G75*
G02*
X124775000Y-90525000I0J200000D01*
G01*
X124775000Y-90125000D01*
G75*
G02*
X124975000Y-89925000I200000J0D01*
G01*
G37*
G36*
G01*
X124975000Y-88275000D02*
X125525000Y-88275000D01*
G75*
G02*
X125725000Y-88475000I0J-200000D01*
G01*
X125725000Y-88875000D01*
G75*
G02*
X125525000Y-89075000I-200000J0D01*
G01*
X124975000Y-89075000D01*
G75*
G02*
X124775000Y-88875000I0J200000D01*
G01*
X124775000Y-88475000D01*
G75*
G02*
X124975000Y-88275000I200000J0D01*
G01*
G37*
G36*
G01*
X148700000Y-85600000D02*
X148700000Y-85050000D01*
G75*
G02*
X148900000Y-84850000I200000J0D01*
G01*
X149300000Y-84850000D01*
G75*
G02*
X149500000Y-85050000I0J-200000D01*
G01*
X149500000Y-85600000D01*
G75*
G02*
X149300000Y-85800000I-200000J0D01*
G01*
X148900000Y-85800000D01*
G75*
G02*
X148700000Y-85600000I0J200000D01*
G01*
G37*
G36*
G01*
X147050000Y-85600000D02*
X147050000Y-85050000D01*
G75*
G02*
X147250000Y-84850000I200000J0D01*
G01*
X147650000Y-84850000D01*
G75*
G02*
X147850000Y-85050000I0J-200000D01*
G01*
X147850000Y-85600000D01*
G75*
G02*
X147650000Y-85800000I-200000J0D01*
G01*
X147250000Y-85800000D01*
G75*
G02*
X147050000Y-85600000I0J200000D01*
G01*
G37*
G36*
G01*
X178275000Y-81875000D02*
X177725000Y-81875000D01*
G75*
G02*
X177525000Y-81675000I0J200000D01*
G01*
X177525000Y-81275000D01*
G75*
G02*
X177725000Y-81075000I200000J0D01*
G01*
X178275000Y-81075000D01*
G75*
G02*
X178475000Y-81275000I0J-200000D01*
G01*
X178475000Y-81675000D01*
G75*
G02*
X178275000Y-81875000I-200000J0D01*
G01*
G37*
G36*
G01*
X178275000Y-83525000D02*
X177725000Y-83525000D01*
G75*
G02*
X177525000Y-83325000I0J200000D01*
G01*
X177525000Y-82925000D01*
G75*
G02*
X177725000Y-82725000I200000J0D01*
G01*
X178275000Y-82725000D01*
G75*
G02*
X178475000Y-82925000I0J-200000D01*
G01*
X178475000Y-83325000D01*
G75*
G02*
X178275000Y-83525000I-200000J0D01*
G01*
G37*
G36*
G01*
X176225000Y-100075000D02*
X176225000Y-99525000D01*
G75*
G02*
X176425000Y-99325000I200000J0D01*
G01*
X176825000Y-99325000D01*
G75*
G02*
X177025000Y-99525000I0J-200000D01*
G01*
X177025000Y-100075000D01*
G75*
G02*
X176825000Y-100275000I-200000J0D01*
G01*
X176425000Y-100275000D01*
G75*
G02*
X176225000Y-100075000I0J200000D01*
G01*
G37*
G36*
G01*
X174575000Y-100075000D02*
X174575000Y-99525000D01*
G75*
G02*
X174775000Y-99325000I200000J0D01*
G01*
X175175000Y-99325000D01*
G75*
G02*
X175375000Y-99525000I0J-200000D01*
G01*
X175375000Y-100075000D01*
G75*
G02*
X175175000Y-100275000I-200000J0D01*
G01*
X174775000Y-100275000D01*
G75*
G02*
X174575000Y-100075000I0J200000D01*
G01*
G37*
G36*
G01*
X149425000Y-81375000D02*
X149425000Y-81925000D01*
G75*
G02*
X149225000Y-82125000I-200000J0D01*
G01*
X148825000Y-82125000D01*
G75*
G02*
X148625000Y-81925000I0J200000D01*
G01*
X148625000Y-81375000D01*
G75*
G02*
X148825000Y-81175000I200000J0D01*
G01*
X149225000Y-81175000D01*
G75*
G02*
X149425000Y-81375000I0J-200000D01*
G01*
G37*
G36*
G01*
X151075000Y-81375000D02*
X151075000Y-81925000D01*
G75*
G02*
X150875000Y-82125000I-200000J0D01*
G01*
X150475000Y-82125000D01*
G75*
G02*
X150275000Y-81925000I0J200000D01*
G01*
X150275000Y-81375000D01*
G75*
G02*
X150475000Y-81175000I200000J0D01*
G01*
X150875000Y-81175000D01*
G75*
G02*
X151075000Y-81375000I0J-200000D01*
G01*
G37*
G36*
G01*
X160525000Y-82075000D02*
X160525000Y-81525000D01*
G75*
G02*
X160725000Y-81325000I200000J0D01*
G01*
X161125000Y-81325000D01*
G75*
G02*
X161325000Y-81525000I0J-200000D01*
G01*
X161325000Y-82075000D01*
G75*
G02*
X161125000Y-82275000I-200000J0D01*
G01*
X160725000Y-82275000D01*
G75*
G02*
X160525000Y-82075000I0J200000D01*
G01*
G37*
G36*
G01*
X158875000Y-82075000D02*
X158875000Y-81525000D01*
G75*
G02*
X159075000Y-81325000I200000J0D01*
G01*
X159475000Y-81325000D01*
G75*
G02*
X159675000Y-81525000I0J-200000D01*
G01*
X159675000Y-82075000D01*
G75*
G02*
X159475000Y-82275000I-200000J0D01*
G01*
X159075000Y-82275000D01*
G75*
G02*
X158875000Y-82075000I0J200000D01*
G01*
G37*
G36*
G01*
X177925000Y-98475000D02*
X177925000Y-97925000D01*
G75*
G02*
X178125000Y-97725000I200000J0D01*
G01*
X178525000Y-97725000D01*
G75*
G02*
X178725000Y-97925000I0J-200000D01*
G01*
X178725000Y-98475000D01*
G75*
G02*
X178525000Y-98675000I-200000J0D01*
G01*
X178125000Y-98675000D01*
G75*
G02*
X177925000Y-98475000I0J200000D01*
G01*
G37*
G36*
G01*
X176275000Y-98475000D02*
X176275000Y-97925000D01*
G75*
G02*
X176475000Y-97725000I200000J0D01*
G01*
X176875000Y-97725000D01*
G75*
G02*
X177075000Y-97925000I0J-200000D01*
G01*
X177075000Y-98475000D01*
G75*
G02*
X176875000Y-98675000I-200000J0D01*
G01*
X176475000Y-98675000D01*
G75*
G02*
X176275000Y-98475000I0J200000D01*
G01*
G37*
G36*
G01*
X137275000Y-86575000D02*
X136725000Y-86575000D01*
G75*
G02*
X136525000Y-86375000I0J200000D01*
G01*
X136525000Y-85975000D01*
G75*
G02*
X136725000Y-85775000I200000J0D01*
G01*
X137275000Y-85775000D01*
G75*
G02*
X137475000Y-85975000I0J-200000D01*
G01*
X137475000Y-86375000D01*
G75*
G02*
X137275000Y-86575000I-200000J0D01*
G01*
G37*
G36*
G01*
X137275000Y-88225000D02*
X136725000Y-88225000D01*
G75*
G02*
X136525000Y-88025000I0J200000D01*
G01*
X136525000Y-87625000D01*
G75*
G02*
X136725000Y-87425000I200000J0D01*
G01*
X137275000Y-87425000D01*
G75*
G02*
X137475000Y-87625000I0J-200000D01*
G01*
X137475000Y-88025000D01*
G75*
G02*
X137275000Y-88225000I-200000J0D01*
G01*
G37*
G36*
G01*
X139275000Y-86575000D02*
X138725000Y-86575000D01*
G75*
G02*
X138525000Y-86375000I0J200000D01*
G01*
X138525000Y-85975000D01*
G75*
G02*
X138725000Y-85775000I200000J0D01*
G01*
X139275000Y-85775000D01*
G75*
G02*
X139475000Y-85975000I0J-200000D01*
G01*
X139475000Y-86375000D01*
G75*
G02*
X139275000Y-86575000I-200000J0D01*
G01*
G37*
G36*
G01*
X139275000Y-88225000D02*
X138725000Y-88225000D01*
G75*
G02*
X138525000Y-88025000I0J200000D01*
G01*
X138525000Y-87625000D01*
G75*
G02*
X138725000Y-87425000I200000J0D01*
G01*
X139275000Y-87425000D01*
G75*
G02*
X139475000Y-87625000I0J-200000D01*
G01*
X139475000Y-88025000D01*
G75*
G02*
X139275000Y-88225000I-200000J0D01*
G01*
G37*
G36*
G01*
X157675000Y-101575000D02*
X157125000Y-101575000D01*
G75*
G02*
X156925000Y-101375000I0J200000D01*
G01*
X156925000Y-100975000D01*
G75*
G02*
X157125000Y-100775000I200000J0D01*
G01*
X157675000Y-100775000D01*
G75*
G02*
X157875000Y-100975000I0J-200000D01*
G01*
X157875000Y-101375000D01*
G75*
G02*
X157675000Y-101575000I-200000J0D01*
G01*
G37*
G36*
G01*
X157675000Y-103225000D02*
X157125000Y-103225000D01*
G75*
G02*
X156925000Y-103025000I0J200000D01*
G01*
X156925000Y-102625000D01*
G75*
G02*
X157125000Y-102425000I200000J0D01*
G01*
X157675000Y-102425000D01*
G75*
G02*
X157875000Y-102625000I0J-200000D01*
G01*
X157875000Y-103025000D01*
G75*
G02*
X157675000Y-103225000I-200000J0D01*
G01*
G37*
G36*
G01*
X161175000Y-101575000D02*
X160625000Y-101575000D01*
G75*
G02*
X160425000Y-101375000I0J200000D01*
G01*
X160425000Y-100975000D01*
G75*
G02*
X160625000Y-100775000I200000J0D01*
G01*
X161175000Y-100775000D01*
G75*
G02*
X161375000Y-100975000I0J-200000D01*
G01*
X161375000Y-101375000D01*
G75*
G02*
X161175000Y-101575000I-200000J0D01*
G01*
G37*
G36*
G01*
X161175000Y-103225000D02*
X160625000Y-103225000D01*
G75*
G02*
X160425000Y-103025000I0J200000D01*
G01*
X160425000Y-102625000D01*
G75*
G02*
X160625000Y-102425000I200000J0D01*
G01*
X161175000Y-102425000D01*
G75*
G02*
X161375000Y-102625000I0J-200000D01*
G01*
X161375000Y-103025000D01*
G75*
G02*
X161175000Y-103225000I-200000J0D01*
G01*
G37*
G36*
G01*
X164425000Y-101575000D02*
X163875000Y-101575000D01*
G75*
G02*
X163675000Y-101375000I0J200000D01*
G01*
X163675000Y-100975000D01*
G75*
G02*
X163875000Y-100775000I200000J0D01*
G01*
X164425000Y-100775000D01*
G75*
G02*
X164625000Y-100975000I0J-200000D01*
G01*
X164625000Y-101375000D01*
G75*
G02*
X164425000Y-101575000I-200000J0D01*
G01*
G37*
G36*
G01*
X164425000Y-103225000D02*
X163875000Y-103225000D01*
G75*
G02*
X163675000Y-103025000I0J200000D01*
G01*
X163675000Y-102625000D01*
G75*
G02*
X163875000Y-102425000I200000J0D01*
G01*
X164425000Y-102425000D01*
G75*
G02*
X164625000Y-102625000I0J-200000D01*
G01*
X164625000Y-103025000D01*
G75*
G02*
X164425000Y-103225000I-200000J0D01*
G01*
G37*
G36*
G01*
X167875000Y-101575000D02*
X167325000Y-101575000D01*
G75*
G02*
X167125000Y-101375000I0J200000D01*
G01*
X167125000Y-100975000D01*
G75*
G02*
X167325000Y-100775000I200000J0D01*
G01*
X167875000Y-100775000D01*
G75*
G02*
X168075000Y-100975000I0J-200000D01*
G01*
X168075000Y-101375000D01*
G75*
G02*
X167875000Y-101575000I-200000J0D01*
G01*
G37*
G36*
G01*
X167875000Y-103225000D02*
X167325000Y-103225000D01*
G75*
G02*
X167125000Y-103025000I0J200000D01*
G01*
X167125000Y-102625000D01*
G75*
G02*
X167325000Y-102425000I200000J0D01*
G01*
X167875000Y-102425000D01*
G75*
G02*
X168075000Y-102625000I0J-200000D01*
G01*
X168075000Y-103025000D01*
G75*
G02*
X167875000Y-103225000I-200000J0D01*
G01*
G37*
G36*
G01*
X176475000Y-81900000D02*
X175925000Y-81900000D01*
G75*
G02*
X175725000Y-81700000I0J200000D01*
G01*
X175725000Y-81300000D01*
G75*
G02*
X175925000Y-81100000I200000J0D01*
G01*
X176475000Y-81100000D01*
G75*
G02*
X176675000Y-81300000I0J-200000D01*
G01*
X176675000Y-81700000D01*
G75*
G02*
X176475000Y-81900000I-200000J0D01*
G01*
G37*
G36*
G01*
X176475000Y-83550000D02*
X175925000Y-83550000D01*
G75*
G02*
X175725000Y-83350000I0J200000D01*
G01*
X175725000Y-82950000D01*
G75*
G02*
X175925000Y-82750000I200000J0D01*
G01*
X176475000Y-82750000D01*
G75*
G02*
X176675000Y-82950000I0J-200000D01*
G01*
X176675000Y-83350000D01*
G75*
G02*
X176475000Y-83550000I-200000J0D01*
G01*
G37*
G36*
G01*
X140725000Y-87425000D02*
X141275000Y-87425000D01*
G75*
G02*
X141475000Y-87625000I0J-200000D01*
G01*
X141475000Y-88025000D01*
G75*
G02*
X141275000Y-88225000I-200000J0D01*
G01*
X140725000Y-88225000D01*
G75*
G02*
X140525000Y-88025000I0J200000D01*
G01*
X140525000Y-87625000D01*
G75*
G02*
X140725000Y-87425000I200000J0D01*
G01*
G37*
G36*
G01*
X140725000Y-85775000D02*
X141275000Y-85775000D01*
G75*
G02*
X141475000Y-85975000I0J-200000D01*
G01*
X141475000Y-86375000D01*
G75*
G02*
X141275000Y-86575000I-200000J0D01*
G01*
X140725000Y-86575000D01*
G75*
G02*
X140525000Y-86375000I0J200000D01*
G01*
X140525000Y-85975000D01*
G75*
G02*
X140725000Y-85775000I200000J0D01*
G01*
G37*
G36*
G01*
X167725000Y-92400000D02*
X168275000Y-92400000D01*
G75*
G02*
X168475000Y-92600000I0J-200000D01*
G01*
X168475000Y-93000000D01*
G75*
G02*
X168275000Y-93200000I-200000J0D01*
G01*
X167725000Y-93200000D01*
G75*
G02*
X167525000Y-93000000I0J200000D01*
G01*
X167525000Y-92600000D01*
G75*
G02*
X167725000Y-92400000I200000J0D01*
G01*
G37*
G36*
G01*
X167725000Y-90750000D02*
X168275000Y-90750000D01*
G75*
G02*
X168475000Y-90950000I0J-200000D01*
G01*
X168475000Y-91350000D01*
G75*
G02*
X168275000Y-91550000I-200000J0D01*
G01*
X167725000Y-91550000D01*
G75*
G02*
X167525000Y-91350000I0J200000D01*
G01*
X167525000Y-90950000D01*
G75*
G02*
X167725000Y-90750000I200000J0D01*
G01*
G37*
G36*
G01*
X134725000Y-87425000D02*
X135275000Y-87425000D01*
G75*
G02*
X135475000Y-87625000I0J-200000D01*
G01*
X135475000Y-88025000D01*
G75*
G02*
X135275000Y-88225000I-200000J0D01*
G01*
X134725000Y-88225000D01*
G75*
G02*
X134525000Y-88025000I0J200000D01*
G01*
X134525000Y-87625000D01*
G75*
G02*
X134725000Y-87425000I200000J0D01*
G01*
G37*
G36*
G01*
X134725000Y-85775000D02*
X135275000Y-85775000D01*
G75*
G02*
X135475000Y-85975000I0J-200000D01*
G01*
X135475000Y-86375000D01*
G75*
G02*
X135275000Y-86575000I-200000J0D01*
G01*
X134725000Y-86575000D01*
G75*
G02*
X134525000Y-86375000I0J200000D01*
G01*
X134525000Y-85975000D01*
G75*
G02*
X134725000Y-85775000I200000J0D01*
G01*
G37*
G36*
G01*
X159375000Y-91525000D02*
X159925000Y-91525000D01*
G75*
G02*
X160125000Y-91725000I0J-200000D01*
G01*
X160125000Y-92125000D01*
G75*
G02*
X159925000Y-92325000I-200000J0D01*
G01*
X159375000Y-92325000D01*
G75*
G02*
X159175000Y-92125000I0J200000D01*
G01*
X159175000Y-91725000D01*
G75*
G02*
X159375000Y-91525000I200000J0D01*
G01*
G37*
G36*
G01*
X159375000Y-89875000D02*
X159925000Y-89875000D01*
G75*
G02*
X160125000Y-90075000I0J-200000D01*
G01*
X160125000Y-90475000D01*
G75*
G02*
X159925000Y-90675000I-200000J0D01*
G01*
X159375000Y-90675000D01*
G75*
G02*
X159175000Y-90475000I0J200000D01*
G01*
X159175000Y-90075000D01*
G75*
G02*
X159375000Y-89875000I200000J0D01*
G01*
G37*
G36*
G01*
X161275000Y-91525000D02*
X161825000Y-91525000D01*
G75*
G02*
X162025000Y-91725000I0J-200000D01*
G01*
X162025000Y-92125000D01*
G75*
G02*
X161825000Y-92325000I-200000J0D01*
G01*
X161275000Y-92325000D01*
G75*
G02*
X161075000Y-92125000I0J200000D01*
G01*
X161075000Y-91725000D01*
G75*
G02*
X161275000Y-91525000I200000J0D01*
G01*
G37*
G36*
G01*
X161275000Y-89875000D02*
X161825000Y-89875000D01*
G75*
G02*
X162025000Y-90075000I0J-200000D01*
G01*
X162025000Y-90475000D01*
G75*
G02*
X161825000Y-90675000I-200000J0D01*
G01*
X161275000Y-90675000D01*
G75*
G02*
X161075000Y-90475000I0J200000D01*
G01*
X161075000Y-90075000D01*
G75*
G02*
X161275000Y-89875000I200000J0D01*
G01*
G37*
G36*
G01*
X149506250Y-100400000D02*
X148993750Y-100400000D01*
G75*
G02*
X148775000Y-100181250I0J218750D01*
G01*
X148775000Y-99743750D01*
G75*
G02*
X148993750Y-99525000I218750J0D01*
G01*
X149506250Y-99525000D01*
G75*
G02*
X149725000Y-99743750I0J-218750D01*
G01*
X149725000Y-100181250D01*
G75*
G02*
X149506250Y-100400000I-218750J0D01*
G01*
G37*
G36*
G01*
X149506250Y-101975000D02*
X148993750Y-101975000D01*
G75*
G02*
X148775000Y-101756250I0J218750D01*
G01*
X148775000Y-101318750D01*
G75*
G02*
X148993750Y-101100000I218750J0D01*
G01*
X149506250Y-101100000D01*
G75*
G02*
X149725000Y-101318750I0J-218750D01*
G01*
X149725000Y-101756250D01*
G75*
G02*
X149506250Y-101975000I-218750J0D01*
G01*
G37*
G36*
G01*
X128256250Y-89650000D02*
X127743750Y-89650000D01*
G75*
G02*
X127525000Y-89431250I0J218750D01*
G01*
X127525000Y-88993750D01*
G75*
G02*
X127743750Y-88775000I218750J0D01*
G01*
X128256250Y-88775000D01*
G75*
G02*
X128475000Y-88993750I0J-218750D01*
G01*
X128475000Y-89431250D01*
G75*
G02*
X128256250Y-89650000I-218750J0D01*
G01*
G37*
G36*
G01*
X128256250Y-91225000D02*
X127743750Y-91225000D01*
G75*
G02*
X127525000Y-91006250I0J218750D01*
G01*
X127525000Y-90568750D01*
G75*
G02*
X127743750Y-90350000I218750J0D01*
G01*
X128256250Y-90350000D01*
G75*
G02*
X128475000Y-90568750I0J-218750D01*
G01*
X128475000Y-91006250D01*
G75*
G02*
X128256250Y-91225000I-218750J0D01*
G01*
G37*
G36*
G01*
X124993750Y-86062500D02*
X125506250Y-86062500D01*
G75*
G02*
X125725000Y-86281250I0J-218750D01*
G01*
X125725000Y-86718750D01*
G75*
G02*
X125506250Y-86937500I-218750J0D01*
G01*
X124993750Y-86937500D01*
G75*
G02*
X124775000Y-86718750I0J218750D01*
G01*
X124775000Y-86281250D01*
G75*
G02*
X124993750Y-86062500I218750J0D01*
G01*
G37*
G36*
G01*
X124993750Y-84487500D02*
X125506250Y-84487500D01*
G75*
G02*
X125725000Y-84706250I0J-218750D01*
G01*
X125725000Y-85143750D01*
G75*
G02*
X125506250Y-85362500I-218750J0D01*
G01*
X124993750Y-85362500D01*
G75*
G02*
X124775000Y-85143750I0J218750D01*
G01*
X124775000Y-84706250D01*
G75*
G02*
X124993750Y-84487500I218750J0D01*
G01*
G37*
D13*
X130600000Y-85050000D03*
X130600000Y-86950000D03*
X128400000Y-86950000D03*
D14*
X128400000Y-85230000D03*
G36*
G01*
X155393750Y-102350000D02*
X155906250Y-102350000D01*
G75*
G02*
X156125000Y-102568750I0J-218750D01*
G01*
X156125000Y-103006250D01*
G75*
G02*
X155906250Y-103225000I-218750J0D01*
G01*
X155393750Y-103225000D01*
G75*
G02*
X155175000Y-103006250I0J218750D01*
G01*
X155175000Y-102568750D01*
G75*
G02*
X155393750Y-102350000I218750J0D01*
G01*
G37*
G36*
G01*
X155393750Y-100775000D02*
X155906250Y-100775000D01*
G75*
G02*
X156125000Y-100993750I0J-218750D01*
G01*
X156125000Y-101431250D01*
G75*
G02*
X155906250Y-101650000I-218750J0D01*
G01*
X155393750Y-101650000D01*
G75*
G02*
X155175000Y-101431250I0J218750D01*
G01*
X155175000Y-100993750D01*
G75*
G02*
X155393750Y-100775000I218750J0D01*
G01*
G37*
G36*
G01*
X158893750Y-102350000D02*
X159406250Y-102350000D01*
G75*
G02*
X159625000Y-102568750I0J-218750D01*
G01*
X159625000Y-103006250D01*
G75*
G02*
X159406250Y-103225000I-218750J0D01*
G01*
X158893750Y-103225000D01*
G75*
G02*
X158675000Y-103006250I0J218750D01*
G01*
X158675000Y-102568750D01*
G75*
G02*
X158893750Y-102350000I218750J0D01*
G01*
G37*
G36*
G01*
X158893750Y-100775000D02*
X159406250Y-100775000D01*
G75*
G02*
X159625000Y-100993750I0J-218750D01*
G01*
X159625000Y-101431250D01*
G75*
G02*
X159406250Y-101650000I-218750J0D01*
G01*
X158893750Y-101650000D01*
G75*
G02*
X158675000Y-101431250I0J218750D01*
G01*
X158675000Y-100993750D01*
G75*
G02*
X158893750Y-100775000I218750J0D01*
G01*
G37*
G36*
G01*
X162143750Y-102350000D02*
X162656250Y-102350000D01*
G75*
G02*
X162875000Y-102568750I0J-218750D01*
G01*
X162875000Y-103006250D01*
G75*
G02*
X162656250Y-103225000I-218750J0D01*
G01*
X162143750Y-103225000D01*
G75*
G02*
X161925000Y-103006250I0J218750D01*
G01*
X161925000Y-102568750D01*
G75*
G02*
X162143750Y-102350000I218750J0D01*
G01*
G37*
G36*
G01*
X162143750Y-100775000D02*
X162656250Y-100775000D01*
G75*
G02*
X162875000Y-100993750I0J-218750D01*
G01*
X162875000Y-101431250D01*
G75*
G02*
X162656250Y-101650000I-218750J0D01*
G01*
X162143750Y-101650000D01*
G75*
G02*
X161925000Y-101431250I0J218750D01*
G01*
X161925000Y-100993750D01*
G75*
G02*
X162143750Y-100775000I218750J0D01*
G01*
G37*
G36*
G01*
X165543750Y-102350000D02*
X166056250Y-102350000D01*
G75*
G02*
X166275000Y-102568750I0J-218750D01*
G01*
X166275000Y-103006250D01*
G75*
G02*
X166056250Y-103225000I-218750J0D01*
G01*
X165543750Y-103225000D01*
G75*
G02*
X165325000Y-103006250I0J218750D01*
G01*
X165325000Y-102568750D01*
G75*
G02*
X165543750Y-102350000I218750J0D01*
G01*
G37*
G36*
G01*
X165543750Y-100775000D02*
X166056250Y-100775000D01*
G75*
G02*
X166275000Y-100993750I0J-218750D01*
G01*
X166275000Y-101431250D01*
G75*
G02*
X166056250Y-101650000I-218750J0D01*
G01*
X165543750Y-101650000D01*
G75*
G02*
X165325000Y-101431250I0J218750D01*
G01*
X165325000Y-100993750D01*
G75*
G02*
X165543750Y-100775000I218750J0D01*
G01*
G37*
D10*
X127500000Y-93750000D03*
X131500000Y-93750000D03*
G36*
G01*
X156875000Y-92150000D02*
X156875000Y-91650000D01*
G75*
G02*
X157100000Y-91425000I225000J0D01*
G01*
X157550000Y-91425000D01*
G75*
G02*
X157775000Y-91650000I0J-225000D01*
G01*
X157775000Y-92150000D01*
G75*
G02*
X157550000Y-92375000I-225000J0D01*
G01*
X157100000Y-92375000D01*
G75*
G02*
X156875000Y-92150000I0J225000D01*
G01*
G37*
G36*
G01*
X155325000Y-92150000D02*
X155325000Y-91650000D01*
G75*
G02*
X155550000Y-91425000I225000J0D01*
G01*
X156000000Y-91425000D01*
G75*
G02*
X156225000Y-91650000I0J-225000D01*
G01*
X156225000Y-92150000D01*
G75*
G02*
X156000000Y-92375000I-225000J0D01*
G01*
X155550000Y-92375000D01*
G75*
G02*
X155325000Y-92150000I0J225000D01*
G01*
G37*
G36*
G01*
X153775000Y-91275000D02*
X153775000Y-90775000D01*
G75*
G02*
X154000000Y-90550000I225000J0D01*
G01*
X154450000Y-90550000D01*
G75*
G02*
X154675000Y-90775000I0J-225000D01*
G01*
X154675000Y-91275000D01*
G75*
G02*
X154450000Y-91500000I-225000J0D01*
G01*
X154000000Y-91500000D01*
G75*
G02*
X153775000Y-91275000I0J225000D01*
G01*
G37*
G36*
G01*
X152225000Y-91275000D02*
X152225000Y-90775000D01*
G75*
G02*
X152450000Y-90550000I225000J0D01*
G01*
X152900000Y-90550000D01*
G75*
G02*
X153125000Y-90775000I0J-225000D01*
G01*
X153125000Y-91275000D01*
G75*
G02*
X152900000Y-91500000I-225000J0D01*
G01*
X152450000Y-91500000D01*
G75*
G02*
X152225000Y-91275000I0J225000D01*
G01*
G37*
G36*
G01*
X143950000Y-102325000D02*
X144450000Y-102325000D01*
G75*
G02*
X144675000Y-102550000I0J-225000D01*
G01*
X144675000Y-103000000D01*
G75*
G02*
X144450000Y-103225000I-225000J0D01*
G01*
X143950000Y-103225000D01*
G75*
G02*
X143725000Y-103000000I0J225000D01*
G01*
X143725000Y-102550000D01*
G75*
G02*
X143950000Y-102325000I225000J0D01*
G01*
G37*
G36*
G01*
X143950000Y-100775000D02*
X144450000Y-100775000D01*
G75*
G02*
X144675000Y-101000000I0J-225000D01*
G01*
X144675000Y-101450000D01*
G75*
G02*
X144450000Y-101675000I-225000J0D01*
G01*
X143950000Y-101675000D01*
G75*
G02*
X143725000Y-101450000I0J225000D01*
G01*
X143725000Y-101000000D01*
G75*
G02*
X143950000Y-100775000I225000J0D01*
G01*
G37*
G36*
G01*
X149500000Y-96675000D02*
X149000000Y-96675000D01*
G75*
G02*
X148775000Y-96450000I0J225000D01*
G01*
X148775000Y-96000000D01*
G75*
G02*
X149000000Y-95775000I225000J0D01*
G01*
X149500000Y-95775000D01*
G75*
G02*
X149725000Y-96000000I0J-225000D01*
G01*
X149725000Y-96450000D01*
G75*
G02*
X149500000Y-96675000I-225000J0D01*
G01*
G37*
G36*
G01*
X149500000Y-98225000D02*
X149000000Y-98225000D01*
G75*
G02*
X148775000Y-98000000I0J225000D01*
G01*
X148775000Y-97550000D01*
G75*
G02*
X149000000Y-97325000I225000J0D01*
G01*
X149500000Y-97325000D01*
G75*
G02*
X149725000Y-97550000I0J-225000D01*
G01*
X149725000Y-98000000D01*
G75*
G02*
X149500000Y-98225000I-225000J0D01*
G01*
G37*
G36*
G01*
X135250000Y-90675000D02*
X134750000Y-90675000D01*
G75*
G02*
X134525000Y-90450000I0J225000D01*
G01*
X134525000Y-90000000D01*
G75*
G02*
X134750000Y-89775000I225000J0D01*
G01*
X135250000Y-89775000D01*
G75*
G02*
X135475000Y-90000000I0J-225000D01*
G01*
X135475000Y-90450000D01*
G75*
G02*
X135250000Y-90675000I-225000J0D01*
G01*
G37*
G36*
G01*
X135250000Y-92225000D02*
X134750000Y-92225000D01*
G75*
G02*
X134525000Y-92000000I0J225000D01*
G01*
X134525000Y-91550000D01*
G75*
G02*
X134750000Y-91325000I225000J0D01*
G01*
X135250000Y-91325000D01*
G75*
G02*
X135475000Y-91550000I0J-225000D01*
G01*
X135475000Y-92000000D01*
G75*
G02*
X135250000Y-92225000I-225000J0D01*
G01*
G37*
G36*
G01*
X135250000Y-94675000D02*
X134750000Y-94675000D01*
G75*
G02*
X134525000Y-94450000I0J225000D01*
G01*
X134525000Y-94000000D01*
G75*
G02*
X134750000Y-93775000I225000J0D01*
G01*
X135250000Y-93775000D01*
G75*
G02*
X135475000Y-94000000I0J-225000D01*
G01*
X135475000Y-94450000D01*
G75*
G02*
X135250000Y-94675000I-225000J0D01*
G01*
G37*
G36*
G01*
X135250000Y-96225000D02*
X134750000Y-96225000D01*
G75*
G02*
X134525000Y-96000000I0J225000D01*
G01*
X134525000Y-95550000D01*
G75*
G02*
X134750000Y-95325000I225000J0D01*
G01*
X135250000Y-95325000D01*
G75*
G02*
X135475000Y-95550000I0J-225000D01*
G01*
X135475000Y-96000000D01*
G75*
G02*
X135250000Y-96225000I-225000J0D01*
G01*
G37*
G36*
G01*
X177825000Y-101750000D02*
X177825000Y-101250000D01*
G75*
G02*
X178050000Y-101025000I225000J0D01*
G01*
X178500000Y-101025000D01*
G75*
G02*
X178725000Y-101250000I0J-225000D01*
G01*
X178725000Y-101750000D01*
G75*
G02*
X178500000Y-101975000I-225000J0D01*
G01*
X178050000Y-101975000D01*
G75*
G02*
X177825000Y-101750000I0J225000D01*
G01*
G37*
G36*
G01*
X176275000Y-101750000D02*
X176275000Y-101250000D01*
G75*
G02*
X176500000Y-101025000I225000J0D01*
G01*
X176950000Y-101025000D01*
G75*
G02*
X177175000Y-101250000I0J-225000D01*
G01*
X177175000Y-101750000D01*
G75*
G02*
X176950000Y-101975000I-225000J0D01*
G01*
X176500000Y-101975000D01*
G75*
G02*
X176275000Y-101750000I0J225000D01*
G01*
G37*
G36*
G01*
X141750000Y-102325000D02*
X142250000Y-102325000D01*
G75*
G02*
X142475000Y-102550000I0J-225000D01*
G01*
X142475000Y-103000000D01*
G75*
G02*
X142250000Y-103225000I-225000J0D01*
G01*
X141750000Y-103225000D01*
G75*
G02*
X141525000Y-103000000I0J225000D01*
G01*
X141525000Y-102550000D01*
G75*
G02*
X141750000Y-102325000I225000J0D01*
G01*
G37*
G36*
G01*
X141750000Y-100775000D02*
X142250000Y-100775000D01*
G75*
G02*
X142475000Y-101000000I0J-225000D01*
G01*
X142475000Y-101450000D01*
G75*
G02*
X142250000Y-101675000I-225000J0D01*
G01*
X141750000Y-101675000D01*
G75*
G02*
X141525000Y-101450000I0J225000D01*
G01*
X141525000Y-101000000D01*
G75*
G02*
X141750000Y-100775000I225000J0D01*
G01*
G37*
G36*
G01*
X134750000Y-102125000D02*
X135250000Y-102125000D01*
G75*
G02*
X135475000Y-102350000I0J-225000D01*
G01*
X135475000Y-102800000D01*
G75*
G02*
X135250000Y-103025000I-225000J0D01*
G01*
X134750000Y-103025000D01*
G75*
G02*
X134525000Y-102800000I0J225000D01*
G01*
X134525000Y-102350000D01*
G75*
G02*
X134750000Y-102125000I225000J0D01*
G01*
G37*
G36*
G01*
X134750000Y-100575000D02*
X135250000Y-100575000D01*
G75*
G02*
X135475000Y-100800000I0J-225000D01*
G01*
X135475000Y-101250000D01*
G75*
G02*
X135250000Y-101475000I-225000J0D01*
G01*
X134750000Y-101475000D01*
G75*
G02*
X134525000Y-101250000I0J225000D01*
G01*
X134525000Y-100800000D01*
G75*
G02*
X134750000Y-100575000I225000J0D01*
G01*
G37*
G36*
G01*
X135250000Y-98050000D02*
X134750000Y-98050000D01*
G75*
G02*
X134525000Y-97825000I0J225000D01*
G01*
X134525000Y-97375000D01*
G75*
G02*
X134750000Y-97150000I225000J0D01*
G01*
X135250000Y-97150000D01*
G75*
G02*
X135475000Y-97375000I0J-225000D01*
G01*
X135475000Y-97825000D01*
G75*
G02*
X135250000Y-98050000I-225000J0D01*
G01*
G37*
G36*
G01*
X135250000Y-99600000D02*
X134750000Y-99600000D01*
G75*
G02*
X134525000Y-99375000I0J225000D01*
G01*
X134525000Y-98925000D01*
G75*
G02*
X134750000Y-98700000I225000J0D01*
G01*
X135250000Y-98700000D01*
G75*
G02*
X135475000Y-98925000I0J-225000D01*
G01*
X135475000Y-99375000D01*
G75*
G02*
X135250000Y-99600000I-225000J0D01*
G01*
G37*
G36*
G01*
X130825000Y-91250000D02*
X130825000Y-90750000D01*
G75*
G02*
X131050000Y-90525000I225000J0D01*
G01*
X131500000Y-90525000D01*
G75*
G02*
X131725000Y-90750000I0J-225000D01*
G01*
X131725000Y-91250000D01*
G75*
G02*
X131500000Y-91475000I-225000J0D01*
G01*
X131050000Y-91475000D01*
G75*
G02*
X130825000Y-91250000I0J225000D01*
G01*
G37*
G36*
G01*
X129275000Y-91250000D02*
X129275000Y-90750000D01*
G75*
G02*
X129500000Y-90525000I225000J0D01*
G01*
X129950000Y-90525000D01*
G75*
G02*
X130175000Y-90750000I0J-225000D01*
G01*
X130175000Y-91250000D01*
G75*
G02*
X129950000Y-91475000I-225000J0D01*
G01*
X129500000Y-91475000D01*
G75*
G02*
X129275000Y-91250000I0J225000D01*
G01*
G37*
G36*
G01*
X130825000Y-89250000D02*
X130825000Y-88750000D01*
G75*
G02*
X131050000Y-88525000I225000J0D01*
G01*
X131500000Y-88525000D01*
G75*
G02*
X131725000Y-88750000I0J-225000D01*
G01*
X131725000Y-89250000D01*
G75*
G02*
X131500000Y-89475000I-225000J0D01*
G01*
X131050000Y-89475000D01*
G75*
G02*
X130825000Y-89250000I0J225000D01*
G01*
G37*
G36*
G01*
X129275000Y-89250000D02*
X129275000Y-88750000D01*
G75*
G02*
X129500000Y-88525000I225000J0D01*
G01*
X129950000Y-88525000D01*
G75*
G02*
X130175000Y-88750000I0J-225000D01*
G01*
X130175000Y-89250000D01*
G75*
G02*
X129950000Y-89475000I-225000J0D01*
G01*
X129500000Y-89475000D01*
G75*
G02*
X129275000Y-89250000I0J225000D01*
G01*
G37*
G36*
G01*
X132325000Y-96750000D02*
X132325000Y-96250000D01*
G75*
G02*
X132550000Y-96025000I225000J0D01*
G01*
X133000000Y-96025000D01*
G75*
G02*
X133225000Y-96250000I0J-225000D01*
G01*
X133225000Y-96750000D01*
G75*
G02*
X133000000Y-96975000I-225000J0D01*
G01*
X132550000Y-96975000D01*
G75*
G02*
X132325000Y-96750000I0J225000D01*
G01*
G37*
G36*
G01*
X130775000Y-96750000D02*
X130775000Y-96250000D01*
G75*
G02*
X131000000Y-96025000I225000J0D01*
G01*
X131450000Y-96025000D01*
G75*
G02*
X131675000Y-96250000I0J-225000D01*
G01*
X131675000Y-96750000D01*
G75*
G02*
X131450000Y-96975000I-225000J0D01*
G01*
X131000000Y-96975000D01*
G75*
G02*
X130775000Y-96750000I0J225000D01*
G01*
G37*
D15*
X139925000Y-102000000D03*
X138075000Y-102000000D03*
G36*
G01*
X132800000Y-99975000D02*
X133100000Y-99975000D01*
G75*
G02*
X133250000Y-100125000I0J-150000D01*
G01*
X133250000Y-101150000D01*
G75*
G02*
X133100000Y-101300000I-150000J0D01*
G01*
X132800000Y-101300000D01*
G75*
G02*
X132650000Y-101150000I0J150000D01*
G01*
X132650000Y-100125000D01*
G75*
G02*
X132800000Y-99975000I150000J0D01*
G01*
G37*
G36*
G01*
X130900000Y-99975000D02*
X131200000Y-99975000D01*
G75*
G02*
X131350000Y-100125000I0J-150000D01*
G01*
X131350000Y-101150000D01*
G75*
G02*
X131200000Y-101300000I-150000J0D01*
G01*
X130900000Y-101300000D01*
G75*
G02*
X130750000Y-101150000I0J150000D01*
G01*
X130750000Y-100125000D01*
G75*
G02*
X130900000Y-99975000I150000J0D01*
G01*
G37*
G36*
G01*
X130900000Y-97700000D02*
X131200000Y-97700000D01*
G75*
G02*
X131350000Y-97850000I0J-150000D01*
G01*
X131350000Y-98875000D01*
G75*
G02*
X131200000Y-99025000I-150000J0D01*
G01*
X130900000Y-99025000D01*
G75*
G02*
X130750000Y-98875000I0J150000D01*
G01*
X130750000Y-97850000D01*
G75*
G02*
X130900000Y-97700000I150000J0D01*
G01*
G37*
G36*
G01*
X131850000Y-97700000D02*
X132150000Y-97700000D01*
G75*
G02*
X132300000Y-97850000I0J-150000D01*
G01*
X132300000Y-98875000D01*
G75*
G02*
X132150000Y-99025000I-150000J0D01*
G01*
X131850000Y-99025000D01*
G75*
G02*
X131700000Y-98875000I0J150000D01*
G01*
X131700000Y-97850000D01*
G75*
G02*
X131850000Y-97700000I150000J0D01*
G01*
G37*
G36*
G01*
X132800000Y-97700000D02*
X133100000Y-97700000D01*
G75*
G02*
X133250000Y-97850000I0J-150000D01*
G01*
X133250000Y-98875000D01*
G75*
G02*
X133100000Y-99025000I-150000J0D01*
G01*
X132800000Y-99025000D01*
G75*
G02*
X132650000Y-98875000I0J150000D01*
G01*
X132650000Y-97850000D01*
G75*
G02*
X132800000Y-97700000I150000J0D01*
G01*
G37*
D16*
X133775000Y-82695000D03*
X140225000Y-82695000D03*
D17*
X134550000Y-82695000D03*
X139450000Y-82695000D03*
D18*
X138750000Y-82695000D03*
X135250000Y-82695000D03*
X138250000Y-82695000D03*
X135750000Y-82695000D03*
X137750000Y-82695000D03*
X136250000Y-82695000D03*
X136750000Y-82695000D03*
X137250000Y-82695000D03*
G36*
G01*
X154037500Y-84860000D02*
X154502500Y-84860000D01*
G75*
G02*
X154735000Y-85092500I0J-232500D01*
G01*
X154735000Y-86607500D01*
G75*
G02*
X154502500Y-86840000I-232500J0D01*
G01*
X154037500Y-86840000D01*
G75*
G02*
X153805000Y-86607500I0J232500D01*
G01*
X153805000Y-85092500D01*
G75*
G02*
X154037500Y-84860000I232500J0D01*
G01*
G37*
G36*
G01*
X155197500Y-84860000D02*
X155662500Y-84860000D01*
G75*
G02*
X155895000Y-85092500I0J-232500D01*
G01*
X155895000Y-86607500D01*
G75*
G02*
X155662500Y-86840000I-232500J0D01*
G01*
X155197500Y-86840000D01*
G75*
G02*
X154965000Y-86607500I0J232500D01*
G01*
X154965000Y-85092500D01*
G75*
G02*
X155197500Y-84860000I232500J0D01*
G01*
G37*
G36*
G01*
X157025000Y-87925000D02*
X157225000Y-87925000D01*
G75*
G02*
X157325000Y-88025000I0J-100000D01*
G01*
X157325000Y-89400000D01*
G75*
G02*
X157225000Y-89500000I-100000J0D01*
G01*
X157025000Y-89500000D01*
G75*
G02*
X156925000Y-89400000I0J100000D01*
G01*
X156925000Y-88025000D01*
G75*
G02*
X157025000Y-87925000I100000J0D01*
G01*
G37*
G36*
G01*
X156375000Y-87925000D02*
X156575000Y-87925000D01*
G75*
G02*
X156675000Y-88025000I0J-100000D01*
G01*
X156675000Y-89400000D01*
G75*
G02*
X156575000Y-89500000I-100000J0D01*
G01*
X156375000Y-89500000D01*
G75*
G02*
X156275000Y-89400000I0J100000D01*
G01*
X156275000Y-88025000D01*
G75*
G02*
X156375000Y-87925000I100000J0D01*
G01*
G37*
G36*
G01*
X155725000Y-87925000D02*
X155925000Y-87925000D01*
G75*
G02*
X156025000Y-88025000I0J-100000D01*
G01*
X156025000Y-89400000D01*
G75*
G02*
X155925000Y-89500000I-100000J0D01*
G01*
X155725000Y-89500000D01*
G75*
G02*
X155625000Y-89400000I0J100000D01*
G01*
X155625000Y-88025000D01*
G75*
G02*
X155725000Y-87925000I100000J0D01*
G01*
G37*
G36*
G01*
X155075000Y-87925000D02*
X155275000Y-87925000D01*
G75*
G02*
X155375000Y-88025000I0J-100000D01*
G01*
X155375000Y-89400000D01*
G75*
G02*
X155275000Y-89500000I-100000J0D01*
G01*
X155075000Y-89500000D01*
G75*
G02*
X154975000Y-89400000I0J100000D01*
G01*
X154975000Y-88025000D01*
G75*
G02*
X155075000Y-87925000I100000J0D01*
G01*
G37*
G36*
G01*
X154425000Y-87925000D02*
X154625000Y-87925000D01*
G75*
G02*
X154725000Y-88025000I0J-100000D01*
G01*
X154725000Y-89400000D01*
G75*
G02*
X154625000Y-89500000I-100000J0D01*
G01*
X154425000Y-89500000D01*
G75*
G02*
X154325000Y-89400000I0J100000D01*
G01*
X154325000Y-88025000D01*
G75*
G02*
X154425000Y-87925000I100000J0D01*
G01*
G37*
G36*
G01*
X153775000Y-87925000D02*
X153975000Y-87925000D01*
G75*
G02*
X154075000Y-88025000I0J-100000D01*
G01*
X154075000Y-89400000D01*
G75*
G02*
X153975000Y-89500000I-100000J0D01*
G01*
X153775000Y-89500000D01*
G75*
G02*
X153675000Y-89400000I0J100000D01*
G01*
X153675000Y-88025000D01*
G75*
G02*
X153775000Y-87925000I100000J0D01*
G01*
G37*
G36*
G01*
X153125000Y-87925000D02*
X153325000Y-87925000D01*
G75*
G02*
X153425000Y-88025000I0J-100000D01*
G01*
X153425000Y-89400000D01*
G75*
G02*
X153325000Y-89500000I-100000J0D01*
G01*
X153125000Y-89500000D01*
G75*
G02*
X153025000Y-89400000I0J100000D01*
G01*
X153025000Y-88025000D01*
G75*
G02*
X153125000Y-87925000I100000J0D01*
G01*
G37*
G36*
G01*
X152475000Y-87925000D02*
X152675000Y-87925000D01*
G75*
G02*
X152775000Y-88025000I0J-100000D01*
G01*
X152775000Y-89400000D01*
G75*
G02*
X152675000Y-89500000I-100000J0D01*
G01*
X152475000Y-89500000D01*
G75*
G02*
X152375000Y-89400000I0J100000D01*
G01*
X152375000Y-88025000D01*
G75*
G02*
X152475000Y-87925000I100000J0D01*
G01*
G37*
G36*
G01*
X152475000Y-82200000D02*
X152675000Y-82200000D01*
G75*
G02*
X152775000Y-82300000I0J-100000D01*
G01*
X152775000Y-83675000D01*
G75*
G02*
X152675000Y-83775000I-100000J0D01*
G01*
X152475000Y-83775000D01*
G75*
G02*
X152375000Y-83675000I0J100000D01*
G01*
X152375000Y-82300000D01*
G75*
G02*
X152475000Y-82200000I100000J0D01*
G01*
G37*
G36*
G01*
X153125000Y-82200000D02*
X153325000Y-82200000D01*
G75*
G02*
X153425000Y-82300000I0J-100000D01*
G01*
X153425000Y-83675000D01*
G75*
G02*
X153325000Y-83775000I-100000J0D01*
G01*
X153125000Y-83775000D01*
G75*
G02*
X153025000Y-83675000I0J100000D01*
G01*
X153025000Y-82300000D01*
G75*
G02*
X153125000Y-82200000I100000J0D01*
G01*
G37*
G36*
G01*
X153775000Y-82200000D02*
X153975000Y-82200000D01*
G75*
G02*
X154075000Y-82300000I0J-100000D01*
G01*
X154075000Y-83675000D01*
G75*
G02*
X153975000Y-83775000I-100000J0D01*
G01*
X153775000Y-83775000D01*
G75*
G02*
X153675000Y-83675000I0J100000D01*
G01*
X153675000Y-82300000D01*
G75*
G02*
X153775000Y-82200000I100000J0D01*
G01*
G37*
G36*
G01*
X154425000Y-82200000D02*
X154625000Y-82200000D01*
G75*
G02*
X154725000Y-82300000I0J-100000D01*
G01*
X154725000Y-83675000D01*
G75*
G02*
X154625000Y-83775000I-100000J0D01*
G01*
X154425000Y-83775000D01*
G75*
G02*
X154325000Y-83675000I0J100000D01*
G01*
X154325000Y-82300000D01*
G75*
G02*
X154425000Y-82200000I100000J0D01*
G01*
G37*
G36*
G01*
X155075000Y-82200000D02*
X155275000Y-82200000D01*
G75*
G02*
X155375000Y-82300000I0J-100000D01*
G01*
X155375000Y-83675000D01*
G75*
G02*
X155275000Y-83775000I-100000J0D01*
G01*
X155075000Y-83775000D01*
G75*
G02*
X154975000Y-83675000I0J100000D01*
G01*
X154975000Y-82300000D01*
G75*
G02*
X155075000Y-82200000I100000J0D01*
G01*
G37*
G36*
G01*
X155725000Y-82200000D02*
X155925000Y-82200000D01*
G75*
G02*
X156025000Y-82300000I0J-100000D01*
G01*
X156025000Y-83675000D01*
G75*
G02*
X155925000Y-83775000I-100000J0D01*
G01*
X155725000Y-83775000D01*
G75*
G02*
X155625000Y-83675000I0J100000D01*
G01*
X155625000Y-82300000D01*
G75*
G02*
X155725000Y-82200000I100000J0D01*
G01*
G37*
G36*
G01*
X156375000Y-82200000D02*
X156575000Y-82200000D01*
G75*
G02*
X156675000Y-82300000I0J-100000D01*
G01*
X156675000Y-83675000D01*
G75*
G02*
X156575000Y-83775000I-100000J0D01*
G01*
X156375000Y-83775000D01*
G75*
G02*
X156275000Y-83675000I0J100000D01*
G01*
X156275000Y-82300000D01*
G75*
G02*
X156375000Y-82200000I100000J0D01*
G01*
G37*
G36*
G01*
X157025000Y-82200000D02*
X157225000Y-82200000D01*
G75*
G02*
X157325000Y-82300000I0J-100000D01*
G01*
X157325000Y-83675000D01*
G75*
G02*
X157225000Y-83775000I-100000J0D01*
G01*
X157025000Y-83775000D01*
G75*
G02*
X156925000Y-83675000I0J100000D01*
G01*
X156925000Y-82300000D01*
G75*
G02*
X157025000Y-82200000I100000J0D01*
G01*
G37*
D19*
X137250000Y-97800000D03*
X137250000Y-97000000D03*
X137250000Y-96200000D03*
X137250000Y-95400000D03*
X137250000Y-94600000D03*
X137250000Y-93800000D03*
X137250000Y-93000000D03*
X137250000Y-92200000D03*
D20*
X138700000Y-90750000D03*
X139500000Y-90750000D03*
X140300000Y-90750000D03*
X141100000Y-90750000D03*
X141900000Y-90750000D03*
X142700000Y-90750000D03*
X143500000Y-90750000D03*
X144300000Y-90750000D03*
D19*
X145750000Y-92200000D03*
X145750000Y-93000000D03*
X145750000Y-93800000D03*
X145750000Y-94600000D03*
X145750000Y-95400000D03*
X145750000Y-96200000D03*
X145750000Y-97000000D03*
X145750000Y-97800000D03*
D20*
X144300000Y-99250000D03*
X143500000Y-99250000D03*
X142700000Y-99250000D03*
X141900000Y-99250000D03*
X141100000Y-99250000D03*
X140300000Y-99250000D03*
X139500000Y-99250000D03*
X138700000Y-99250000D03*
M02*
